<?xml version="1.0" standalone="no"?>
<!DOCTYPE svg PUBLIC "-//W3C//DTD SVG 1.1//EN" "http://www.w3.org/Graphics/SVG/1.1/DTD/svg11.dtd" >
<svg xmlns="http://www.w3.org/2000/svg" xmlns:xlink="http://www.w3.org/1999/xlink" version="1.1">
<metadata>
Created by FontForge 20170731 at Sat Mar 19 17:55:26 2022
 By Aleksey,,,
Copyright (c) 2009 by Village Type &#38; Design LLC. All rights reserved.
</metadata>
<defs>
<font id="GalaxieCopernicus-Book" horiz-adv-x="1433" >
  <font-face 
    font-family="Galaxie Copernicus"
    font-weight="500"
    font-stretch="normal"
    units-per-em="2048"
    panose-1="2 0 0 0 0 0 0 0 0 0"
    ascent="1638"
    descent="-410"
    x-height="1071"
    cap-height="1597"
    bbox="-303 -629 2912 2150"
    underline-thickness="61"
    underline-position="-265"
    unicode-range="U+0020-F778"
  />
<missing-glyph horiz-adv-x="1966" 
d="M184 0v1597h1598v-1597h-1598zM983 707l-571 -572h1142zM412 1462l571 -571l571 571h-1142zM891 799l-563 563v-1126zM1075 799l563 -563v1126z" />
    <glyph glyph-name="interrobang" unicode="&#x21;&#x3f;" horiz-adv-x="1044" 
d="M809 1270q0 128 -81 193t-208 65q-250 0 -250 -262v-33h-133q-41 44 -41 115q0 110 111.5 190t294.5 80q219 0 344 -90.5t125 -274.5q0 -132 -65 -234.5t-197 -201.5q-75 -56 -112 -95t-56 -89.5t-19 -122.5v-111h-51q-68 89 -68 187q0 104 56 180l-39 399v95h184v-95
l-29 -282l19 16q125 104 170 176.5t45 194.5zM365 109q0 54 37.5 92.5t91.5 38.5t92.5 -38.5t38.5 -92.5t-38.5 -91.5t-92.5 -37.5t-91.5 37.5t-37.5 91.5z" />
    <glyph glyph-name="f_f_j" unicode="ffj" horiz-adv-x="2101" 
d="M1628 -512l-43 39l103 162q47 72 62 157.5t15 221.5v915h-585v-795q0 -23 4 -40t10 -29t21 -21t27.5 -14.5t40.5 -10.5t49 -7.5t63 -6.5v-59h-545v59q36 5 55 8t46 11t40 19.5t23 31.5t10 47v807h-586v-795q0 -23 4 -40t10 -29t21 -21t27.5 -14.5t40.5 -10.5t49 -7.5
t63 -6.5v-59h-544v59q36 5 55 8t46 11t40 19.5t23 31.5t10 47v807h-158v47l158 62v61q0 230 103 357.5t302 127.5q117 0 183.5 -45.5t66.5 -128.5q0 -34 -16 -59.5t-41 -36.5h-93v37q0 75 -38.5 110t-114.5 35q-105 0 -151 -79.5t-46 -243.5v-156h586v78q0 232 133 371
t350 139q129 0 214 -51t85 -133q0 -35 -16.5 -64.5t-40.5 -40.5h-117v37q0 78 -45.5 121t-132.5 43q-135 0 -204.5 -105t-69.5 -295v-100h751l-10 -203v-768q0 -131 -6.5 -184.5t-32.5 -114.5q-19 -45 -66.5 -107t-86.5 -103t-101 -103z" />
    <glyph glyph-name="f_f_k" unicode="ffk" horiz-adv-x="2744" 
d="M1933 539l391 354q29 29 29 49q0 34 -28 46.5t-115 23.5v59h456v-59q-10 -3 -32 -9t-29 -7.5t-22 -6.5t-21 -8l-17 -8.5t-19 -12t-17 -14.5l-402 -362l629 -539v-45h-172zM1765 176v1202q-38 83 -126 141t-203 58q-136 0 -196 -89t-60 -259v-158h290v-88h-290v-795
q0 -23 4 -40t10 -29t21 -21t27.5 -14.5t40.5 -10.5t49 -7.5t63 -6.5v-59h-545v59q36 5 55 8t46 11t40 19.5t23 31.5t10 47v807h-586v-795q0 -23 4 -40t10 -29t21 -21t27.5 -14.5t40.5 -10.5t49 -7.5t63 -6.5v-59h-544v59q36 5 55 8t46 11t40 19.5t23 31.5t10 47v807h-158v47
l158 62v61q0 230 103 357.5t302 127.5q117 0 183.5 -45.5t66.5 -128.5q0 -34 -16 -59.5t-41 -36.5h-93v37q0 75 -38.5 110t-114.5 35q-105 0 -151 -79.5t-46 -243.5v-156h586v103q0 228 116.5 356.5t313.5 128.5q91 0 169.5 -26.5t125.5 -63.5l115 90h67l-10 -176v-1307
q0 -27 10 -47t22.5 -31.5t39 -19.5t45.5 -11t55 -8v-59h-500v59q36 5 55 8t45.5 11t39 19.5t22.5 31.5t10 47z" />
    <glyph glyph-name="f_b" unicode="fb" horiz-adv-x="2146" 
d="M1024 133v1245q-38 83 -126.5 141t-203.5 58q-136 0 -196 -89t-60 -259v-158h291v-88h-291v-795q0 -23 4 -40t10 -29t21 -21t27.5 -14.5t40.5 -10.5t49 -7.5t63 -6.5v-59h-544v59q36 5 55 8t46 11t40 19.5t23 31.5t10 47v807h-158v47l158 62v82q0 228 116.5 356.5
t313.5 128.5q91 0 169.5 -26.5t125.5 -63.5l114 90h68l-10 -176v-592q68 90 170.5 145.5t220.5 55.5q113 0 206.5 -40t154 -108t93.5 -157t33 -189q0 -140 -48 -258t-129.5 -196t-187.5 -121t-223 -43q-146 0 -262 43t-184 110zM1491 78q186 0 296.5 115.5t110.5 324.5
q0 199 -97.5 324t-284.5 125q-100 0 -186.5 -44t-149.5 -116v-475q0 -62 18 -108t46.5 -73.5t71 -44t84 -22.5t91.5 -6z" />
    <glyph glyph-name="f_f_b" unicode="ffb" horiz-adv-x="2887" 
d="M1024 1071v103q0 228 116.5 356.5t313.5 128.5q91 0 169.5 -26.5t125.5 -63.5l115 90h67l-10 -176v-592q68 90 170.5 145.5t220.5 55.5q150 0 263 -69t169 -180t56 -245q0 -140 -48 -258t-129.5 -196t-187.5 -121t-223 -43q-146 0 -262.5 43t-184.5 110v1245
q-38 83 -126 141t-203 58q-136 0 -196 -89t-60 -259v-158h290v-88h-290v-795q0 -23 4 -40t10 -29t21 -21t27.5 -14.5t40.5 -10.5t49 -7.5t63 -6.5v-59h-545v59q36 5 55 8t46 11t40 19.5t23 31.5t10 47v807h-586v-795q0 -23 4 -40t10 -29t21 -21t27.5 -14.5t40.5 -10.5
t49 -7.5t63 -6.5v-59h-544v59q36 5 55 8t46 11t40 19.5t23 31.5t10 47v807h-158v47l158 62v61q0 230 103 357.5t302 127.5q117 0 183.5 -45.5t66.5 -128.5q0 -34 -16 -59.5t-41 -36.5h-93v37q0 75 -38.5 110t-114.5 35q-105 0 -151 -79.5t-46 -243.5v-156h586zM2232 78
q186 0 297 115.5t111 324.5q0 199 -98 324t-285 125q-100 0 -186.5 -44t-149.5 -116v-475q0 -62 18 -108t46.5 -73.5t71 -44t84 -22.5t91.5 -6z" />
    <glyph glyph-name="f_f_h" unicode="ffh" horiz-adv-x="2928" 
d="M1765 176v1202q-38 83 -126 141t-203 58q-136 0 -196 -89t-60 -259v-158h290v-88h-290v-795q0 -23 4 -40t10 -29t21 -21t27.5 -14.5t40.5 -10.5t49 -7.5t63 -6.5v-59h-545v59q36 5 55 8t46 11t40 19.5t23 31.5t10 47v807h-586v-795q0 -23 4 -40t10 -29t21 -21t27.5 -14.5
t40.5 -10.5t49 -7.5t63 -6.5v-59h-544v59q36 5 55 8t46 11t40 19.5t23 31.5t10 47v807h-158v47l158 62v61q0 230 103 357.5t302 127.5q117 0 183.5 -45.5t66.5 -128.5q0 -34 -16 -59.5t-41 -36.5h-93v37q0 75 -38.5 110t-114.5 35q-105 0 -151 -79.5t-46 -243.5v-156h586
v103q0 228 116.5 356.5t313.5 128.5q91 0 169.5 -26.5t125.5 -63.5l115 90h67l-10 -176v-602q79 86 191 148.5t231 62.5q159 0 250.5 -81t91.5 -255v-580q0 -27 10 -47t23 -31.5t40 -19.5t46 -11t55 -8v-59h-504v59q36 5 55 8t46 11t40 19.5t23 31.5t10 47v557
q0 121 -61 174.5t-176 53.5q-90 0 -193.5 -47t-177.5 -115v-623q0 -27 10 -47t22.5 -31.5t39 -19.5t45.5 -11t55 -8v-59h-502v59q36 5 55 8t46 11t40 19.5t23 31.5t10 47z" />
    <glyph glyph-name="f_h" unicode="fh" horiz-adv-x="2187" 
d="M1024 176v1202q-38 83 -126.5 141t-203.5 58q-136 0 -196 -89t-60 -259v-158h291v-88h-291v-795q0 -23 4 -40t10 -29t21 -21t27.5 -14.5t40.5 -10.5t49 -7.5t63 -6.5v-59h-544v59q36 5 55 8t46 11t40 19.5t23 31.5t10 47v807h-158v47l158 62v82q0 228 116.5 356.5
t313.5 128.5q91 0 169.5 -26.5t125.5 -63.5l114 90h68l-10 -176v-602q79 86 191 148.5t231 62.5q159 0 250.5 -81t91.5 -255v-580q0 -27 10 -47t23 -31.5t40 -19.5t46 -11t55 -8v-59h-504v59q36 5 55 8t46 11t40 19.5t23 31.5t10 47v557q0 121 -61.5 174.5t-176.5 53.5
q-90 0 -193 -47t-177 -115v-623q0 -27 10 -47t22.5 -31.5t39 -19.5t45.5 -11t55 -8v-59h-502v59q36 5 55 8t46 11t40 19.5t23 31.5t10 47z" />
    <glyph glyph-name="f_j" unicode="fj" horiz-adv-x="1359" 
d="M1190 1071l-10 -203v-768q0 -131 -6.5 -184.5t-32.5 -114.5q-19 -45 -66.5 -107t-86.5 -103t-101 -103l-43 39l102 162q47 72 62.5 158t15.5 221v915h-586v-795q0 -23 4 -40t10 -29t21 -21t27.5 -14.5t40.5 -10.5t49 -7.5t63 -6.5v-59h-544v59q36 5 55 8t46 11t40 19.5
t23 31.5t10 47v807h-158v47l158 62v57q0 232 133 371t350 139q129 0 214 -51t85 -133q0 -35 -16.5 -64.5t-40.5 -40.5h-117v37q0 78 -45.5 121t-132.5 43q-136 0 -205.5 -105t-69.5 -295v-100h752z" />
    <glyph glyph-name="f_k" unicode="fk" horiz-adv-x="2002" 
d="M1192 539l391 354q29 29 29 49q0 34 -28.5 46.5t-115.5 23.5v59h457v-59q-11 -3 -32.5 -8.5t-29 -8t-22 -7t-21 -7.5t-17.5 -8.5t-19 -12t-17 -14.5l-401 -362l629 -539v-45h-172zM1024 176v1202q-38 83 -126.5 141t-203.5 58q-136 0 -196 -89t-60 -259v-158h291v-88
h-291v-795q0 -23 4 -40t10 -29t21 -21t27.5 -14.5t40.5 -10.5t49 -7.5t63 -6.5v-59h-544v59q36 5 55 8t46 11t40 19.5t23 31.5t10 47v807h-158v47l158 62v82q0 228 116.5 356.5t313.5 128.5q91 0 169.5 -26.5t125.5 -63.5l114 90h68l-10 -176v-1307q0 -27 10 -47t22.5 -31.5
t39 -19.5t45.5 -11t55 -8v-59h-500v59q36 5 55 8t45.5 11t39 19.5t22.5 31.5t10 47z" />
    <glyph glyph-name="ff" unicode="ff" horiz-adv-x="1542" 
d="M438 983v-795q0 -23 4 -40t10 -29t21 -21t27.5 -14.5t40.5 -10.5t49 -7.5t63 -6.5v-59h-544v59q36 5 55 8t46 11t40 19.5t23 31.5t10 47v807h-158v47l158 62v61q0 230 103 357.5t302 127.5q117 0 183.5 -45.5t66.5 -128.5q0 -34 -16 -59.5t-41 -36.5h-93v37
q0 75 -38.5 110t-114.5 35q-105 0 -151 -79.5t-46 -243.5v-156h586v103q0 231 110 358t312 127q117 0 183.5 -45.5t66.5 -128.5q0 -34 -16.5 -59.5t-41.5 -36.5h-92v36q0 146 -153 146q-213 0 -213 -324v-176h290v-88h-290v-795q0 -23 4 -40t10 -29t21 -21t27.5 -14.5
t40.5 -10.5t49 -7.5t63 -6.5v-59h-545v59q36 5 55 8t46 11t40 19.5t23 31.5t10 47v807h-586z" />
    <glyph glyph-name="ffi" unicode="ffi" horiz-adv-x="2183" 
d="M1024 1071v78q0 232 133 371t350 139q129 0 214 -51t85 -133q0 -35 -16.5 -64.5t-40.5 -40.5h-117v37q0 78 -45.5 121t-132.5 43q-135 0 -204.5 -105t-69.5 -295v-100h751l-10 -203v-692q0 -27 10 -47t23 -31.5t40 -19.5t46 -11t55 -8v-59h-504v59q36 5 55 8t46 11
t40 19.5t23 31.5t10 47v807h-585v-795q0 -23 4 -40t10 -29t21 -21t27.5 -14.5t40.5 -10.5t49 -7.5t63 -6.5v-59h-545v59q36 5 55 8t46 11t40 19.5t23 31.5t10 47v807h-586v-795q0 -23 4 -40t10 -29t21 -21t27.5 -14.5t40.5 -10.5t49 -7.5t63 -6.5v-59h-544v59q36 5 55 8
t46 11t40 19.5t23 31.5t10 47v807h-158v47l158 62v61q0 230 103 357.5t302 127.5q117 0 183.5 -45.5t66.5 -128.5q0 -34 -16 -59.5t-41 -36.5h-93v37q0 75 -38.5 110t-114.5 35q-105 0 -151 -79.5t-46 -243.5v-156h586z" />
    <glyph glyph-name="ffl" unicode="ffl" horiz-adv-x="2183" 
d="M1024 1071v103q0 228 116.5 356.5t313.5 128.5q91 0 169.5 -26.5t125.5 -63.5l115 90h67l-10 -176v-1307q0 -27 10 -47t23 -31.5t40 -19.5t46 -11t55 -8v-59h-504v59q36 5 55 8t46 11t40 19.5t23 31.5t10 47v1202q-38 83 -126 141t-203 58q-136 0 -196 -89t-60 -259v-158
h290v-88h-290v-795q0 -23 4 -40t10 -29t21 -21t27.5 -14.5t40.5 -10.5t49 -7.5t63 -6.5v-59h-545v59q36 5 55 8t46 11t40 19.5t23 31.5t10 47v807h-586v-795q0 -23 4 -40t10 -29t21 -21t27.5 -14.5t40.5 -10.5t49 -7.5t63 -6.5v-59h-544v59q36 5 55 8t46 11t40 19.5t23 31.5
t10 47v807h-158v47l158 62v61q0 230 103 357.5t302 127.5q117 0 183.5 -45.5t66.5 -128.5q0 -34 -16 -59.5t-41 -36.5h-93v37q0 75 -38.5 110t-114.5 35q-105 0 -151 -79.5t-46 -243.5v-156h586z" />
    <glyph glyph-name="fi" unicode="fi" horiz-adv-x="1441" 
d="M1190 1071l-10 -203v-692q0 -27 10 -47t23 -31.5t40 -19.5t46 -11t55 -8v-59h-504v59q36 5 55 8t46 11t40 19.5t23 31.5t10 47v807h-586v-795q0 -23 4 -40t10 -29t21 -21t27.5 -14.5t40.5 -10.5t49 -7.5t63 -6.5v-59h-544v59q36 5 55 8t46 11t40 19.5t23 31.5t10 47v807
h-158v47l158 62v57q0 232 133 371t350 139q129 0 214 -51t85 -133q0 -35 -16.5 -64.5t-40.5 -40.5h-117v37q0 78 -45.5 121t-132.5 43q-136 0 -205.5 -105t-69.5 -295v-100h752z" />
    <glyph glyph-name="fl" unicode="fl" horiz-adv-x="1441" 
d="M1008 1569l114 90h68l-10 -176v-1307q0 -27 10 -47t23 -31.5t40 -19.5t46 -11t55 -8v-59h-504v59q36 5 55 8t46 11t40 19.5t23 31.5t10 47v1202q-38 83 -126.5 141t-203.5 58q-136 0 -196 -89t-60 -259v-158h291v-88h-291v-795q0 -23 4 -40t10 -29t21 -21t27.5 -14.5
t40.5 -10.5t49 -7.5t63 -6.5v-59h-544v59q36 5 55 8t46 11t40 19.5t23 31.5t10 47v807h-158v47l158 62v82q0 228 116.5 356.5t313.5 128.5q91 0 169.5 -26.5t125.5 -63.5z" />
    <glyph glyph-name="interrobangdown" unicode="&#xa1;&#xbf;" horiz-adv-x="1044" 
d="M236 -199q0 -128 80.5 -193t207.5 -65q250 0 250 262v33h133q41 -44 41 -114q0 -110 -111 -190.5t-294 -80.5q-219 0 -344 90.5t-125 274.5q0 132 65 234.5t197 201.5q74 56 111 95t56 89.5t19 122.5v111h51q68 -89 68 -187q0 -103 -57 -180l41 -399v-94h-185v94l29 280
l-18 -14q-125 -104 -170 -176.5t-45 -194.5zM680 963q0 -54 -37.5 -93t-91.5 -39t-92.5 39t-38.5 93t38.5 91.5t92.5 37.5t91.5 -37.5t37.5 -91.5z" />
    <glyph glyph-name=".notdef" horiz-adv-x="1966" 
d="M184 0v1597h1598v-1597h-1598zM983 707l-571 -572h1142zM412 1462l571 -571l571 571h-1142zM891 799l-563 563v-1126zM1075 799l563 -563v1126z" />
    <glyph glyph-name=".null" horiz-adv-x="0" 
 />
    <glyph glyph-name="nonmarkingreturn" horiz-adv-x="682" 
 />
    <glyph glyph-name="space" unicode=" " horiz-adv-x="542" 
 />
    <glyph glyph-name="exclam" unicode="!" horiz-adv-x="645" 
d="M193 109q0 54 37.5 92.5t91.5 38.5t92.5 -38.5t38.5 -92.5t-38.5 -91.5t-92.5 -37.5t-91.5 37.5t-37.5 91.5zM432 1597v-94l-41 -598q-28 -439 -29 -502h-77q-1 63 -29 502l-41 598v94h217z" />
    <glyph glyph-name="quotedbl" unicode="&#x22;" horiz-adv-x="681" 
d="M229 1073h-88l-53 524h195zM541 1073h-88l-54 524h195z" />
    <glyph glyph-name="numbersign" unicode="#" horiz-adv-x="1269" 
d="M1092 1483l-103 -482h232v-86h-250l-119 -557h252v-86h-270l-105 -493h-90l104 493h-378l-105 -493h-90l104 493h-225v86h244l119 557h-246v86h264l102 482h91l-103 -482h379l102 482h91zM502 915l-119 -557h379l119 557h-379z" />
    <glyph glyph-name="dollar" unicode="$" horiz-adv-x="1077" 
d="M299 -215l45 211q-160 29 -235 98l-17 309h51q66 -229 226 -303l106 490l-72 22q-73 21 -125 47t-94.5 65t-64 95t-21.5 129q0 150 116.5 245t313.5 95q50 0 99 -6l45 199h88l-47 -213q133 -29 217 -94v-283h-53q-27 105 -71.5 171t-115.5 99l-98 -450l70 -21
q154 -47 238.5 -130.5t84.5 -225.5q0 -173 -130 -263.5t-355 -90.5q-22 0 -68 4l-43 -199h-90zM602 555l-43 12l-106 -491q18 -4 61 -4q141 0 228 60.5t87 178.5q0 93 -54.5 150.5t-172.5 93.5zM250 975q0 -90 48.5 -139.5t154.5 -81.5l55 -17l98 451q-58 8 -96 8
q-115 0 -187.5 -60.5t-72.5 -160.5z" />
    <glyph glyph-name="percent" unicode="%" horiz-adv-x="2140" 
d="M102 963q0 206 103 314.5t276 108.5t276 -108.5t103 -314.5t-103 -315t-276 -109t-276 109t-103 315zM713 963q0 337 -232 337q-231 0 -231 -337q0 -338 231 -338q232 0 232 338zM2038 403q0 -206 -103 -314.5t-276 -108.5t-276 108.5t-103 314.5t103 315t276 109
t276 -109t103 -315zM578 0l870 1366h115l-871 -1366h-114zM1427 403q0 -337 232 -337q231 0 231 337q0 338 -231 338q-232 0 -232 -338z" />
    <glyph glyph-name="ampersand" unicode="&#x26;" horiz-adv-x="1640" 
d="M1329 684q-30 -179 -110 -328l180 -168q72 -69 115.5 -95.5t115.5 -33.5v-59h-244q-55 29 -106 74t-150 147q-93 -112 -225 -176.5t-297 -64.5q-79 0 -153 13.5t-145.5 47t-125 82.5t-86 126.5t-32.5 174.5q0 84 27 152t81 121t117 92.5t153 80.5q-83 79 -136.5 166.5
t-53.5 194.5q0 182 117 284.5t295 102.5q193 0 300 -94.5t107 -239.5q0 -37 -7.5 -70.5t-18 -60.5t-31.5 -53t-39.5 -45.5t-51 -41.5t-56.5 -36.5t-65 -34.5t-68 -32t-74 -33l485 -455q63 132 63 274q0 38 -11.5 65t-31 44t-53 27t-68 14t-85.5 6v72h616v-72
q-124 -5 -178 -37t-70 -131zM641 90q146 0 239.5 45.5t182.5 145.5l-567 536q-131 -68 -189.5 -158t-58.5 -225q0 -152 114 -248t279 -96zM414 1272q0 -47 13.5 -92.5t29 -75t48 -68.5t48.5 -55t53 -51q158 64 229.5 145.5t71.5 216.5q0 113 -65 177.5t-174 64.5
q-118 0 -186 -74.5t-68 -187.5z" />
    <glyph glyph-name="quotesingle" unicode="'" horiz-adv-x="370" 
d="M229 1073h-88l-53 524h195z" />
    <glyph glyph-name="parenleft" unicode="(" horiz-adv-x="788" 
d="M170 717q0 306 108 545t334 438l72 -55q-106 -104 -176.5 -192.5t-127.5 -199t-83.5 -242t-26.5 -294.5t26.5 -294.5t83.5 -242t127.5 -199t176.5 -192.5l-72 -55q-226 199 -334 438t-108 545z" />
    <glyph glyph-name="parenright" unicode=")" horiz-adv-x="788" 
d="M618 717q0 -306 -108 -545t-334 -438l-72 55q106 104 176.5 192.5t127.5 199t83.5 242t26.5 294.5t-26.5 294.5t-83.5 242t-127.5 199t-176.5 192.5l72 55q226 -199 334 -438t108 -545z" />
    <glyph glyph-name="asterisk" unicode="*" horiz-adv-x="763" 
d="M29 1337l22 66l279 -82l12 297h78l12 -297l279 82l24 -64l-274 -98l164 -248l-64 -37l-178 236l-180 -238l-64 39l164 246z" />
    <glyph glyph-name="plus" unicode="+" 
d="M659 31v501h-495v105h495v500h115v-500h496v-105h-496v-501h-115z" />
    <glyph glyph-name="comma" unicode="," horiz-adv-x="645" 
d="M360 -8h-75q-42 11 -67 43t-25 78q0 57 37 92t94 35q74 0 112.5 -60t38.5 -139q0 -59 -20.5 -116t-60.5 -108t-109.5 -86t-157.5 -44v71q122 29 177.5 91t55.5 143z" />
    <glyph glyph-name="hyphen" unicode="-" horiz-adv-x="712" 
d="M610 633h-508v119h508v-119z" />
    <glyph glyph-name="period" unicode="." horiz-adv-x="645" 
d="M193 109q0 54 37.5 92.5t91.5 38.5t92.5 -38.5t38.5 -92.5t-38.5 -91.5t-92.5 -37.5t-91.5 37.5t-37.5 91.5z" />
    <glyph glyph-name="slash" unicode="/" horiz-adv-x="768" 
d="M719 1700l-594 -1948h-115l594 1948h115z" />
    <glyph glyph-name="zero" unicode="0" horiz-adv-x="1335" 
d="M279 571q0 -220 105 -357.5t284 -137.5t284 137.5t105 357.5t-105 357t-284 137t-284 -137t-105 -357zM104 571q0 167 74.5 302.5t203.5 211.5t286 76t285.5 -76t203 -211.5t74.5 -302.5t-74.5 -303t-203 -212t-285.5 -76q-117 0 -221.5 45t-179.5 122.5t-119 188
t-44 235.5z" />
    <glyph glyph-name="one" unicode="1" horiz-adv-x="1085" 
d="M1001 0h-835v68q63 4 98 6.5t78.5 7.5t65.5 12t47 18.5t35.5 27.5t18 38t7.5 51v670h-354v49l59 8q93 13 144.5 24t104 33t91 55.5t82.5 88.5h29v-928q0 -30 6 -51.5t15.5 -37.5t31.5 -27.5t42.5 -18.5t61.5 -12t75.5 -7.5t96.5 -6.5v-68z" />
    <glyph glyph-name="two" unicode="2" horiz-adv-x="1177" 
d="M330 125h426q91 0 145.5 49.5t91.5 138.5h70l-109 -313h-893v31q116 82 176 125t151 112t137 111.5t104 101.5t85 105.5t46.5 100.5t19.5 108q0 123 -67.5 184t-194.5 61q-84 0 -153.5 -28.5t-114.5 -70t-92 -105.5l-45 47q64 125 175.5 201.5t272.5 76.5
q186 0 288.5 -91t102.5 -251q0 -46 -11 -91t-35 -87.5t-50.5 -80t-68.5 -78.5t-77.5 -73t-90.5 -73.5t-93.5 -69.5t-99 -71t-96.5 -70z" />
    <glyph glyph-name="three" unicode="3" horiz-adv-x="1050" 
d="M27 -367q0 52 47 68q79 -25 142.5 -36t160.5 -11q190 0 303 94.5t113 276.5q0 161 -119 249t-307 88h-113l-16 64q93 26 142.5 41.5t120 49t106 70t62.5 97t27 137.5q0 106 -63.5 163.5t-175.5 57.5q-182 0 -328 -186l-53 33q64 131 175 201.5t249 70.5q159 0 259.5 -85
t100.5 -226q0 -60 -19.5 -115t-50 -95.5t-72.5 -76.5t-81.5 -59.5t-83.5 -42.5q75 -6 142.5 -32t122.5 -70.5t87.5 -114.5t32.5 -156q0 -157 -93.5 -287t-250.5 -203t-342 -73q-225 0 -225 108z" />
    <glyph glyph-name="four" unicode="4" horiz-adv-x="1306" 
d="M190 111h625v790zM969 -457h-154v457h-772v78l868 1091h58v-1058h299v-111h-299v-457z" />
    <glyph glyph-name="five" unicode="5" horiz-adv-x="1052" 
d="M260 -475q-225 0 -225 108q0 52 47 68q79 -25 142.5 -36t160.5 -11q188 0 300 109t112 272q0 87 -35 160t-91.5 125t-143 96t-174.5 73.5t-201 57.5l208 594h334q85 0 133.5 26.5t79.5 96.5h70l-88 -269h-488l-114 -319q109 -28 196.5 -60.5t170.5 -80t138.5 -104
t89 -134t33.5 -168.5q0 -175 -86 -313.5t-235.5 -214.5t-333.5 -76z" />
    <glyph glyph-name="six" unicode="6" horiz-adv-x="1239" 
d="M965 1567q-280 -104 -456.5 -302.5t-221.5 -453.5q57 76 172 133t241 57q206 0 335.5 -127t129.5 -339q0 -246 -144.5 -400.5t-375.5 -154.5q-128 0 -234 55t-173 146.5t-103.5 207.5t-36.5 242q0 177 60.5 338t168.5 286.5t257.5 219t326.5 143.5zM635 877
q-109 0 -202 -40.5t-154 -101.5q-7 -39 -7 -133q0 -246 107 -386t266 -140q168 0 262 105t94 292q0 186 -95 295t-271 109z" />
    <glyph glyph-name="seven" unicode="7" horiz-adv-x="1138" 
d="M154 1141h954v-35l-686 -1563h-115l647 1448h-618q-79 0 -123 -31t-84 -114h-72z" />
    <glyph glyph-name="eight" unicode="8" horiz-adv-x="1202" 
d="M1036 1251q0 -139 -88.5 -247.5t-230.5 -165.5l117 -72q260 -159 260 -387q0 -178 -136.5 -288.5t-345.5 -110.5q-225 0 -364 109.5t-139 293.5q0 85 33.5 156.5t92.5 121.5t123.5 84t141.5 58l-88 57q-236 154 -236 381q0 166 118 271.5t304 105.5q202 0 320 -102.5
t118 -264.5zM705 678l-150 94q-153 -79 -220 -170.5t-67 -216.5q0 -139 98 -227t246 -88q142 0 236 82t94 221q0 98 -57 164.5t-180 140.5zM322 1257q0 -97 50.5 -165.5t166.5 -141.5l125 -80q118 72 170.5 164t52.5 217q0 129 -78.5 204t-210.5 75q-127 0 -201.5 -73.5
t-74.5 -199.5z" />
    <glyph glyph-name="nine" unicode="9" horiz-adv-x="1239" 
d="M328 -477l-54 51q280 104 456.5 302.5t221.5 453.5q-57 -76 -172 -133.5t-241 -57.5q-206 0 -335.5 127.5t-129.5 339.5q0 246 144.5 400.5t375.5 154.5q128 0 234 -55t173 -146.5t103.5 -207.5t36.5 -242q0 -177 -60.5 -338t-168.5 -286.5t-257.5 -219t-326.5 -143.5z
M604 264q110 0 203 40.5t154 101.5q6 33 6 133q0 246 -107 386t-266 140q-168 0 -262 -105t-94 -292q0 -186 95 -295t271 -109z" />
    <glyph glyph-name="colon" unicode=":" horiz-adv-x="645" 
d="M193 109q0 54 37.5 92.5t91.5 38.5t92.5 -38.5t38.5 -92.5t-38.5 -91.5t-92.5 -37.5t-91.5 37.5t-37.5 91.5zM193 768q0 54 37.5 92.5t91.5 38.5t92.5 -38.5t38.5 -92.5t-38.5 -91.5t-92.5 -37.5t-91.5 37.5t-37.5 91.5z" />
    <glyph glyph-name="semicolon" unicode=";" horiz-adv-x="645" 
d="M358 -8h-75q-42 11 -67.5 43t-25.5 78q0 56 37 89.5t95 33.5q74 0 112.5 -58t38.5 -137q0 -59 -20.5 -116t-60.5 -108t-109.5 -86t-157.5 -44v71q122 29 177.5 91t55.5 143zM193 768q0 54 37.5 92.5t91.5 38.5t92.5 -38.5t38.5 -92.5t-38.5 -91.5t-92.5 -37.5t-91.5 37.5
t-37.5 91.5z" />
    <glyph glyph-name="less" unicode="&#x3c;" 
d="M555 723l-322 -139l322 -138l715 -313v-113l-1106 500v129l1106 500v-113z" />
    <glyph glyph-name="equal" unicode="=" 
d="M1270 651h-1106v103h1106v-103zM1270 352h-1106v103h1106v-103z" />
    <glyph glyph-name="greater" unicode="&#x3e;" 
d="M879 446l321 138l-321 139l-715 313v113l1106 -500v-129l-1106 -500v113z" />
    <glyph glyph-name="question" unicode="?" horiz-adv-x="972" 
d="M739 1282q0 113 -71 180.5t-191 67.5q-110 0 -171.5 -67.5t-61.5 -174.5v-63h-133q-41 41 -41 108q0 80 54 146t144.5 102.5t198.5 36.5q200 0 319 -98.5t119 -290.5q0 -56 -13 -105t-33.5 -87t-59.5 -81.5t-75.5 -76t-96.5 -82.5q-93 -76 -132.5 -138.5t-39.5 -146.5
v-109h-49q-62 102 -62 189q0 97 47 171t156 167q48 42 76 71t58.5 72t44 94.5t13.5 114.5zM301 109q0 54 37.5 92.5t91.5 38.5t92.5 -38.5t38.5 -92.5t-38.5 -91.5t-92.5 -37.5t-91.5 37.5t-37.5 91.5z" />
    <glyph glyph-name="at" unicode="@" horiz-adv-x="2269" 
d="M922 201q60 0 120 43.5t146 156.5q97 127 164.5 293.5t70.5 268.5q-38 96 -149 96q-128 0 -234 -91.5t-164 -238t-59 -311.5q0 -217 105 -217zM1511 188q209 0 349.5 180t140.5 457q0 175 -49.5 317t-145.5 245t-245 159t-340 56q-202 0 -379 -83t-300.5 -223.5
t-194.5 -333t-71 -405.5q0 -196 63.5 -363t176 -285t272.5 -184.5t347 -66.5q205 0 373 46t329 149l33 -66q-124 -100 -324.5 -162.5t-410.5 -62.5q-226 0 -415.5 73t-320.5 203t-203.5 315t-72.5 404q0 152 38.5 298t108.5 271t170.5 230t221 179t264 115.5t295.5 41.5
q423 0 674 -237t251 -630q0 -212 -83.5 -374.5t-236.5 -252t-351 -89.5q-83 0 -125.5 30t-42.5 86q0 26 14 94.5t36 165.5t29 129h-8q-8 -17 -27.5 -66t-41 -87.5t-56.5 -85.5q-112 -151 -195 -208.5t-175 -57.5q-113 0 -167 83t-54 226q0 139 49 272.5t130.5 234
t195.5 161.5t237 61q80 0 131.5 -33t67.5 -76l135 123h51l-70 -209q-45 -181 -85 -406t-40 -300q0 -58 47 -58z" />
    <glyph glyph-name="A" unicode="A" horiz-adv-x="1675" 
d="M1282 258l-119 274h-723l-114 -272q-25 -62 -25 -92q0 -52 53 -73.5t181 -26.5v-68h-515v68q58 9 92 25.5t52 58.5l577 1341l-61 131h194l637 -1472q18 -42 52 -58.5t92 -25.5v-68h-580v68q129 5 180.5 25.5t51.5 72.5q0 30 -25 92zM801 1382l-322 -757h645z" />
    <glyph glyph-name="B" unicode="B" horiz-adv-x="1611" 
d="M94 0v68q65 3 106 9.5t77.5 24t53.5 51t17 85.5v1122q0 52 -17 85.5t-53.5 51t-77.5 24t-106 9.5v67h725q563 0 563 -399q0 -84 -31 -151.5t-85.5 -112t-124 -72t-152.5 -37.5q230 -12 354.5 -120t124.5 -275q0 -192 -154.5 -311t-426.5 -119h-793zM848 774h-334v-532
q0 -90 54 -122t190 -32h110q222 0 320 78.5t98 261.5q0 162 -108.5 254t-329.5 92zM791 1507h-277v-643h274q214 0 315 77.5t101 242.5q0 323 -413 323z" />
    <glyph glyph-name="C" unicode="C" horiz-adv-x="1675" 
d="M995 76q117 0 203 23.5t151 76t112 122.5t95 177h50l-47 -377q-262 -118 -584 -118q-164 0 -304 41.5t-241 115t-173 172.5t-107 215.5t-35 243.5q0 192 66 352.5t180 269t269 168.5t333 60q338 0 559 -127l14 -336h-45q-70 188 -201.5 270t-333.5 82
q-320 0 -494.5 -184.5t-174.5 -503.5q0 -110 29 -216.5t89 -201.5t143 -167.5t198.5 -115t248.5 -42.5z" />
    <glyph glyph-name="D" unicode="D" horiz-adv-x="1884" 
d="M872 1507h-358v-1257q0 -95 57 -127.5t195 -32.5h192q127 0 239 43.5t199.5 126.5t138 214.5t50.5 295.5q0 124 -23.5 231t-77 201.5t-134.5 161t-203 105t-275 38.5zM94 1597h821q174 0 317.5 -41t242 -112t165.5 -167.5t98 -205t31 -227.5q0 -199 -65.5 -361.5
t-177.5 -266.5t-257 -160t-308 -56h-867v68q65 3 106 9.5t77.5 24t53.5 51t17 85.5v1122q0 52 -17 85.5t-53.5 51t-77.5 24t-106 9.5v67z" />
    <glyph glyph-name="E" unicode="E" horiz-adv-x="1660" 
d="M1247 555h-57q-20 109 -57.5 161t-110.5 52h-508v-524q0 -90 57 -122t195 -32h317q65 0 109 9.5t74.5 21.5t66.5 54.5t58.5 76t75.5 119.5q2 3 3.5 5t3 5t3.5 6h49l-72 -387h-1360v68q65 3 106 9.5t77.5 24t53.5 51t17 85.5v1122q0 52 -17 85.5t-53.5 51t-77.5 24
t-106 9.5v67h1350l6 -360h-39q-66 156 -135 213t-205 57h-557v-649h508q73 0 110.5 52.5t57.5 162.5h57v-518z" />
    <glyph glyph-name="F" unicode="F" horiz-adv-x="1533" 
d="M823 0h-729v68q65 3 106 9.5t77.5 24t53.5 51t17 85.5v1122q0 52 -17 85.5t-53.5 51t-77.5 24t-106 9.5v67h1331l7 -360h-39q-66 156 -135 213t-205 57h-539v-698h467q73 0 110.5 52.5t57.5 162.5h57v-518h-57q-20 109 -57.5 161t-110.5 52h-467v-481q0 -35 9.5 -61.5
t31 -44t45.5 -29t63.5 -18.5t73.5 -10.5t86 -6.5v-68z" />
    <glyph glyph-name="G" unicode="G" horiz-adv-x="1853" 
d="M115 768q0 192 66 352.5t180 269t269 168.5t333 60q338 0 559 -127l14 -336h-45q-70 188 -201.5 270t-333.5 82q-320 0 -494.5 -184.5t-174.5 -503.5q0 -93 21.5 -184t61.5 -173.5t101.5 -153t137.5 -122t173 -81t205 -29.5q316 0 438 155v308q0 42 -12 71.5t-30.5 46
t-53.5 26.5t-67.5 13.5t-85.5 5.5v66h653v-66q-53 -2 -86 -5.5t-68 -13.5t-53.5 -26.5t-30.5 -46t-12 -71.5v-396q-240 -163 -610 -163q-202 0 -367 65.5t-270 176t-161 251t-56 295.5z" />
    <glyph glyph-name="H" unicode="H" horiz-adv-x="2013" 
d="M1499 238v528h-985v-528q0 -52 17 -85.5t53.5 -51t77.5 -24t106 -9.5v-68h-674v68q65 3 106 9.5t77.5 24t53.5 51t17 85.5v1122q0 52 -17 85.5t-53.5 51t-77.5 24t-106 9.5v67h674v-67q-65 -3 -106 -9.5t-77.5 -24t-53.5 -51t-17 -85.5v-502h985v502q0 52 -17 85.5
t-53.5 51t-77.5 24t-106 9.5v67h674v-67q-65 -3 -106 -9.5t-77.5 -24t-53.5 -51t-17 -85.5v-1122q0 -52 17 -85.5t53.5 -51t77.5 -24t106 -9.5v-68h-674v68q65 3 106 9.5t77.5 24t53.5 51t17 85.5z" />
    <glyph glyph-name="I" unicode="I" horiz-adv-x="862" 
d="M348 238v1122q0 52 -17 85.5t-53.5 51t-77.5 24t-106 9.5v67h674v-67q-65 -3 -106 -9.5t-77.5 -24t-53.5 -51t-17 -85.5v-1122q0 -52 17 -85.5t53.5 -51t77.5 -24t106 -9.5v-68h-674v68q65 3 106 9.5t77.5 24t53.5 51t17 85.5z" />
    <glyph glyph-name="J" unicode="J" horiz-adv-x="1132" 
d="M840 1360v-916q0 -464 -441 -464q-185 0 -295 65.5t-110 187.5q0 77 51 117h137v-63q0 -230 238 -230q118 0 186 84.5t68 268.5v950q0 52 -17 85.5t-53.5 51t-77.5 24t-106 9.5v67h674v-67q-65 -3 -106 -9.5t-77.5 -24t-53.5 -51t-17 -85.5z" />
    <glyph glyph-name="K" unicode="K" horiz-adv-x="1683" 
d="M721 852l668 -645q69 -67 136 -99t148 -40v-68h-262q-112 56 -240 184l-639 629l685 576q51 41 51 75t-34 44.5t-167 21.5v67h575v-67q-42 0 -75 -7.5t-68.5 -29t-58 -38.5t-70.5 -58zM348 238v1122q0 52 -17 85.5t-53.5 51t-77.5 24t-106 9.5v67h674v-67
q-65 -3 -106 -9.5t-77.5 -24t-53.5 -51t-17 -85.5v-1122q0 -52 17 -85.5t53.5 -51t77.5 -24t106 -9.5v-68h-674v68q65 3 106 9.5t77.5 24t53.5 51t17 85.5z" />
    <glyph glyph-name="L" unicode="L" horiz-adv-x="1550" 
d="M514 1360v-1116q0 -90 57 -122t195 -32h278q62 0 109.5 14t80.5 35t66 64t55.5 82t59.5 108q8 15 12 23h48l-74 -416h-1307v68q65 3 106 9.5t77.5 24t53.5 51t17 85.5v1122q0 52 -17 85.5t-53.5 51t-77.5 24t-106 9.5v67h674v-67q-65 -3 -106 -9.5t-77.5 -24t-53.5 -51
t-17 -85.5z" />
    <glyph glyph-name="M" unicode="M" horiz-adv-x="2230" 
d="M1794 268l-127 1022l-539 -1290h-49l-579 1300l-125 -1032q-4 -32 -4 -55q0 -81 47 -110t174 -35v-68h-526v68q101 5 142.5 32.5t51.5 104.5l146 1159q0 92 -40.5 127t-154.5 39v67h367q4 -57 32 -120l531 -1201l493 1201q27 69 31 120h354v-67q-114 -4 -154 -39
t-40 -127l145 -1159q10 -77 51.5 -104.5t143.5 -32.5v-68h-588v68q127 6 174 35t47 110q0 23 -4 55z" />
    <glyph glyph-name="N" unicode="N" horiz-adv-x="1998" 
d="M346 238v1157q-74 88 -117.5 111.5t-134.5 23.5v67h332l1141 -1318v1081q0 52 -15.5 85.5t-50 51t-74 24t-104.5 9.5v67h602v-67q-51 -2 -85.5 -6t-68.5 -15t-53 -29t-31 -48t-12 -72v-1360h-76l-1144 1311v-1073q0 -52 15 -85.5t49.5 -51t74.5 -24t104 -9.5v-68h-604v68
q51 2 86 6t69 15t53.5 29t31.5 48t12 72z" />
    <glyph glyph-name="O" unicode="O" horiz-adv-x="1851" 
d="M975 102q138 0 251 50.5t187 138t114 203.5t40 249q0 126 -27 238t-83 206.5t-136.5 162.5t-194 106.5t-249.5 38.5q-138 0 -251 -50.5t-187 -138t-114 -203.5t-40 -249q0 -126 27 -238t83 -206.5t136.5 -162.5t194 -106.5t249.5 -38.5zM903 -20q-176 0 -326 65t-250 174
t-156 251.5t-56 297.5q0 192 65 352.5t177 269t264.5 168.5t326.5 60q176 0 326 -65t250.5 -174t156.5 -252t56 -298q0 -191 -65 -352t-177.5 -269t-265 -168t-326.5 -60z" />
    <glyph glyph-name="P" unicode="P" horiz-adv-x="1492" 
d="M883 688h-369v-450q0 -35 9.5 -61.5t31 -44t45.5 -29t63.5 -18.5t73.5 -10.5t86 -6.5v-68h-729v68q65 3 106 9.5t77.5 24t53.5 51t17 85.5v1122q0 52 -17 85.5t-53.5 51t-77.5 24t-106 9.5v67h740q108 0 197.5 -17t154 -48.5t113 -72.5t77 -91.5t42.5 -103t14 -109.5
q0 -96 -32.5 -178.5t-97.5 -148t-172.5 -103t-246.5 -37.5zM514 1507v-729h299q230 0 332 85.5t102 279.5q0 174 -106 269t-324 95h-303z" />
    <glyph glyph-name="Q" unicode="Q" horiz-adv-x="1851" 
d="M1251 -332l-368 314q-172 4 -318 70t-243.5 174t-152 248.5t-54.5 293.5q0 192 65 352.5t177 269t264.5 168.5t326.5 60q176 0 326 -65t250.5 -174t156.5 -252t56 -298q0 -169 -51 -315t-141 -251.5t-213.5 -174.5t-268.5 -94l383 -258q119 -80 264 -80h59v-45
q-100 -64 -202 -64q-173 0 -316 121zM975 102q138 0 251 50.5t187 138t114 203.5t40 249q0 126 -27 238t-83 206.5t-136.5 162.5t-194 106.5t-249.5 38.5q-138 0 -251 -50.5t-187 -138t-114 -203.5t-40 -249q0 -126 27 -238t83 -206.5t136.5 -162.5t194 -106.5t249.5 -38.5z
" />
    <glyph glyph-name="R" unicode="R" horiz-adv-x="1730" 
d="M786 1507h-272v-684h272q241 0 341 80.5t100 253.5q0 350 -441 350zM94 1597h717q138 0 245.5 -26t173 -68t107.5 -100t58 -116.5t16 -123.5q0 -96 -42.5 -175t-115.5 -131t-169 -80.5t-205 -28.5q109 -31 225 -160l364 -404q52 -58 112.5 -84.5t139.5 -31.5v-68h-256
q-55 24 -96.5 59.5t-107.5 106.5l-396 434q-77 82 -136 108.5t-138 26.5h-76v-497q0 -52 17 -85.5t53.5 -51t77.5 -24t106 -9.5v-68h-674v68q65 3 106 9.5t77.5 24t53.5 51t17 85.5v1122q0 52 -17 85.5t-53.5 51t-77.5 24t-106 9.5v67z" />
    <glyph glyph-name="S" unicode="S" horiz-adv-x="1300" 
d="M610 -20q-143 0 -275 36.5t-206 98.5l-14 383h55q44 -207 161 -315.5t294 -108.5q184 0 287.5 83.5t103.5 231.5q0 65 -19.5 115t-60.5 88.5t-93.5 66.5t-129.5 56l-232 84q-76 28 -132.5 60t-108 79.5t-78.5 115.5t-27 154q0 182 131.5 296t366.5 114q140 0 262.5 -37.5
t204.5 -103.5v-342h-58q-45 214 -144 301.5t-286 87.5q-150 0 -237.5 -77.5t-87.5 -205.5q0 -63 16 -109t51.5 -79.5t77.5 -56t107 -46.5l258 -96q89 -33 153.5 -70t116.5 -88.5t78 -121.5t26 -158q0 -201 -153.5 -318.5t-407.5 -117.5z" />
    <glyph glyph-name="T" unicode="T" horiz-adv-x="1669" 
d="M119 1597h1429l37 -401h-49q-77 159 -109 203q-52 74 -129 95q-55 15 -145 15h-238v-1271q0 -42 12.5 -72t32.5 -48t55 -29t69.5 -15t86.5 -6v-68h-675v68q52 2 86.5 6t69.5 15t55 29t32.5 48t12.5 72v1271h-236q-59 0 -100.5 -5t-75.5 -21t-56.5 -35t-47.5 -57t-45 -77
t-52 -105q-4 -9 -6 -13h-49z" />
    <glyph glyph-name="U" unicode="U" horiz-adv-x="1794" 
d="M440 1360v-776q0 -235 124.5 -360.5t334.5 -125.5q256 0 386 123.5t130 368.5v770q0 52 -15.5 85.5t-50 51t-74 24t-104.5 9.5v67h603v-67q-51 -2 -85.5 -6t-68.5 -15t-53 -29t-31 -48t-12 -72v-817q0 -135 -50 -243t-136 -177.5t-198.5 -106t-240.5 -36.5
q-189 0 -327.5 61t-218 190t-79.5 316v813q0 52 -17 85.5t-53.5 51t-77.5 24t-106 9.5v67h674v-67q-65 -3 -106 -9.5t-77.5 -24t-53.5 -51t-17 -85.5z" />
    <glyph glyph-name="V" unicode="V" horiz-adv-x="1654" 
d="M883 238l448 1099q25 63 25 93q0 52 -53 73.5t-181 26.5v67h512v-67q-58 -9 -91 -25.5t-52 -58.5l-614 -1471h-54l-659 1471q-20 42 -53 58.5t-91 25.5v67h572v-67q-128 -5 -179 -25.5t-51 -72.5q0 -35 25 -93z" />
    <glyph glyph-name="W" unicode="W" horiz-adv-x="2351" 
d="M1659 266l373 1065q26 80 26 99q0 52 -52.5 73.5t-180.5 26.5v67h506v-67q-61 -9 -94.5 -25t-49.5 -59l-532 -1471h-41l-426 1061l-424 -1061h-41l-559 1471q-17 42 -51 58.5t-93 25.5v67h566v-67q-129 -5 -180.5 -25.5t-51.5 -72.5q0 -21 27 -97l405 -1067l349 883
l-113 295q-16 41 -49.5 58t-91.5 26v67h563v-67q-129 -5 -180.5 -25.5t-51.5 -72.5q0 -24 27 -99z" />
    <glyph glyph-name="X" unicode="X" horiz-adv-x="1759" 
d="M1427 1403l-458 -551l536 -657q63 -76 110 -101.5t124 -25.5v-68h-652v68q136 0 180 16t44 57q0 8 -1.5 16.5t-3.5 15t-7.5 16t-8.5 14.5t-10.5 15.5t-11 14.5t-13 15.5t-12.5 15.5l-391 488l-408 -488q-67 -81 -67 -127q0 -37 42 -53t163 -16v-68h-562v68
q76 0 126.5 25.5t113.5 101.5l531 632l-467 576q-63 78 -111.5 102.5t-126.5 24.5v67h649v-67q-129 0 -174 -16.5t-45 -55.5t68 -125l323 -407l340 411q64 80 64 119q0 40 -46 57t-173 17v67h563v-67q-75 0 -118.5 -24t-109.5 -103z" />
    <glyph glyph-name="Y" unicode="Y" horiz-adv-x="1507" 
d="M793 766l370 577q35 52 35 97q0 47 -44 66.5t-173 23.5v67h506v-67q-53 -8 -85.5 -25.5t-58.5 -58.5l-503 -772v-436q0 -52 15.5 -85.5t50.5 -51t74.5 -24t104.5 -9.5v-68h-653v68q65 3 104.5 9.5t75 24t51 51t15.5 85.5v428l-514 780q-26 41 -58.5 58.5t-85.5 25.5v67
h574v-67q-126 -4 -172.5 -24.5t-46.5 -67.5q0 -37 28 -84z" />
    <glyph glyph-name="Z" unicode="Z" horiz-adv-x="1521" 
d="M307 90h686q52 0 92.5 8t73 27t57 42t50 61.5t46 75.5t49.5 94l9 18h53l-73 -416h-1276v39l1089 1468h-637q-48 0 -81.5 -4.5t-64 -20t-51.5 -35t-46 -59t-45.5 -82t-51.5 -114.5h-45l6 405h1246v-41z" />
    <glyph glyph-name="bracketleft" unicode="[" horiz-adv-x="677" 
d="M307 1620v-1806h228v-80h-330v1966h330v-80h-228z" />
    <glyph glyph-name="backslash" unicode="\" horiz-adv-x="768" 
d="M643 -248l-594 1948h115l594 -1948h-115z" />
    <glyph glyph-name="bracketright" unicode="]" horiz-adv-x="677" 
d="M373 -186v1806h-230v80h330v-1966h-330v80h230z" />
    <glyph glyph-name="asciicircum" unicode="^" horiz-adv-x="962" 
d="M543 1618l379 -799h-121l-320 692l-319 -692h-121l379 799h123z" />
    <glyph glyph-name="underscore" unicode="_" horiz-adv-x="614" 
d="M573 -410h-532v103h532v-103z" />
    <glyph glyph-name="grave" unicode="`" horiz-adv-x="1228" 
d="M428 1638h201l172 -426h-68z" />
    <glyph glyph-name="a" unicode="a" horiz-adv-x="1243" 
d="M489 88q92 0 168 42.5t170 125.5v309l-401 -123q-129 -41 -129 -161q0 -94 52 -143.5t140 -49.5zM983 719v-488q0 -68 26.5 -105.5t77.5 -37.5q45 0 91 18l20 -38q-94 -88 -186 -88q-75 0 -124.5 53.5t-53.5 146.5q-30 -33 -51 -54.5t-60.5 -52.5t-77 -49.5t-91.5 -32.5
t-112 -14q-151 0 -233 78.5t-82 198.5q0 32 6 59.5t13.5 49t24 41t29.5 32.5t38 26.5t41 21.5t47 18.5t47 15t51 14.5l403 117v49q0 61 -16.5 113.5t-49.5 95t-88.5 66.5t-127.5 24q-97 0 -145 -39t-48 -124q0 -42 13 -82l-136 -15q-20 13 -31.5 41.5t-11.5 57.5
q0 115 115 185.5t283 70.5q187 0 293 -92t106 -281z" />
    <glyph glyph-name="b" unicode="b" horiz-adv-x="1300" 
d="M178 1477l-164 32v39l260 111h70l-10 -176v-592q68 90 170.5 145.5t220.5 55.5q113 0 206.5 -40t154 -108t93.5 -157t33 -189q0 -140 -48 -258t-129 -196t-187 -121t-223 -43q-146 0 -262.5 43t-184.5 110v1344zM645 78q186 0 297 115.5t111 324.5q0 199 -98 324
t-285 125q-100 0 -186.5 -44t-149.5 -116v-475q0 -62 18 -108t46.5 -73.5t71 -44t84 -22.5t91.5 -6z" />
    <glyph glyph-name="c" unicode="c" horiz-adv-x="1126" 
d="M231 569q0 -202 108 -330t304 -128q126 0 203 44t151 140l54 -19q-47 -131 -158.5 -213.5t-288.5 -82.5q-122 0 -221.5 43t-163 116t-97.5 168.5t-34 202.5q0 265 156.5 423.5t410.5 158.5q174 0 270.5 -70.5t96.5 -177.5q0 -42 -18.5 -74t-49.5 -47h-82v41
q0 113 -69.5 171t-202.5 58q-158 0 -263.5 -116.5t-105.5 -307.5z" />
    <glyph glyph-name="d" unicode="d" horiz-adv-x="1366" 
d="M631 993q-174 0 -277.5 -118.5t-103.5 -331.5q0 -190 99.5 -315.5t281.5 -125.5q98 0 186.5 42t147.5 110v434q0 150 -87.5 227.5t-246.5 77.5zM1305 53l-336 -73h-15l11 186q-164 -186 -379 -186q-117 0 -213 41t-157.5 111t-94.5 160t-33 191q0 137 45.5 253t123.5 193
t181 120t217 43q189 0 310 -97v482l-164 32v39l258 111h69l-10 -176v-1272q0 -50 22 -63.5t107 -24.5l58 -8v-62z" />
    <glyph glyph-name="e" unicode="e" horiz-adv-x="1144" 
d="M614 1092q213 0 329 -119t116 -309v-50h-828q-15 -227 101.5 -365t316.5 -138q125 0 207 45t156 139l51 -19q-47 -131 -160 -213.5t-293 -82.5q-124 0 -224.5 43t-164.5 115.5t-98.5 165.5t-34.5 196q0 262 145.5 427t380.5 165zM573 987q-124 0 -212 -78.5t-115 -206.5
h643q0 126 -83.5 205.5t-232.5 79.5z" />
    <glyph glyph-name="f" unicode="f" horiz-adv-x="800" 
d="M438 983v-795q0 -23 4 -40t10 -29t21 -21t27.5 -14.5t40.5 -10.5t49 -7.5t63 -6.5v-59h-544v59q36 5 55 8t46 11t40 19.5t23 31.5t10 47v807h-158v47l158 62v82q0 231 110 358t312 127q116 0 182.5 -45.5t66.5 -128.5q0 -34 -16 -59.5t-41 -36.5h-92v36q0 146 -154 146
q-213 0 -213 -324v-176h291v-88h-291z" />
    <glyph glyph-name="g" unicode="g" horiz-adv-x="1210" 
d="M604 1092q92 0 174 -29l375 8v-123h-78l-233 31v-4q77 -33 126.5 -111t49.5 -174q0 -178 -120.5 -277.5t-311.5 -99.5q-60 0 -124 12t-100 27q-32 -25 -48 -41t-30 -41t-14 -53q0 -44 26.5 -68t76.5 -24h473q151 0 236 -69t85 -201q0 -160 -164.5 -263.5t-447.5 -103.5
q-242 0 -362.5 81t-120.5 202q0 84 49 136t143 95q-62 21 -93.5 64.5t-31.5 101.5q0 76 44.5 123t129.5 88q-163 111 -163 303q0 189 125.5 299.5t328.5 110.5zM821 -14h-508q-86 -74 -86 -181q0 -110 103.5 -170.5t265.5 -60.5q202 0 319 68t117 190q0 154 -211 154z
M614 395q112 0 174 74.5t62 189.5q0 155 -78.5 246.5t-224.5 91.5q-112 0 -174 -74.5t-62 -189.5q0 -155 78.5 -246.5t224.5 -91.5z" />
    <glyph glyph-name="h" unicode="h" horiz-adv-x="1423" 
d="M260 1477l-164 32v39l260 111h70l-10 -176v-602q79 86 191 148.5t231 62.5q159 0 250.5 -81t91.5 -255v-580q0 -27 10 -47t23 -31.5t40 -19.5t46 -11t55 -8v-59h-504v59q36 5 55 8t46 11t40 19.5t23 31.5t10 47v557q0 121 -61.5 174.5t-176.5 53.5q-90 0 -193 -47
t-177 -115v-623q0 -27 10 -47t22.5 -31.5t39 -19.5t45.5 -11t55 -8v-59h-502v59q36 5 55 8t46 11t40 19.5t23 31.5t10 47v1301z" />
    <glyph glyph-name="i" unicode="i" horiz-adv-x="712" 
d="M451 868v-692q0 -27 10 -47t23 -31.5t40 -19.5t46 -11t55 -8v-59h-504v59q36 5 55 8t46 11t40 19.5t23 31.5t10 47v719l-164 53v41l262 98h68zM238 1419q0 51 33.5 86t84.5 35t86 -35t35 -86t-35 -85t-86 -34t-84.5 34t-33.5 85z" />
    <glyph glyph-name="j" unicode="j" horiz-adv-x="571" 
d="M236 895l-164 53v41l262 98h67l-10 -219v-768q0 -131 -6.5 -184.5t-32.5 -114.5q-19 -45 -66.5 -107t-86.5 -103t-101 -103l-43 39l103 162q47 72 62.5 158t15.5 221v827zM178 1419q0 51 34 86t85 35t86 -35t35 -86t-35 -85t-86 -34t-85 34t-34 85z" />
    <glyph glyph-name="k" unicode="k" horiz-adv-x="1239" 
d="M428 539l391 354q29 29 29 49q0 34 -28 46.5t-115 23.5v59h456v-59q-10 -3 -32 -9t-29 -7.5t-22 -6.5t-21 -8l-17 -8.5t-19 -12t-17 -14.5l-402 -362l629 -539v-45h-172zM416 1483v-1307q0 -27 10 -47t22.5 -31.5t39 -19.5t45.5 -11t55 -8v-59h-502v59q36 5 55 8t46 11
t40 19.5t23 31.5t10 47v1301l-164 32v39l260 111h70z" />
    <glyph glyph-name="l" unicode="l" horiz-adv-x="677" 
d="M416 1483v-1307q0 -27 10 -47t23 -31.5t40 -19.5t46 -11t55 -8v-59h-504v59q36 5 55 8t46 11t40 19.5t23 31.5t10 47v1301l-164 32v39l262 111h68z" />
    <glyph glyph-name="m" unicode="m" horiz-adv-x="2119" 
d="M1153 874q200 218 420 218q148 0 225.5 -83t77.5 -241v-592q0 -27 10 -47t23 -31.5t40 -19.5t46 -11t55 -8v-59h-504v59q36 5 55 8t46 11t40 19.5t23 31.5t10 47v557q0 119 -51 173.5t-160 54.5q-88 0 -178 -45.5t-168 -116.5v-623q0 -27 10 -47t23 -31.5t40 -19.5
t46 -11t55 -8v-59h-503v59q36 5 55 8t46 11t40 19.5t23 31.5t10 47v557q0 119 -51 173.5t-160 54.5q-88 0 -178 -45.5t-168 -116.5v-623q0 -27 10 -47t23 -31.5t40 -19.5t46 -11t55 -8v-59h-504v59q36 5 55 8t46 11t40 19.5t23 31.5t10 47v719l-164 53v41l262 98h68
l-10 -206q194 211 409 211q119 0 193.5 -56t99.5 -162z" />
    <glyph glyph-name="n" unicode="n" horiz-adv-x="1458" 
d="M1059 176v557q0 121 -61.5 174.5t-176.5 53.5q-90 0 -193 -47t-177 -115v-623q0 -27 10 -47t23 -31.5t40 -19.5t46 -11t55 -8v-59h-504v59q36 5 55 8t46 11t40 19.5t23 31.5t10 47v719l-164 53v41l262 98h68l-10 -206q79 86 190.5 148.5t230.5 62.5q159 0 250.5 -81
t91.5 -255v-580q0 -27 10 -47t23.5 -31t40.5 -19.5t45.5 -11.5t55.5 -8v-59h-504v59q36 5 55 8t46 11t40 19.5t23 31.5t10 47z" />
    <glyph glyph-name="o" unicode="o" horiz-adv-x="1271" 
d="M672 88q111 0 191 57t118.5 149t38.5 206q0 229 -110.5 356t-309.5 127q-111 0 -191 -57t-118.5 -149t-38.5 -206q0 -229 110.5 -356t309.5 -127zM618 -20q-234 0 -382 149.5t-148 384.5q0 129 47 239t125 183.5t180 114.5t213 41q234 0 382.5 -150t148.5 -385
q0 -129 -47 -239t-125.5 -183t-180.5 -114t-213 -41z" />
    <glyph glyph-name="p" unicode="p" horiz-adv-x="1357" 
d="M682 -20q-187 0 -291 77v-372q0 -27 10 -47t23 -31.5t40 -19.5t46 -11t55 -8v-60h-504v60q37 5 55.5 8t45.5 11.5t40.5 19.5t23.5 31t10 47v1210l-164 53v41l260 98h69l-10 -196q68 90 170.5 145.5t220.5 55.5q150 0 263 -69t169 -180t56 -245q0 -140 -48 -258
t-129.5 -196t-187.5 -121t-223 -43zM702 78q186 0 297 115.5t111 324.5q0 199 -98 324t-285 125q-100 0 -186.5 -44t-149.5 -116v-475q0 -62 18 -108t46.5 -73.5t71 -44t84 -22.5t91.5 -6z" />
    <glyph glyph-name="q" unicode="q" horiz-adv-x="1292" 
d="M631 993q-174 0 -277.5 -118.5t-103.5 -331.5q0 -190 99.5 -315.5t281.5 -125.5q98 0 185.5 41.5t146.5 110.5v434q0 150 -86.5 227.5t-245.5 77.5zM655 1092q94 0 185 -31.5t141 -75.5l119 129h28l-10 -221v-1208q0 -27 10 -47t23 -31.5t40 -19.5t46 -11t55 -8v-60h-504
v60q37 5 55.5 8t45.5 11.5t40.5 19.5t23.5 31t10 47v481q-164 -186 -377 -186q-117 0 -213 41t-157.5 111t-94.5 160t-33 191q0 137 45.5 253t123.5 193t181 120t217 43z" />
    <glyph glyph-name="r" unicode="r" horiz-adv-x="917" 
d="M461 1087l-10 -294q26 41 37 59.5t37.5 57t43.5 58t44.5 47.5t51 42t53.5 24.5t60 10.5q61 0 90 -29v-131h-63q-110 0 -180 -44.5t-174 -174.5v-525q0 -23 4 -40t10 -29t21 -21t27.5 -14.5t40.5 -10.5t49 -7.5t63 -6.5v-59h-545v59q36 5 55 8t46 11t40 19.5t23 31.5
t10 47v719l-164 53v41l260 98h70z" />
    <glyph glyph-name="s" unicode="s" horiz-adv-x="1013" 
d="M496 -20q-228 0 -369 104l-12 276h61q69 -290 330 -290q113 0 181.5 48t68.5 146q0 44 -15 76.5t-48 55.5t-66.5 38t-87.5 33l-140 43q-136 41 -201 106.5t-65 190.5q0 128 98.5 206.5t260.5 78.5q187 0 346 -88v-265h-68q-23 136 -95 199t-194 63q-94 0 -151.5 -43.5
t-57.5 -130.5q0 -72 42 -110t135 -66l155 -47q151 -44 221 -118.5t70 -206.5q0 -135 -109 -217t-290 -82z" />
    <glyph glyph-name="t" unicode="t" horiz-adv-x="815" 
d="M379 1294v-223h330v-88h-330v-678q0 -215 203 -215q81 0 159 37l19 -39q-39 -44 -104.5 -76t-147.5 -32q-128 0 -205.5 67.5t-77.5 206.5v729h-157v47q83 60 141.5 115.5t128.5 148.5h41z" />
    <glyph glyph-name="u" unicode="u" horiz-adv-x="1372" 
d="M944 -20l10 206q-40 -44 -74.5 -75t-83.5 -64t-107.5 -50t-123.5 -17q-154 0 -246 82.5t-92 259.5v579q0 55 -30 72.5t-121 27.5l-37 3v67l309 21h45l-10 -218v-536q0 -121 62.5 -180.5t168.5 -59.5q91 0 171.5 46.5t168.5 127.5v629q0 55 -30 72.5t-121 27.5l-39 3v67
l311 21h45l-10 -218v-663q0 -50 22.5 -63.5t106.5 -24.5l57 -8v-62l-335 -73h-17z" />
    <glyph glyph-name="v" unicode="v" horiz-adv-x="1208" 
d="M1188 1071v-59q-47 -16 -65.5 -24t-35 -22t-26.5 -36l-426 -955h-29l-459 955q-16 31 -38 44.5t-89 37.5v59h457v-59q-88 -11 -120.5 -25t-32.5 -49q0 -24 14 -55l309 -662l285 662q14 47 14 55q0 35 -33 49t-122 25v59h397z" />
    <glyph glyph-name="w" unicode="w" horiz-adv-x="1753" 
d="M1241 242l236 622q20 56 20 74q0 35 -33.5 49t-122.5 25v59h392v-59q-76 -25 -95.5 -37.5t-31.5 -44.5l-381 -955h-27l-315 742l-301 -742h-27l-408 955q-13 33 -31 44t-96 38v59h461v-59q-98 -15 -130 -27.5t-32 -46.5q0 -20 21 -74l262 -626l229 581l-43 111
q-13 33 -31 44t-98 38v59h463v-59q-93 -13 -126 -26.5t-33 -47.5q0 -31 18 -74z" />
    <glyph glyph-name="x" unicode="x" horiz-adv-x="1196" 
d="M174 141l346 394l-317 395q-51 63 -150 82v59h461v-59q-83 -19 -104 -30t-21 -36q0 -19 39 -67l195 -246l215 248q41 46 41 65q0 27 -20 37t-107 29v59h393v-59q-99 -17 -152 -80l-317 -365l342 -426q39 -48 158 -82v-59h-461v59q78 10 100.5 21t22.5 37q0 5 -0.5 9
t-3 9.5t-4 8.5t-6 9.5t-6.5 9.5t-9 12t-10 13l-226 279l-241 -279q-22 -26 -31.5 -40.5t-9.5 -30.5q0 -26 23.5 -36.5t99.5 -21.5v-59h-394v59q39 11 60 18.5t47.5 24t46.5 39.5z" />
    <glyph glyph-name="y" unicode="y" horiz-adv-x="1206" 
d="M580 -2l-428 924q-17 35 -36 48t-96 42v59h461v-59q-89 -11 -122 -25t-33 -49q0 -24 14 -55l315 -711l275 711q14 38 14 55q0 35 -33.5 49t-122.5 25v59h398v-59q-78 -29 -97.5 -42t-33.5 -48l-475 -1186q-57 -142 -126.5 -196t-156.5 -54q-52 0 -92.5 20.5t-54.5 51.5
v90h129q86 0 139 35t88 127z" />
    <glyph glyph-name="z" unicode="z" horiz-adv-x="1075" 
d="M92 0v35l662 952h-357q-85 0 -135 -43.5t-80 -169.5h-67l28 348h68l25 -51h722v-37l-649 -950h369q196 0 244 240h61l-27 -324h-864z" />
    <glyph glyph-name="braceleft" unicode="{" horiz-adv-x="858" 
d="M238 717q109 -32 164 -111t55 -182q0 -52 -25.5 -170.5t-25.5 -190.5q0 -125 69 -184t240 -59v-86q-410 0 -410 329q0 72 23.5 191t23.5 170q0 248 -297 248v90q297 0 297 248q0 51 -23.5 169.5t-23.5 190.5q0 330 410 330v-86q-171 0 -240 -59.5t-69 -184.5
q0 -72 25.5 -190t25.5 -170q0 -103 -55 -182t-164 -111z" />
    <glyph glyph-name="bar" unicode="|" horiz-adv-x="520" 
d="M315 1700v-1948h-110v1948h110z" />
    <glyph glyph-name="braceright" unicode="}" horiz-adv-x="858" 
d="M621 717q-110 32 -165 111t-55 182q0 52 26 170t26 190q0 125 -69.5 184.5t-240.5 59.5v86q410 0 410 -330q0 -72 -23.5 -190.5t-23.5 -169.5q0 -248 297 -248v-90q-297 0 -297 -248q0 -51 23.5 -170t23.5 -191q0 -329 -410 -329v86q171 0 240.5 59t69.5 184
q0 72 -26 190.5t-26 170.5q0 103 55 182t165 111z" />
    <glyph glyph-name="asciitilde" unicode="~" horiz-adv-x="1058" 
d="M143 582l-59 16q42 100 95.5 147.5t139.5 47.5q61 0 129.5 -18.5t118 -41t109 -41t104.5 -18.5q52 0 77 18.5t58 83.5l60 -18q-40 -98 -95 -145.5t-141 -47.5q-61 0 -129 18.5t-117.5 41t-108 41t-103.5 18.5q-51 0 -77 -19t-61 -83z" />
    <glyph glyph-name="nbspace" unicode="&#xa0;" horiz-adv-x="491" 
 />
    <glyph glyph-name="exclamdown" unicode="&#xa1;" horiz-adv-x="645" 
d="M193 963q0 54 37.5 91.5t91.5 37.5t92.5 -37.5t38.5 -91.5t-38.5 -93t-92.5 -39t-91.5 39t-37.5 93zM432 -432v-94h-217v94l41 598q28 439 29 502h77q1 -63 29 -502z" />
    <glyph glyph-name="cent" unicode="&#xa2;" horiz-adv-x="1208" 
d="M422 -215l47 221q-174 54 -269.5 201t-95.5 336q0 282 167 450t436 168h16l55 246h88l-55 -254q137 -20 212 -90t75 -166q0 -44 -20 -78t-54 -49h-86v43q0 172 -154 223l-198 -911q44 -10 108 -10q132 0 215 48.5t162 151.5l55 -20q-23 -66 -62 -120.5t-96 -99.5
t-138 -70t-177 -25q-36 0 -98 8l-43 -203h-90zM254 604q0 -160 63.5 -278.5t184.5 -173.5l198 903q-8 0 -25.5 1t-25.5 1q-170 0 -282.5 -124t-112.5 -329z" />
    <glyph glyph-name="sterling" unicode="&#xa3;" horiz-adv-x="1425" 
d="M227 623v86h244l31 161q41 222 162.5 321t316.5 99q143 0 221 -49t78 -125q0 -41 -23 -72.5t-57 -42.5h-98v58q0 67 -33.5 108t-120.5 41q-56 0 -99 -19t-71.5 -49.5t-51 -81t-35.5 -101.5t-25 -123l-23 -125h404v-86h-422q-45 -215 -82 -347q117 -76 222 -117.5
t222 -41.5q130 0 192 49.5t62 179.5h51q54 -57 54 -139q0 -113 -86 -170t-222 -57q-145 0 -284 60.5t-244 149.5q-22 -47 -41.5 -78t-52.5 -64.5t-80.5 -50.5t-108.5 -17q-90 0 -141 49.5t-51 128.5q0 87 63 144.5t168 57.5q76 0 140 -22l51 285h-230zM227 68q110 0 152 184
q-49 22 -113 22q-61 0 -93 -31.5t-32 -84.5q0 -39 24.5 -64.5t61.5 -25.5z" />
    <glyph glyph-name="currency" unicode="&#xa4;" horiz-adv-x="1277" 
d="M330 631q0 -163 78 -268t231 -105t232 105t79 268q0 161 -79 264.5t-232 103.5t-231 -103.5t-78 -264.5zM174 631q0 173 94 293l-125 125l78 77l125 -125q129 95 293 95q165 0 291 -95l127 125l78 -77l-125 -121q98 -132 98 -297q0 -166 -98 -295l125 -121l-80 -80
l-125 121q-120 -94 -291 -94q-170 0 -293 94l-123 -121l-80 80l125 123q-94 120 -94 293z" />
    <glyph glyph-name="yen" unicode="&#xa5;" horiz-adv-x="1241" 
d="M137 616v84h289l-287 455q-34 51 -119 51v64h496v-64q-90 0 -132 -16t-42 -53q0 -29 20 -62l291 -483l289 481q23 38 23 64q0 37 -44 53t-133 16v64h433v-64q-83 0 -119 -51l-283 -455h303v-84h-354l-68 -108v-62h422v-84h-422v-196q0 -31 17.5 -52t49.5 -31.5t64 -14.5
t74 -5v-63h-561v63q42 1 74 5t64 14.5t49.5 31.5t17.5 52v196h-412v84h412v60l-70 110h-342z" />
    <glyph glyph-name="brokenbar" unicode="&#xa6;" horiz-adv-x="520" 
d="M315 1700v-832h-110v832h110zM315 584v-832h-110v832h110z" />
    <glyph glyph-name="section" unicode="&#xa7;" horiz-adv-x="1052" 
d="M268 1425q-27 -48 -46 -134.5t-19 -186.5q0 -310 243 -684q16 -24 72 -109t80 -122.5t68 -113t64 -123t37 -107t17 -107.5q27 49 46.5 135.5t19.5 185.5q0 305 -246 684q-17 26 -62 94t-67.5 103.5t-61 97.5t-59 105t-43.5 96t-33 99t-10 87zM451 -512q-137 0 -217 55
t-80 140q0 78 73 114h111v-18q0 -89 49.5 -139t128.5 -50q83 0 130.5 47.5t47.5 122.5q0 63 -34.5 142t-76.5 141t-112 162t-109 162q-121 192 -185 368t-64 369q0 260 135 415.5t354 155.5q137 0 217 -54.5t80 -139.5q0 -79 -74 -115h-110v18q0 89 -49.5 139t-128.5 50
q-83 0 -131 -47.5t-48 -122.5q0 -63 34.5 -141.5t76.5 -140.5t112 -161.5t109 -162.5q121 -193 185.5 -369t64.5 -369q0 -260 -135 -415.5t-354 -155.5z" />
    <glyph glyph-name="dieresis" unicode="&#xa8;" horiz-adv-x="1228" 
d="M295 1415q0 47 34 82t81 35t81.5 -35t34.5 -82t-34.5 -81t-81.5 -34t-81 34t-34 81zM702 1415q0 47 34 82t81 35t82 -35t35 -82t-35 -81t-82 -34t-81 34t-34 81z" />
    <glyph glyph-name="copyright" unicode="&#xa9;" horiz-adv-x="1822" 
d="M92 799q0 167 65 318.5t174.5 261t261 174.5t318.5 65t319 -65t261.5 -174.5t174.5 -261t65 -318.5t-65 -318.5t-174.5 -261t-261.5 -174.5t-319 -65t-318.5 65t-261 174.5t-174.5 261t-65 318.5zM154 799q0 -154 60 -294.5t161.5 -242t241.5 -161.5t294 -60t294.5 60
t242 161.5t161.5 242t60 294.5t-60 294t-161.5 241.5t-242 161.5t-294.5 60q-206 0 -380 -101.5t-275.5 -275.5t-101.5 -380zM942 365q77 0 133.5 16t95 50t63.5 75t48 102h45l-29 -243q-97 -39 -183.5 -58.5t-194.5 -19.5q-101 0 -188 27.5t-149.5 74.5t-107 110
t-66.5 135.5t-22 149.5q0 159 71.5 282.5t193 189t270.5 65.5q204 0 352 -78l10 -233h-41q-44 123 -122 176t-197 53q-93 0 -167 -32.5t-120.5 -89t-71 -129.5t-24.5 -157q0 -124 44 -227.5t137 -171t220 -67.5z" />
    <glyph glyph-name="ordfeminine" unicode="&#xaa;" horiz-adv-x="880" 
d="M360 811q29 0 52 5t51 21t39.5 24t48.5 36v209l-242 -78q-78 -25 -78 -96q0 -59 34.5 -90t94.5 -31zM696 1212v-305q0 -46 18 -71t50 -25q29 0 59 10l15 -47q-70 -67 -148 -67q-52 0 -82 32.5t-51 96.5q-53 -57 -114.5 -93t-147.5 -36q-103 0 -159 54t-56 140
q0 38 11 67.5t26.5 48t45 34t53 24t63.5 19.5l272 80v30q0 93 -43.5 150t-128.5 57q-123 0 -123 -104q0 -14 8 -68l-121 -14q-30 30 -30 75q0 84 85 134.5t208 50.5q290 0 290 -273z" />
    <glyph glyph-name="guillemotleft" unicode="&#xab;" horiz-adv-x="937" 
d="M84 551v20l346 390h76l-262 -400l262 -399h-76zM408 551v20l344 390h75l-262 -400l262 -399h-75z" />
    <glyph glyph-name="logicalnot" unicode="&#xac;" 
d="M1163 426v649h-999v96h1106v-745h-107z" />
    <glyph glyph-name="uni00AD" unicode="&#xad;" horiz-adv-x="712" 
d="M610 633h-508v119h508v-119z" />
    <glyph glyph-name="registered" unicode="&#xae;" horiz-adv-x="964" 
d="M465 1421h-55v-164h55q56 0 77 20t21 66q0 41 -22.5 59.5t-75.5 18.5zM279 1462h198q89 0 127.5 -33.5t38.5 -85.5q0 -56 -37.5 -86.5t-103.5 -35.5q33 -3 69 -39l76 -84q19 -22 30 -28t36 -9v-33h-84q-40 24 -66 57l-86 105q-30 35 -67 35v-119q0 -25 14 -35t45 -10v-33
h-190v33q33 0 46 9.5t13 35.5v278q0 26 -12 34.5t-47 11.5v32zM102 1235q0 159 110.5 271t266.5 112q160 0 271.5 -111.5t111.5 -271.5q0 -156 -112 -266.5t-271 -110.5q-155 0 -266 111t-111 266zM156 1235q0 -134 95 -232t228 -98q136 0 232 98t96 232q0 137 -96 235.5
t-232 98.5q-133 0 -228 -98.5t-95 -235.5z" />
    <glyph glyph-name="macron" unicode="&#xaf;" horiz-adv-x="1228" 
d="M344 1335v107h541v-107h-541z" />
    <glyph glyph-name="degree" unicode="&#xb0;" horiz-adv-x="993" 
d="M123 1239q0 162 102.5 270.5t272.5 108.5q168 0 270 -109t102 -270q0 -163 -102 -272t-270 -109q-170 0 -272.5 109t-102.5 272zM743 1239q0 123 -66.5 204t-180.5 81q-113 0 -180.5 -81.5t-67.5 -203.5q0 -124 67.5 -206.5t180.5 -82.5q114 0 180.5 82.5t66.5 206.5z
" />
    <glyph glyph-name="plusminus" unicode="&#xb1;" 
d="M659 311v361h-495v104h495v361h115v-361h496v-104h-496v-361h-115zM1270 119h-1106v98h1106v-98z" />
    <glyph glyph-name="twosuperior" unicode="&#xb2;" horiz-adv-x="849" 
d="M227 729h258q96 0 136.5 24t91.5 121h41l-37 -268h-668v37l262 268q147 151 194.5 223.5t47.5 155.5q0 95 -54 146t-151 51q-41 0 -76 -10t-68.5 -33t-51 -38.5t-50.5 -47.5l-30 35q48 94 132 155.5t199 61.5q140 0 217.5 -76.5t77.5 -206.5q0 -42 -11.5 -82.5t-39 -83
t-54.5 -77.5t-76 -83.5t-85.5 -82.5t-100.5 -92.5t-104 -96.5z" />
    <glyph glyph-name="threesuperior" unicode="&#xb3;" horiz-adv-x="886" 
d="M485 1157q131 -15 209 -92.5t78 -190.5q0 -71 -29 -126t-78.5 -88t-111 -49.5t-131.5 -16.5q-147 0 -234.5 62.5t-87.5 146.5q0 35 17.5 61t42.5 39h84v-49q0 -91 48.5 -141.5t145.5 -50.5q90 0 140.5 48.5t50.5 145.5q0 221 -275 221h-61v45q69 23 115.5 43.5t89 49
t63.5 64.5t21 81q0 141 -166 141q-75 0 -132 -35t-112 -92l-33 35q105 201 318 201q125 0 193.5 -61.5t68.5 -149.5q0 -48 -21 -87.5t-61.5 -69.5t-71.5 -47t-80 -38z" />
    <glyph glyph-name="acute" unicode="&#xb4;" horiz-adv-x="1228" 
d="M594 1638h207l-305 -426h-68z" />
    <glyph glyph-name="paragraph" unicode="&#xb6;" horiz-adv-x="1458" 
d="M690 -492v1254q-275 0 -427 109t-152 309t152 308.5t427 108.5h617v-67q-63 -2 -102.5 -9t-72 -24.5t-47 -50t-14.5 -82.5v-1856h-92v2008h-197v-2008h-92z" />
    <glyph glyph-name="periodcentered" unicode="&#xb7;" horiz-adv-x="645" 
d="M193 674q0 54 37.5 92.5t91.5 38.5t92.5 -38.5t38.5 -92.5t-38.5 -91.5t-92.5 -37.5t-91.5 37.5t-37.5 91.5z" />
    <glyph glyph-name="cedilla" unicode="&#xb8;" horiz-adv-x="1228" 
d="M561 12h51l-20 -98q113 -33 175 -83.5t62 -135.5q0 -90 -73 -148.5t-181 -58.5q-105 0 -178 47l17 55q60 -22 145 -22q71 0 113.5 29.5t42.5 78.5q0 56 -52 88.5t-147 51.5z" />
    <glyph glyph-name="onesuperior" unicode="&#xb9;" horiz-adv-x="841" 
d="M461 1610h28v-844q0 -21 7 -36.5t25 -26t34.5 -17t51.5 -10.5t60 -5.5t74 -4.5v-60h-647v60l73.5 4.5t60 5.5t53 10.5t36.5 17t26 26t7 36.5v620h-256v48l51 6q192 28 316 170z" />
    <glyph glyph-name="ordmasculine" unicode="&#xba;" horiz-adv-x="894" 
d="M477 797q101 0 154 72t53 192q0 141 -71.5 238.5t-194.5 97.5q-101 0 -155 -73t-54 -194q0 -141 72.5 -237t195.5 -96zM432 707q-166 0 -270.5 105t-104.5 269q0 181 118 292.5t286 111.5t272.5 -105.5t104.5 -269.5q0 -120 -56 -213.5t-148 -141.5t-202 -48z" />
    <glyph glyph-name="guillemotright" unicode="&#xbb;" horiz-adv-x="937" 
d="M532 571v-20l-346 -389h-75l262 399l-262 400h75zM854 571v-20l-346 -389h-74l262 399l-262 400h74z" />
    <glyph glyph-name="onequarter" unicode="&#xbc;" horiz-adv-x="2060" 
d="M461 1610h28v-844q0 -21 7 -36.5t25 -26t34.5 -17t51.5 -10.5t60 -5.5t74 -4.5v-60h-647v60l73.5 4.5t60 5.5t53 10.5t36.5 17t26 26t7 36.5v620h-256v48l51 6q192 28 316 170zM539 0l1069 1597h116l-1069 -1597h-116zM1313 340h401v444zM1860 0h-146v258h-526v61
l600 672h72v-651h157v-82h-157v-258z" />
    <glyph glyph-name="onehalf" unicode="&#xbd;" horiz-adv-x="2189" 
d="M461 1610h28v-844q0 -21 7 -36.5t25 -26t34.5 -17t51.5 -10.5t60 -5.5t74 -4.5v-60h-647v60l73.5 4.5t60 5.5t53 10.5t36.5 17t26 26t7 36.5v620h-256v48l51 6q192 28 316 170zM539 0l1069 1597h116l-1069 -1597h-116zM1567 123h258q96 0 136 24t91 121h41l-37 -268h-667
v37l262 268q146 150 193.5 223t47.5 156q0 96 -54 146.5t-150 50.5q-41 0 -76 -10t-68.5 -33t-51 -38.5t-50.5 -47.5l-31 34q48 94 132.5 156t199.5 62q140 0 217.5 -76.5t77.5 -206.5q0 -42 -11.5 -82.5t-39 -83t-54.5 -77.5t-76 -83.5t-85.5 -82.5t-100.5 -92.5
t-104 -96.5z" />
    <glyph glyph-name="threequarters" unicode="&#xbe;" horiz-adv-x="1982" 
d="M485 1157q131 -15 209 -92.5t78 -190.5q0 -71 -29 -126t-78.5 -88t-111 -49.5t-131.5 -16.5q-147 0 -234.5 62.5t-87.5 146.5q0 35 17.5 61t42.5 39h84v-49q0 -91 48.5 -141.5t145.5 -50.5q90 0 140.5 48.5t50.5 145.5q0 221 -275 221h-61v45q69 23 115.5 43.5t89 49
t63.5 64.5t21 81q0 141 -166 141q-75 0 -132 -35t-112 -92l-33 35q105 201 318 201q125 0 193.5 -61.5t68.5 -149.5q0 -48 -21 -87.5t-61.5 -69.5t-71.5 -47t-80 -38zM461 0l1069 1597h117l-1069 -1597h-117zM1235 340h401v444zM1782 0h-146v258h-526v61l600 672h72v-651
h157v-82h-157v-258z" />
    <glyph glyph-name="questiondown" unicode="&#xbf;" horiz-adv-x="972" 
d="M233 -211q0 -113 71.5 -180.5t191.5 -67.5q110 0 171.5 67.5t61.5 174.5v63h133q41 -41 41 -108q0 -80 -54 -146t-144.5 -102.5t-198.5 -36.5q-200 0 -319 98.5t-119 290.5q0 56 13 105t33.5 87t59.5 81.5t75.5 76t96.5 82.5q93 76 132.5 138.5t39.5 146.5v109h49
q62 -102 62 -189q0 -97 -47 -171t-156 -167q-38 -33 -61.5 -55.5t-51.5 -57t-43.5 -66.5t-26 -77t-10.5 -96zM672 963q0 -54 -37.5 -93t-91.5 -39t-92.5 39t-38.5 93t38.5 91.5t92.5 37.5t91.5 -37.5t37.5 -91.5z" />
    <glyph glyph-name="Agrave" unicode="&#xc0;" horiz-adv-x="1675" 
d="M1282 258l-119 274h-723l-114 -272q-25 -62 -25 -92q0 -52 53 -73.5t181 -26.5v-68h-515v68q58 9 92 25.5t52 58.5l577 1341l-61 131h194l637 -1472q18 -42 52 -58.5t92 -25.5v-68h-580v68q129 5 180.5 25.5t51.5 72.5q0 30 -25 92zM801 1382l-322 -757h645zM457 2109
h200l172 -426h-67z" />
    <glyph glyph-name="Aacute" unicode="&#xc1;" horiz-adv-x="1675" 
d="M1282 258l-119 274h-723l-114 -272q-25 -62 -25 -92q0 -52 53 -73.5t181 -26.5v-68h-515v68q58 9 92 25.5t52 58.5l577 1341l-61 131h194l637 -1472q18 -42 52 -58.5t92 -25.5v-68h-580v68q129 5 180.5 25.5t51.5 72.5q0 30 -25 92zM801 1382l-322 -757h645zM903 2109
h207l-305 -426h-68z" />
    <glyph glyph-name="Acircumflex" unicode="&#xc2;" horiz-adv-x="1675" 
d="M1282 258l-119 274h-723l-114 -272q-25 -62 -25 -92q0 -52 53 -73.5t181 -26.5v-68h-515v68q58 9 92 25.5t52 58.5l577 1341l-61 131h194l637 -1472q18 -42 52 -58.5t92 -25.5v-68h-580v68q129 5 180.5 25.5t51.5 72.5q0 30 -25 92zM801 1382l-322 -757h645zM860 2109
l303 -426h-69l-291 275l-291 -275h-70l303 426h115z" />
    <glyph glyph-name="Atilde" unicode="&#xc3;" horiz-adv-x="1675" 
d="M1282 258l-119 274h-723l-114 -272q-25 -62 -25 -92q0 -52 53 -73.5t181 -26.5v-68h-515v68q58 9 92 25.5t52 58.5l577 1341l-61 131h194l637 -1472q18 -42 52 -58.5t92 -25.5v-68h-580v68q129 5 180.5 25.5t51.5 72.5q0 30 -25 92zM801 1382l-322 -757h645zM942 1741
q-45 0 -92.5 19t-80.5 42.5t-72.5 42.5t-69.5 19q-53 0 -80.5 -20t-63.5 -87l-67 8q79 215 254 215q45 0 92.5 -19t80.5 -42t72.5 -42t69.5 -19q53 0 80 19.5t63 86.5l68 -8q-78 -215 -254 -215z" />
    <glyph glyph-name="Adieresis" unicode="&#xc4;" horiz-adv-x="1675" 
d="M1282 258l-119 274h-723l-114 -272q-25 -62 -25 -92q0 -52 53 -73.5t181 -26.5v-68h-515v68q58 9 92 25.5t52 58.5l577 1341l-61 131h194l637 -1472q18 -42 52 -58.5t92 -25.5v-68h-580v68q129 5 180.5 25.5t51.5 72.5q0 30 -25 92zM801 1382l-322 -757h645zM479 1862
q0 47 34 81.5t81 34.5t82 -34.5t35 -81.5t-35 -81t-82 -34t-81 34t-34 81zM887 1862q0 47 33.5 81.5t80.5 34.5t82 -34.5t35 -81.5t-35 -81t-82 -34t-80.5 34t-33.5 81z" />
    <glyph glyph-name="Aring" unicode="&#xc5;" horiz-adv-x="1675" 
d="M1282 258l-119 274h-723l-114 -272q-25 -62 -25 -92q0 -52 53 -73.5t181 -26.5v-68h-515v68q58 9 92 25.5t52 58.5l577 1341l-61 131h194l637 -1472q18 -42 52 -58.5t92 -25.5v-68h-580v68q129 5 180.5 25.5t51.5 72.5q0 30 -25 92zM801 1382l-322 -757h645zM553 1917
q0 99 64 166t165 67t165.5 -67.5t64.5 -165.5q0 -99 -64.5 -166.5t-165.5 -67.5t-165 67.5t-64 166.5zM913 1917q0 68 -33 109.5t-98 41.5t-97 -41.5t-32 -109.5t32 -110t97 -42t98 42t33 110z" />
    <glyph glyph-name="AE" unicode="&#xc6;" horiz-adv-x="2363" 
d="M1169 266l-51 264h-635l-133 -254q-33 -60 -33 -108q0 -52 53 -73.5t181 -26.5v-68h-531v68q57 7 93 24.5t59 59.5l717 1351q-83 27 -205 27v67h1462l6 -360h-38q-66 156 -135 213t-205 57h-666l123 -649h493q73 0 110.5 52.5t57.5 162.5h58v-522h-58q-20 109 -57.5 161
t-110.5 52h-475l103 -520q18 -92 81 -123t205 -31h148q80 0 126 8.5t92 49t72 78t91 142.5q8 12 12 19h49l-71 -387h-1221v68q59 3 97.5 8t74.5 17.5t53 36.5t17 60q0 30 -9 76zM948 1405l-416 -784h570l-150 784h-4z" />
    <glyph glyph-name="Ccedilla" unicode="&#xc7;" horiz-adv-x="1675" 
d="M995 76q117 0 203 23.5t151 76t112 122.5t95 177h50l-47 -377q-262 -118 -584 -118h-2l-12 -66q113 -33 175 -83.5t62 -135.5q0 -90 -73 -148.5t-181 -58.5q-105 0 -178 47l16 55q60 -22 146 -22q71 0 113 29.5t42 78.5q0 56 -52 88.5t-146 51.5l37 166q-191 8 -346 74.5
t-254.5 174t-153 245.5t-53.5 292q0 192 66 352.5t180 269t269 168.5t333 60q338 0 559 -127l14 -336h-45q-70 188 -201.5 270t-333.5 82q-320 0 -494.5 -184.5t-174.5 -503.5q0 -110 29 -216.5t89 -201.5t143 -167.5t198.5 -115t248.5 -42.5z" />
    <glyph glyph-name="Egrave" unicode="&#xc8;" horiz-adv-x="1660" 
d="M549 2109h201l172 -426h-68zM1247 555h-57q-20 109 -57.5 161t-110.5 52h-508v-524q0 -90 57 -122t195 -32h317q65 0 109 9.5t74.5 21.5t66.5 54.5t58.5 76t75.5 119.5q2 3 3.5 5t3 5t3.5 6h49l-72 -387h-1360v68q65 3 106 9.5t77.5 24t53.5 51t17 85.5v1122
q0 52 -17 85.5t-53.5 51t-77.5 24t-106 9.5v67h1350l6 -360h-39q-66 156 -135 213t-205 57h-557v-649h508q73 0 110.5 52.5t57.5 162.5h57v-518z" />
    <glyph glyph-name="Eacute" unicode="&#xc9;" horiz-adv-x="1660" 
d="M936 2109h207l-305 -426h-68zM1247 555h-57q-20 109 -57.5 161t-110.5 52h-508v-524q0 -90 57 -122t195 -32h317q65 0 109 9.5t74.5 21.5t66.5 54.5t58.5 76t75.5 119.5q2 3 3.5 5t3 5t3.5 6h49l-72 -387h-1360v68q65 3 106 9.5t77.5 24t53.5 51t17 85.5v1122
q0 52 -17 85.5t-53.5 51t-77.5 24t-106 9.5v67h1350l6 -360h-39q-66 156 -135 213t-205 57h-557v-649h508q73 0 110.5 52.5t57.5 162.5h57v-518z" />
    <glyph glyph-name="Ecircumflex" unicode="&#xca;" horiz-adv-x="1660" 
d="M1247 555h-57q-20 109 -57.5 161t-110.5 52h-508v-524q0 -90 57 -122t195 -32h317q65 0 109 9.5t74.5 21.5t66.5 54.5t58.5 76t75.5 119.5q2 3 3.5 5t3 5t3.5 6h49l-72 -387h-1360v68q65 3 106 9.5t77.5 24t53.5 51t17 85.5v1122q0 52 -17 85.5t-53.5 51t-77.5 24
t-106 9.5v67h1350l6 -360h-39q-66 156 -135 213t-205 57h-557v-649h508q73 0 110.5 52.5t57.5 162.5h57v-518zM874 2109l304 -426h-70l-291 275l-291 -275h-69l303 426h114z" />
    <glyph glyph-name="Edieresis" unicode="&#xcb;" horiz-adv-x="1660" 
d="M526 1862q0 47 34 81.5t81 34.5t82 -34.5t35 -81.5t-35 -81t-82 -34t-81 34t-34 81zM934 1862q0 47 34 81.5t81 34.5t81.5 -34.5t34.5 -81.5t-34.5 -81t-81.5 -34t-81 34t-34 81zM1247 555h-57q-20 109 -57.5 161t-110.5 52h-508v-524q0 -90 57 -122t195 -32h317
q65 0 109 9.5t74.5 21.5t66.5 54.5t58.5 76t75.5 119.5q2 3 3.5 5t3 5t3.5 6h49l-72 -387h-1360v68q65 3 106 9.5t77.5 24t53.5 51t17 85.5v1122q0 52 -17 85.5t-53.5 51t-77.5 24t-106 9.5v67h1350l6 -360h-39q-66 156 -135 213t-205 57h-557v-649h508q73 0 110.5 52.5
t57.5 162.5h57v-518z" />
    <glyph glyph-name="Igrave" unicode="&#xcc;" horiz-adv-x="862" 
d="M348 238v1122q0 52 -17 85.5t-53.5 51t-77.5 24t-106 9.5v67h674v-67q-65 -3 -106 -9.5t-77.5 -24t-53.5 -51t-17 -85.5v-1122q0 -52 17 -85.5t53.5 -51t77.5 -24t106 -9.5v-68h-674v68q65 3 106 9.5t77.5 24t53.5 51t17 85.5zM106 2109h201l172 -426h-67z" />
    <glyph glyph-name="Iacute" unicode="&#xcd;" horiz-adv-x="862" 
d="M348 238v1122q0 52 -17 85.5t-53.5 51t-77.5 24t-106 9.5v67h674v-67q-65 -3 -106 -9.5t-77.5 -24t-53.5 -51t-17 -85.5v-1122q0 -52 17 -85.5t53.5 -51t77.5 -24t106 -9.5v-68h-674v68q65 3 106 9.5t77.5 24t53.5 51t17 85.5zM553 2109h207l-305 -426h-68z" />
    <glyph glyph-name="Icircumflex" unicode="&#xce;" horiz-adv-x="862" 
d="M348 238v1122q0 52 -17 85.5t-53.5 51t-77.5 24t-106 9.5v67h674v-67q-65 -3 -106 -9.5t-77.5 -24t-53.5 -51t-17 -85.5v-1122q0 -52 17 -85.5t53.5 -51t77.5 -24t106 -9.5v-68h-674v68q65 3 106 9.5t77.5 24t53.5 51t17 85.5zM489 2109l304 -426h-70l-291 275l-291 -275
h-69l303 426h114z" />
    <glyph glyph-name="Idieresis" unicode="&#xcf;" horiz-adv-x="862" 
d="M348 238v1122q0 52 -17 85.5t-53.5 51t-77.5 24t-106 9.5v67h674v-67q-65 -3 -106 -9.5t-77.5 -24t-53.5 -51t-17 -85.5v-1122q0 -52 17 -85.5t53.5 -51t77.5 -24t106 -9.5v-68h-674v68q65 3 106 9.5t77.5 24t53.5 51t17 85.5zM106 1862q0 47 34 81.5t81 34.5t82 -34.5
t35 -81.5t-35 -81t-82 -34t-81 34t-34 81zM514 1862q0 47 34 81.5t81 34.5t81.5 -34.5t34.5 -81.5t-34.5 -81t-81.5 -34t-81 34t-34 81z" />
    <glyph glyph-name="Eth" unicode="&#xd0;" horiz-adv-x="1884" 
d="M94 768v90h254v502q0 52 -17 85.5t-53.5 51t-77.5 24t-106 9.5v67h821q174 0 317.5 -41t242 -112t165.5 -167.5t98 -205t31 -227.5q0 -199 -65.5 -361.5t-177.5 -266.5t-257 -160t-308 -56h-867v68q65 3 106 9.5t77.5 24t53.5 51t17 85.5v530h-254zM872 1507h-358v-649
h504v-90h-504v-518q0 -95 57 -127.5t195 -32.5h192q127 0 239 43.5t199.5 126.5t138 214.5t50.5 295.5q0 124 -23.5 231t-77 201.5t-134.5 161t-203 105t-275 38.5z" />
    <glyph glyph-name="Ntilde" unicode="&#xd1;" horiz-adv-x="1998" 
d="M1155 1741q-45 0 -92.5 19t-80.5 42.5t-72.5 42.5t-69.5 19q-53 0 -80.5 -20t-63.5 -87l-67 8q79 215 254 215q45 0 92.5 -19t80.5 -42t72.5 -42t69.5 -19q53 0 80 19.5t63 86.5l68 -8q-78 -215 -254 -215zM346 238v1157q-74 88 -117.5 111.5t-134.5 23.5v67h332
l1141 -1318v1081q0 52 -15.5 85.5t-50 51t-74 24t-104.5 9.5v67h602v-67q-51 -2 -85.5 -6t-68.5 -15t-53 -29t-31 -48t-12 -72v-1360h-76l-1144 1311v-1073q0 -52 15 -85.5t49.5 -51t74.5 -24t104 -9.5v-68h-604v68q51 2 86 6t69 15t53.5 29t31.5 48t12 72z" />
    <glyph glyph-name="Ograve" unicode="&#xd2;" horiz-adv-x="1851" 
d="M598 2109h201l172 -426h-68zM975 102q138 0 251 50.5t187 138t114 203.5t40 249q0 126 -27 238t-83 206.5t-136.5 162.5t-194 106.5t-249.5 38.5q-138 0 -251 -50.5t-187 -138t-114 -203.5t-40 -249q0 -126 27 -238t83 -206.5t136.5 -162.5t194 -106.5t249.5 -38.5z
M903 -20q-176 0 -326 65t-250 174t-156 251.5t-56 297.5q0 192 65 352.5t177 269t264.5 168.5t326.5 60q176 0 326 -65t250.5 -174t156.5 -252t56 -298q0 -191 -65 -352t-177.5 -269t-265 -168t-326.5 -60z" />
    <glyph glyph-name="Oacute" unicode="&#xd3;" horiz-adv-x="1851" 
d="M1047 2109h206l-305 -426h-67zM975 102q138 0 251 50.5t187 138t114 203.5t40 249q0 126 -27 238t-83 206.5t-136.5 162.5t-194 106.5t-249.5 38.5q-138 0 -251 -50.5t-187 -138t-114 -203.5t-40 -249q0 -126 27 -238t83 -206.5t136.5 -162.5t194 -106.5t249.5 -38.5z
M903 -20q-176 0 -326 65t-250 174t-156 251.5t-56 297.5q0 192 65 352.5t177 269t264.5 168.5t326.5 60q176 0 326 -65t250.5 -174t156.5 -252t56 -298q0 -191 -65 -352t-177.5 -269t-265 -168t-326.5 -60z" />
    <glyph glyph-name="Ocircumflex" unicode="&#xd4;" horiz-adv-x="1851" 
d="M975 102q138 0 251 50.5t187 138t114 203.5t40 249q0 126 -27 238t-83 206.5t-136.5 162.5t-194 106.5t-249.5 38.5q-138 0 -251 -50.5t-187 -138t-114 -203.5t-40 -249q0 -126 27 -238t83 -206.5t136.5 -162.5t194 -106.5t249.5 -38.5zM903 -20q-176 0 -326 65t-250 174
t-156 251.5t-56 297.5q0 192 65 352.5t177 269t264.5 168.5t326.5 60q176 0 326 -65t250.5 -174t156.5 -252t56 -298q0 -191 -65 -352t-177.5 -269t-265 -168t-326.5 -60zM983 2109l303 -426h-69l-291 275l-291 -275h-70l303 426h115z" />
    <glyph glyph-name="Otilde" unicode="&#xd5;" horiz-adv-x="1851" 
d="M1057 1741q-45 0 -92.5 19t-81 42.5t-73 42.5t-69.5 19q-53 0 -79.5 -20t-63.5 -87l-68 8q79 215 254 215q45 0 92.5 -19t81 -42t73 -42t69.5 -19q53 0 80 19.5t63 86.5l68 -8q-78 -215 -254 -215zM975 102q138 0 251 50.5t187 138t114 203.5t40 249q0 126 -27 238
t-83 206.5t-136.5 162.5t-194 106.5t-249.5 38.5q-138 0 -251 -50.5t-187 -138t-114 -203.5t-40 -249q0 -126 27 -238t83 -206.5t136.5 -162.5t194 -106.5t249.5 -38.5zM903 -20q-176 0 -326 65t-250 174t-156 251.5t-56 297.5q0 192 65 352.5t177 269t264.5 168.5t326.5 60
q176 0 326 -65t250.5 -174t156.5 -252t56 -298q0 -191 -65 -352t-177.5 -269t-265 -168t-326.5 -60z" />
    <glyph glyph-name="Odieresis" unicode="&#xd6;" horiz-adv-x="1851" 
d="M600 1862q0 47 34 81.5t81 34.5t81.5 -34.5t34.5 -81.5t-34.5 -81t-81.5 -34t-81 34t-34 81zM1008 1862q0 47 33.5 81.5t80.5 34.5t82 -34.5t35 -81.5t-35 -81t-82 -34t-80.5 34t-33.5 81zM975 102q138 0 251 50.5t187 138t114 203.5t40 249q0 126 -27 238t-83 206.5
t-136.5 162.5t-194 106.5t-249.5 38.5q-138 0 -251 -50.5t-187 -138t-114 -203.5t-40 -249q0 -126 27 -238t83 -206.5t136.5 -162.5t194 -106.5t249.5 -38.5zM903 -20q-176 0 -326 65t-250 174t-156 251.5t-56 297.5q0 192 65 352.5t177 269t264.5 168.5t326.5 60
q176 0 326 -65t250.5 -174t156.5 -252t56 -298q0 -191 -65 -352t-177.5 -269t-265 -168t-326.5 -60z" />
    <glyph glyph-name="multiply" unicode="&#xd7;" 
d="M1229 1024l-438 -438l438 -441l-76 -71l-436 442l-436 -442l-76 69l438 441l-438 438l76 72l436 -443l436 443z" />
    <glyph glyph-name="Oslash" unicode="&#xd8;" horiz-adv-x="1853" 
d="M905 -20q-313 0 -528 192l-182 -192l-70 53l190 200q-96 107 -147 245t-51 290q0 192 65 352.5t177 269t264.5 168.5t326.5 60q295 0 504 -174l164 174l76 -55l-172 -181q104 -109 160.5 -252.5t56.5 -300.5q0 -191 -65 -352t-177.5 -269t-265 -168t-326.5 -60zM977 102
q138 0 251 50.5t187 138t114 203.5t40 249q0 318 -162 519l-920 -973q184 -187 490 -187zM287 854q0 -300 143 -498l916 973q-184 166 -467 166q-138 0 -251 -50.5t-187 -138t-114 -203.5t-40 -249z" />
    <glyph glyph-name="Ugrave" unicode="&#xd9;" horiz-adv-x="1794" 
d="M610 2109h201l172 -426h-68zM440 1360v-776q0 -235 124.5 -360.5t334.5 -125.5q256 0 386 123.5t130 368.5v770q0 52 -15.5 85.5t-50 51t-74 24t-104.5 9.5v67h603v-67q-51 -2 -85.5 -6t-68.5 -15t-53 -29t-31 -48t-12 -72v-817q0 -135 -50 -243t-136 -177.5t-198.5 -106
t-240.5 -36.5q-189 0 -327.5 61t-218 190t-79.5 316v813q0 52 -17 85.5t-53.5 51t-77.5 24t-106 9.5v67h674v-67q-65 -3 -106 -9.5t-77.5 -24t-53.5 -51t-17 -85.5z" />
    <glyph glyph-name="Uacute" unicode="&#xda;" horiz-adv-x="1794" 
d="M1057 2109h207l-306 -426h-67zM440 1360v-776q0 -235 124.5 -360.5t334.5 -125.5q256 0 386 123.5t130 368.5v770q0 52 -15.5 85.5t-50 51t-74 24t-104.5 9.5v67h603v-67q-51 -2 -85.5 -6t-68.5 -15t-53 -29t-31 -48t-12 -72v-817q0 -135 -50 -243t-136 -177.5
t-198.5 -106t-240.5 -36.5q-189 0 -327.5 61t-218 190t-79.5 316v813q0 52 -17 85.5t-53.5 51t-77.5 24t-106 9.5v67h674v-67q-65 -3 -106 -9.5t-77.5 -24t-53.5 -51t-17 -85.5z" />
    <glyph glyph-name="Ucircumflex" unicode="&#xdb;" horiz-adv-x="1794" 
d="M440 1360v-776q0 -235 124.5 -360.5t334.5 -125.5q256 0 386 123.5t130 368.5v770q0 52 -15.5 85.5t-50 51t-74 24t-104.5 9.5v67h603v-67q-51 -2 -85.5 -6t-68.5 -15t-53 -29t-31 -48t-12 -72v-817q0 -135 -50 -243t-136 -177.5t-198.5 -106t-240.5 -36.5
q-189 0 -327.5 61t-218 190t-79.5 316v813q0 52 -17 85.5t-53.5 51t-77.5 24t-106 9.5v67h674v-67q-65 -3 -106 -9.5t-77.5 -24t-53.5 -51t-17 -85.5zM993 2109l303 -426h-69l-291 275l-291 -275h-70l304 426h114z" />
    <glyph glyph-name="Udieresis" unicode="&#xdc;" horiz-adv-x="1794" 
d="M610 1862q0 47 34 81.5t81 34.5t82 -34.5t35 -81.5t-35 -81t-82 -34t-81 34t-34 81zM1018 1862q0 47 34 81.5t81 34.5t81.5 -34.5t34.5 -81.5t-34.5 -81t-81.5 -34t-81 34t-34 81zM440 1360v-776q0 -235 124.5 -360.5t334.5 -125.5q256 0 386 123.5t130 368.5v770
q0 52 -15.5 85.5t-50 51t-74 24t-104.5 9.5v67h603v-67q-51 -2 -85.5 -6t-68.5 -15t-53 -29t-31 -48t-12 -72v-817q0 -135 -50 -243t-136 -177.5t-198.5 -106t-240.5 -36.5q-189 0 -327.5 61t-218 190t-79.5 316v813q0 52 -17 85.5t-53.5 51t-77.5 24t-106 9.5v67h674v-67
q-65 -3 -106 -9.5t-77.5 -24t-53.5 -51t-17 -85.5z" />
    <glyph glyph-name="Yacute" unicode="&#xdd;" horiz-adv-x="1507" 
d="M793 766l370 577q35 52 35 97q0 47 -44 66.5t-173 23.5v67h506v-67q-53 -8 -85.5 -25.5t-58.5 -58.5l-503 -772v-436q0 -52 15.5 -85.5t50.5 -51t74.5 -24t104.5 -9.5v-68h-653v68q65 3 104.5 9.5t75 24t51 51t15.5 85.5v428l-514 780q-26 41 -58.5 58.5t-85.5 25.5v67
h574v-67q-126 -4 -172.5 -24.5t-46.5 -67.5q0 -37 28 -84zM907 2109h207l-305 -426h-68z" />
    <glyph glyph-name="Thorn" unicode="&#xde;" horiz-adv-x="1492" 
d="M514 1188v-744h293q228 0 329 87t101 282q0 375 -426 375h-297zM514 1360v-82h320q128 0 231.5 -26t170.5 -69t112 -102.5t64.5 -122.5t19.5 -133q0 -96 -32.5 -180t-97.5 -151t-172.5 -105.5t-246.5 -38.5h-369v-112q0 -35 9.5 -61.5t31 -44t45.5 -29t63.5 -18.5
t73.5 -10.5t86 -6.5v-68h-729v68q65 3 106 9.5t77.5 24t53.5 51t17 85.5v1122q0 52 -17 85.5t-53.5 51t-77.5 24t-106 9.5v67h674v-67q-65 -3 -106 -9.5t-77.5 -24t-53.5 -51t-17 -85.5z" />
    <glyph glyph-name="germandbls" unicode="&#xdf;" horiz-adv-x="1425" 
d="M449 0h-330v59q36 5 55 8t46 11t40 19.5t23 31.5t10 47v797h-158v57l158 62v67q0 229 117 366.5t342 137.5q179 0 282 -93t103 -243q0 -137 -84 -249.5t-230 -172.5q93 -31 179.5 -79.5t163 -114.5t123 -154.5t46.5 -185.5q0 -179 -100 -285t-291 -106q-158 0 -250 63
t-92 158q0 32 16.5 62t45.5 44h110v-47q0 -92 46 -147.5t145 -55.5q112 0 172.5 67.5t60.5 199.5q0 90 -47.5 171t-131.5 145t-178.5 113t-209.5 91v45q104 37 173.5 80.5t106.5 93.5t51.5 101t14.5 116q0 139 -73 217t-208 78q-126 0 -186.5 -93.5t-60.5 -254.5v-1227z" />
    <glyph glyph-name="agrave" unicode="&#xe0;" horiz-adv-x="1243" 
d="M489 88q92 0 168 42.5t170 125.5v309l-401 -123q-129 -41 -129 -161q0 -94 52 -143.5t140 -49.5zM983 719v-488q0 -68 26.5 -105.5t77.5 -37.5q45 0 91 18l20 -38q-94 -88 -186 -88q-75 0 -124.5 53.5t-53.5 146.5q-30 -33 -51 -54.5t-60.5 -52.5t-77 -49.5t-91.5 -32.5
t-112 -14q-151 0 -233 78.5t-82 198.5q0 32 6 59.5t13.5 49t24 41t29.5 32.5t38 26.5t41 21.5t47 18.5t47 15t51 14.5l403 117v49q0 61 -16.5 113.5t-49.5 95t-88.5 66.5t-127.5 24q-97 0 -145 -39t-48 -124q0 -42 13 -82l-136 -15q-20 13 -31.5 41.5t-11.5 57.5
q0 115 115 185.5t283 70.5q187 0 293 -92t106 -281zM244 1638h200l172 -426h-67z" />
    <glyph glyph-name="aacute" unicode="&#xe1;" horiz-adv-x="1243" 
d="M489 88q92 0 168 42.5t170 125.5v309l-401 -123q-129 -41 -129 -161q0 -94 52 -143.5t140 -49.5zM983 719v-488q0 -68 26.5 -105.5t77.5 -37.5q45 0 91 18l20 -38q-94 -88 -186 -88q-75 0 -124.5 53.5t-53.5 146.5q-30 -33 -51 -54.5t-60.5 -52.5t-77 -49.5t-91.5 -32.5
t-112 -14q-151 0 -233 78.5t-82 198.5q0 32 6 59.5t13.5 49t24 41t29.5 32.5t38 26.5t41 21.5t47 18.5t47 15t51 14.5l403 117v49q0 61 -16.5 113.5t-49.5 95t-88.5 66.5t-127.5 24q-97 0 -145 -39t-48 -124q0 -42 13 -82l-136 -15q-20 13 -31.5 41.5t-11.5 57.5
q0 115 115 185.5t283 70.5q187 0 293 -92t106 -281zM705 1638h206l-305 -426h-67z" />
    <glyph glyph-name="acircumflex" unicode="&#xe2;" horiz-adv-x="1243" 
d="M489 88q92 0 168 42.5t170 125.5v309l-401 -123q-129 -41 -129 -161q0 -94 52 -143.5t140 -49.5zM983 719v-488q0 -68 26.5 -105.5t77.5 -37.5q45 0 91 18l20 -38q-94 -88 -186 -88q-75 0 -124.5 53.5t-53.5 146.5q-30 -33 -51 -54.5t-60.5 -52.5t-77 -49.5t-91.5 -32.5
t-112 -14q-151 0 -233 78.5t-82 198.5q0 32 6 59.5t13.5 49t24 41t29.5 32.5t38 26.5t41 21.5t47 18.5t47 15t51 14.5l403 117v49q0 61 -16.5 113.5t-49.5 95t-88.5 66.5t-127.5 24q-97 0 -145 -39t-48 -124q0 -42 13 -82l-136 -15q-20 13 -31.5 41.5t-11.5 57.5
q0 115 115 185.5t283 70.5q187 0 293 -92t106 -281zM629 1638l303 -426h-70l-291 275l-290 -275h-70l303 426h115z" />
    <glyph glyph-name="atilde" unicode="&#xe3;" horiz-adv-x="1243" 
d="M489 88q92 0 168 42.5t170 125.5v309l-401 -123q-129 -41 -129 -161q0 -94 52 -143.5t140 -49.5zM983 719v-488q0 -68 26.5 -105.5t77.5 -37.5q45 0 91 18l20 -38q-94 -88 -186 -88q-75 0 -124.5 53.5t-53.5 146.5q-30 -33 -51 -54.5t-60.5 -52.5t-77 -49.5t-91.5 -32.5
t-112 -14q-151 0 -233 78.5t-82 198.5q0 32 6 59.5t13.5 49t24 41t29.5 32.5t38 26.5t41 21.5t47 18.5t47 15t51 14.5l403 117v49q0 61 -16.5 113.5t-49.5 95t-88.5 66.5t-127.5 24q-97 0 -145 -39t-48 -124q0 -42 13 -82l-136 -15q-20 13 -31.5 41.5t-11.5 57.5
q0 115 115 185.5t283 70.5q187 0 293 -92t106 -281zM735 1249q-45 0 -92.5 19t-80.5 41.5t-72.5 41.5t-69.5 19q-54 0 -81 -19.5t-63 -86.5l-67 10q79 215 254 215q45 0 92.5 -19t80.5 -42.5t72.5 -42.5t69.5 -19q53 0 80.5 20t63.5 87l67 -9q-78 -215 -254 -215z" />
    <glyph glyph-name="adieresis" unicode="&#xe4;" horiz-adv-x="1243" 
d="M489 88q92 0 168 42.5t170 125.5v309l-401 -123q-129 -41 -129 -161q0 -94 52 -143.5t140 -49.5zM983 719v-488q0 -68 26.5 -105.5t77.5 -37.5q45 0 91 18l20 -38q-94 -88 -186 -88q-75 0 -124.5 53.5t-53.5 146.5q-30 -33 -51 -54.5t-60.5 -52.5t-77 -49.5t-91.5 -32.5
t-112 -14q-151 0 -233 78.5t-82 198.5q0 32 6 59.5t13.5 49t24 41t29.5 32.5t38 26.5t41 21.5t47 18.5t47 15t51 14.5l403 117v49q0 61 -16.5 113.5t-49.5 95t-88.5 66.5t-127.5 24q-97 0 -145 -39t-48 -124q0 -42 13 -82l-136 -15q-20 13 -31.5 41.5t-11.5 57.5
q0 115 115 185.5t283 70.5q187 0 293 -92t106 -281zM254 1415q0 47 34 82t81 35t81.5 -35t34.5 -82t-34.5 -81t-81.5 -34t-81 34t-34 81zM662 1415q0 48 33.5 82.5t80.5 34.5t82 -35t35 -82t-35 -81t-82 -34t-80.5 34t-33.5 81z" />
    <glyph glyph-name="aring" unicode="&#xe5;" horiz-adv-x="1243" 
d="M489 88q92 0 168 42.5t170 125.5v309l-401 -123q-129 -41 -129 -161q0 -94 52 -143.5t140 -49.5zM983 719v-488q0 -68 26.5 -105.5t77.5 -37.5q45 0 91 18l20 -38q-94 -88 -186 -88q-75 0 -124.5 53.5t-53.5 146.5q-30 -33 -51 -54.5t-60.5 -52.5t-77 -49.5t-91.5 -32.5
t-112 -14q-151 0 -233 78.5t-82 198.5q0 32 6 59.5t13.5 49t24 41t29.5 32.5t38 26.5t41 21.5t47 18.5t47 15t51 14.5l403 117v49q0 61 -16.5 113.5t-49.5 95t-88.5 66.5t-127.5 24q-97 0 -145 -39t-48 -124q0 -42 13 -82l-136 -15q-20 13 -31.5 41.5t-11.5 57.5
q0 115 115 185.5t283 70.5q187 0 293 -92t106 -281zM342 1419q0 99 64 166.5t165 67.5t165.5 -67.5t64.5 -166.5q0 -98 -64.5 -165.5t-165.5 -67.5t-165 67t-64 166zM702 1419q0 68 -33 111t-98 43q-64 0 -96.5 -42.5t-32.5 -111.5q0 -67 32.5 -109t96.5 -42q65 0 98 42
t33 109z" />
    <glyph glyph-name="ae" unicode="&#xe6;" horiz-adv-x="1886" 
d="M1354 1092q213 0 328.5 -119t115.5 -309v-58l-827 -88q13 -188 126.5 -297.5t291.5 -109.5q125 0 206.5 45t155.5 139l51 -19q-47 -131 -159.5 -213.5t-292.5 -82.5q-155 0 -270 64t-181 175q-83 -103 -202 -172.5t-255 -69.5q-151 0 -233 78.5t-82 198.5q0 264 346 297
l354 35v112q0 61 -16.5 113.5t-49.5 95t-88.5 66.5t-127.5 24q-97 0 -145 -39t-48 -124q0 -42 13 -82l-136 -15q-20 13 -31.5 41.5t-11.5 57.5q0 115 115 185.5t283 70.5q279 0 364 -195q70 93 174 144t232 51zM1313 987q-136 0 -235 -100.5t-109 -286.5l659 66
q4 152 -78.5 236.5t-236.5 84.5zM489 88q195 0 375 205q-37 93 -37 207v4l-352 -37q-91 -10 -134.5 -62t-43.5 -124q0 -94 52 -143.5t140 -49.5z" />
    <glyph glyph-name="ccedilla" unicode="&#xe7;" horiz-adv-x="1126" 
d="M231 569q0 -202 108 -330t304 -128q126 0 203 44t151 140l54 -19q-47 -131 -158.5 -213.5t-288.5 -82.5h-2l-12 -66q113 -33 175 -83.5t62 -135.5q0 -90 -73 -148.5t-181 -58.5q-105 0 -178 47l17 55q60 -22 145 -22q71 0 113.5 29.5t42.5 78.5q0 56 -52 88.5t-147 51.5
l37 166q-146 12 -252.5 88t-158.5 190t-52 250q0 265 156.5 423.5t410.5 158.5q174 0 270.5 -70.5t96.5 -177.5q0 -42 -18.5 -74t-49.5 -47h-82v41q0 113 -69.5 171t-202.5 58q-158 0 -263.5 -116.5t-105.5 -307.5z" />
    <glyph glyph-name="egrave" unicode="&#xe8;" horiz-adv-x="1144" 
d="M614 1092q213 0 329 -119t116 -309v-50h-828q-15 -227 101.5 -365t316.5 -138q125 0 207 45t156 139l51 -19q-47 -131 -160 -213.5t-293 -82.5q-124 0 -224.5 43t-164.5 115.5t-98.5 165.5t-34.5 196q0 262 145.5 427t380.5 165zM573 987q-124 0 -212 -78.5t-115 -206.5
h643q0 126 -83.5 205.5t-232.5 79.5zM281 1638h200l172 -426h-67z" />
    <glyph glyph-name="eacute" unicode="&#xe9;" horiz-adv-x="1144" 
d="M741 1638h207l-305 -426h-68zM614 1092q213 0 329 -119t116 -309v-50h-828q-15 -227 101.5 -365t316.5 -138q125 0 207 45t156 139l51 -19q-47 -131 -160 -213.5t-293 -82.5q-124 0 -224.5 43t-164.5 115.5t-98.5 165.5t-34.5 196q0 262 145.5 427t380.5 165zM573 987
q-124 0 -212 -78.5t-115 -206.5h643q0 126 -83.5 205.5t-232.5 79.5z" />
    <glyph glyph-name="ecircumflex" unicode="&#xea;" horiz-adv-x="1144" 
d="M668 1638l303 -426h-70l-291 275l-291 -275h-69l303 426h115zM614 1092q213 0 329 -119t116 -309v-50h-828q-15 -227 101.5 -365t316.5 -138q125 0 207 45t156 139l51 -19q-47 -131 -160 -213.5t-293 -82.5q-124 0 -224.5 43t-164.5 115.5t-98.5 165.5t-34.5 196
q0 262 145.5 427t380.5 165zM573 987q-124 0 -212 -78.5t-115 -206.5h643q0 126 -83.5 205.5t-232.5 79.5z" />
    <glyph glyph-name="edieresis" unicode="&#xeb;" horiz-adv-x="1144" 
d="M285 1415q0 48 33.5 82.5t80.5 34.5t82 -35t35 -82t-35 -81t-82 -34t-80.5 34t-33.5 81zM692 1415q0 47 34 82t81 35t82 -35t35 -82t-35 -81t-82 -34t-81 34t-34 81zM614 1092q213 0 329 -119t116 -309v-50h-828q-15 -227 101.5 -365t316.5 -138q125 0 207 45t156 139
l51 -19q-47 -131 -160 -213.5t-293 -82.5q-124 0 -224.5 43t-164.5 115.5t-98.5 165.5t-34.5 196q0 262 145.5 427t380.5 165zM573 987q-124 0 -212 -78.5t-115 -206.5h643q0 126 -83.5 205.5t-232.5 79.5z" />
    <glyph glyph-name="igrave" unicode="&#xec;" horiz-adv-x="712" 
d="M451 868v-692q0 -27 10 -47t23 -31.5t40 -19.5t46 -11t55 -8v-59h-504v59q36 5 55 8t46 11t40 19.5t23 31.5t10 47v719l-164 53v41l262 98h68zM45 1638h201l172 -426h-68z" />
    <glyph glyph-name="iacute" unicode="&#xed;" horiz-adv-x="712" 
d="M506 1638h207l-305 -426h-68zM451 868v-692q0 -27 10 -47t23 -31.5t40 -19.5t46 -11t55 -8v-59h-504v59q36 5 55 8t46 11t40 19.5t23 31.5t10 47v719l-164 53v41l262 98h68z" />
    <glyph glyph-name="icircumflex" unicode="&#xee;" horiz-adv-x="712" 
d="M430 1638l303 -426h-69l-291 275l-291 -275h-70l303 426h115zM451 868v-692q0 -27 10 -47t23 -31.5t40 -19.5t46 -11t55 -8v-59h-504v59q36 5 55 8t46 11t40 19.5t23 31.5t10 47v719l-164 53v41l262 98h68z" />
    <glyph glyph-name="idieresis" unicode="&#xef;" horiz-adv-x="712" 
d="M47 1415q0 47 34 82t81 35t82 -35t35 -82t-35 -81t-82 -34t-81 34t-34 81zM455 1415q0 48 33.5 82.5t80.5 34.5t82 -35t35 -82t-35 -81t-82 -34t-80.5 34t-33.5 81zM451 868v-692q0 -27 10 -47t23 -31.5t40 -19.5t46 -11t55 -8v-59h-504v59q36 5 55 8t46 11t40 19.5
t23 31.5t10 47v719l-164 53v41l262 98h68z" />
    <glyph glyph-name="eth" unicode="&#xf0;" horiz-adv-x="1265" 
d="M420 1180l-35 73l285 133q-155 149 -332 232v14l86 33q199 -80 364 -223l201 94l35 -72l-172 -82q153 -155 239.5 -355.5t86.5 -430.5q0 -145 -41.5 -262.5t-115.5 -194.5t-175.5 -118t-222.5 -41q-161 0 -285 75.5t-187 196t-63 262.5q0 172 78 305.5t205 203t278 69.5
q176 0 303 -105q-67 176 -221 340zM252 571q0 -229 112 -356t316 -127q166 0 259 118t93 294q0 229 -112 356t-316 127q-166 0 -259 -118t-93 -294z" />
    <glyph glyph-name="ntilde" unicode="&#xf1;" horiz-adv-x="1458" 
d="M1059 176v557q0 121 -61.5 174.5t-176.5 53.5q-90 0 -193 -47t-177 -115v-623q0 -27 10 -47t23 -31.5t40 -19.5t46 -11t55 -8v-59h-504v59q36 5 55 8t46 11t40 19.5t23 31.5t10 47v719l-164 53v41l262 98h68l-10 -206q79 86 190.5 148.5t230.5 62.5q159 0 250.5 -81
t91.5 -255v-580q0 -27 10 -47t23.5 -31t40.5 -19.5t45.5 -11.5t55.5 -8v-59h-504v59q36 5 55 8t46 11t40 19.5t23 31.5t10 47zM893 1249q-45 0 -92.5 19t-80.5 41.5t-72.5 41.5t-69.5 19q-54 0 -81 -19.5t-63 -86.5l-67 10q79 215 254 215q45 0 92.5 -19t80.5 -42.5
t72.5 -42.5t69.5 -19q53 0 79.5 20t63.5 87l68 -9q-78 -215 -254 -215z" />
    <glyph glyph-name="ograve" unicode="&#xf2;" horiz-adv-x="1271" 
d="M672 88q111 0 191 57t118.5 149t38.5 206q0 229 -110.5 356t-309.5 127q-111 0 -191 -57t-118.5 -149t-38.5 -206q0 -229 110.5 -356t309.5 -127zM618 -20q-234 0 -382 149.5t-148 384.5q0 129 47 239t125 183.5t180 114.5t213 41q234 0 382.5 -150t148.5 -385
q0 -129 -47 -239t-125.5 -183t-180.5 -114t-213 -41zM313 1638h201l172 -426h-68z" />
    <glyph glyph-name="oacute" unicode="&#xf3;" horiz-adv-x="1271" 
d="M774 1638h207l-305 -426h-68zM672 88q111 0 191 57t118.5 149t38.5 206q0 229 -110.5 356t-309.5 127q-111 0 -191 -57t-118.5 -149t-38.5 -206q0 -229 110.5 -356t309.5 -127zM618 -20q-234 0 -382 149.5t-148 384.5q0 129 47 239t125 183.5t180 114.5t213 41
q234 0 382.5 -150t148.5 -385q0 -129 -47 -239t-125.5 -183t-180.5 -114t-213 -41z" />
    <glyph glyph-name="ocircumflex" unicode="&#xf4;" horiz-adv-x="1271" 
d="M700 1638l304 -426h-70l-291 275l-291 -275h-69l303 426h114zM672 88q111 0 191 57t118.5 149t38.5 206q0 229 -110.5 356t-309.5 127q-111 0 -191 -57t-118.5 -149t-38.5 -206q0 -229 110.5 -356t309.5 -127zM618 -20q-234 0 -382 149.5t-148 384.5q0 129 47 239
t125 183.5t180 114.5t213 41q234 0 382.5 -150t148.5 -385q0 -129 -47 -239t-125.5 -183t-180.5 -114t-213 -41z" />
    <glyph glyph-name="otilde" unicode="&#xf5;" horiz-adv-x="1271" 
d="M672 88q111 0 191 57t118.5 149t38.5 206q0 229 -110.5 356t-309.5 127q-111 0 -191 -57t-118.5 -149t-38.5 -206q0 -229 110.5 -356t309.5 -127zM618 -20q-234 0 -382 149.5t-148 384.5q0 129 47 239t125 183.5t180 114.5t213 41q234 0 382.5 -150t148.5 -385
q0 -129 -47 -239t-125.5 -183t-180.5 -114t-213 -41zM780 1249q-45 0 -92.5 19t-80.5 41.5t-72.5 41.5t-69.5 19q-54 0 -80.5 -19t-62.5 -87l-68 10q79 215 254 215q45 0 92.5 -19t80.5 -42.5t72.5 -42.5t69.5 -19q53 0 80.5 20t63.5 87l67 -9q-78 -215 -254 -215z" />
    <glyph glyph-name="odieresis" unicode="&#xf6;" horiz-adv-x="1271" 
d="M317 1415q0 47 34 82t81 35t82 -35t35 -82t-35 -81t-82 -34t-81 34t-34 81zM725 1415q0 47 34 82t81 35t81.5 -35t34.5 -82t-34.5 -81t-81.5 -34t-81 34t-34 81zM672 88q111 0 191 57t118.5 149t38.5 206q0 229 -110.5 356t-309.5 127q-111 0 -191 -57t-118.5 -149
t-38.5 -206q0 -229 110.5 -356t309.5 -127zM618 -20q-234 0 -382 149.5t-148 384.5q0 129 47 239t125 183.5t180 114.5t213 41q234 0 382.5 -150t148.5 -385q0 -129 -47 -239t-125.5 -183t-180.5 -114t-213 -41z" />
    <glyph glyph-name="divide" unicode="&#xf7;" 
d="M1270 532h-1106v105h1106v-105zM600 1038q0 47 35 81t84 34q50 0 85.5 -34t35.5 -81q0 -46 -36 -80t-85 -34t-84 34t-35 80zM600 131q0 46 35 80.5t84 34.5t85 -34.5t36 -80.5q0 -47 -35.5 -81t-85.5 -34q-49 0 -84 34t-35 81z" />
    <glyph glyph-name="oslash" unicode="&#xf8;" horiz-adv-x="1271" 
d="M618 -20q-176 0 -303 83l-108 -131l-66 56l107 129q-76 72 -118 174t-42 223q0 129 47 239t125 183.5t180 114.5t213 41q182 0 322 -99l115 137l71 -55l-119 -141q142 -148 142 -377q0 -129 -47 -239t-125.5 -183t-180.5 -114t-213 -41zM252 571q0 -212 94 -338l537 650
q-106 100 -283 100q-111 0 -191 -57t-118.5 -149t-38.5 -206zM672 88q111 0 191 57t118.5 149t38.5 206q0 191 -78 313l-536 -641q107 -84 266 -84z" />
    <glyph glyph-name="ugrave" unicode="&#xf9;" horiz-adv-x="1372" 
d="M944 -20l10 206q-40 -44 -74.5 -75t-83.5 -64t-107.5 -50t-123.5 -17q-154 0 -246 82.5t-92 259.5v579q0 55 -30 72.5t-121 27.5l-37 3v67l309 21h45l-10 -218v-536q0 -121 62.5 -180.5t168.5 -59.5q91 0 171.5 46.5t168.5 127.5v629q0 55 -30 72.5t-121 27.5l-39 3v67
l311 21h45l-10 -218v-663q0 -50 22.5 -63.5t106.5 -24.5l57 -8v-62l-335 -73h-17zM326 1638h200l172 -426h-67z" />
    <glyph glyph-name="uacute" unicode="&#xfa;" horiz-adv-x="1372" 
d="M799 1638h207l-306 -426h-67zM944 -20l10 206q-40 -44 -74.5 -75t-83.5 -64t-107.5 -50t-123.5 -17q-154 0 -246 82.5t-92 259.5v579q0 55 -30 72.5t-121 27.5l-37 3v67l309 21h45l-10 -218v-536q0 -121 62.5 -180.5t168.5 -59.5q91 0 171.5 46.5t168.5 127.5v629
q0 55 -30 72.5t-121 27.5l-39 3v67l311 21h45l-10 -218v-663q0 -50 22.5 -63.5t106.5 -24.5l57 -8v-62l-335 -73h-17z" />
    <glyph glyph-name="ucircumflex" unicode="&#xfb;" horiz-adv-x="1372" 
d="M725 1638l303 -426h-70l-290 275l-291 -275h-70l303 426h115zM944 -20l10 206q-40 -44 -74.5 -75t-83.5 -64t-107.5 -50t-123.5 -17q-154 0 -246 82.5t-92 259.5v579q0 55 -30 72.5t-121 27.5l-37 3v67l309 21h45l-10 -218v-536q0 -121 62.5 -180.5t168.5 -59.5
q91 0 171.5 46.5t168.5 127.5v629q0 55 -30 72.5t-121 27.5l-39 3v67l311 21h45l-10 -218v-663q0 -50 22.5 -63.5t106.5 -24.5l57 -8v-62l-335 -73h-17z" />
    <glyph glyph-name="udieresis" unicode="&#xfc;" horiz-adv-x="1372" 
d="M342 1415q0 47 34 82t81 35t81.5 -35t34.5 -82t-34.5 -81t-81.5 -34t-81 34t-34 81zM750 1415q0 48 33.5 82.5t80.5 34.5t82 -35t35 -82t-35 -81t-82 -34t-80.5 34t-33.5 81zM944 -20l10 206q-40 -44 -74.5 -75t-83.5 -64t-107.5 -50t-123.5 -17q-154 0 -246 82.5
t-92 259.5v579q0 55 -30 72.5t-121 27.5l-37 3v67l309 21h45l-10 -218v-536q0 -121 62.5 -180.5t168.5 -59.5q91 0 171.5 46.5t168.5 127.5v629q0 55 -30 72.5t-121 27.5l-39 3v67l311 21h45l-10 -218v-663q0 -50 22.5 -63.5t106.5 -24.5l57 -8v-62l-335 -73h-17z" />
    <glyph glyph-name="yacute" unicode="&#xfd;" horiz-adv-x="1206" 
d="M580 -2l-428 924q-17 35 -36 48t-96 42v59h461v-59q-89 -11 -122 -25t-33 -49q0 -24 14 -55l315 -711l275 711q14 38 14 55q0 35 -33.5 49t-122.5 25v59h398v-59q-78 -29 -97.5 -42t-33.5 -48l-475 -1186q-57 -142 -126.5 -196t-156.5 -54q-52 0 -92.5 20.5t-54.5 51.5
v90h129q86 0 139 35t88 127zM729 1638h207l-305 -426h-68z" />
    <glyph glyph-name="thorn" unicode="&#xfe;" horiz-adv-x="1300" 
d="M334 57v-372q0 -27 10 -47t23 -31.5t40 -19.5t46 -11t55 -8v-60h-504v60q36 5 55 8t46 11t40 19.5t23 31.5t10 47v1792l-164 32v39l260 111h70l-10 -176v-592q68 90 170.5 145.5t220.5 55.5q113 0 206.5 -40t154 -108t93.5 -157t33 -189q0 -140 -48 -258t-129 -196
t-187 -121t-223 -43q-187 0 -291 77zM645 78q186 0 297 115.5t111 324.5q0 199 -98 324t-285 125q-100 0 -186.5 -44t-149.5 -116v-475q0 -62 18 -108t46.5 -73.5t71 -44t84 -22.5t91.5 -6z" />
    <glyph glyph-name="ydieresis" unicode="&#xff;" horiz-adv-x="1206" 
d="M580 -2l-428 924q-17 35 -36 48t-96 42v59h461v-59q-89 -11 -122 -25t-33 -49q0 -24 14 -55l315 -711l275 711q14 38 14 55q0 35 -33.5 49t-122.5 25v59h398v-59q-78 -29 -97.5 -42t-33.5 -48l-475 -1186q-57 -142 -126.5 -196t-156.5 -54q-52 0 -92.5 20.5t-54.5 51.5
v90h129q86 0 139 35t88 127zM270 1415q0 47 34 82t81 35t82 -35t35 -82t-35 -81t-82 -34t-81 34t-34 81zM678 1415q0 47 34 82t81 35t81.5 -35t34.5 -82t-34.5 -81t-81.5 -34t-81 34t-34 81z" />
    <glyph glyph-name="Amacron" unicode="&#x100;" horiz-adv-x="1675" 
d="M1282 258l-119 274h-723l-114 -272q-25 -62 -25 -92q0 -52 53 -73.5t181 -26.5v-68h-515v68q58 9 92 25.5t52 58.5l577 1341l-61 131h194l637 -1472q18 -42 52 -58.5t92 -25.5v-68h-580v68q129 5 180.5 25.5t51.5 72.5q0 30 -25 92zM801 1382l-322 -757h645zM532 1802
v107h541v-107h-541z" />
    <glyph glyph-name="amacron" unicode="&#x101;" horiz-adv-x="1243" 
d="M489 88q92 0 168 42.5t170 125.5v309l-401 -123q-129 -41 -129 -161q0 -94 52 -143.5t140 -49.5zM983 719v-488q0 -68 26.5 -105.5t77.5 -37.5q45 0 91 18l20 -38q-94 -88 -186 -88q-75 0 -124.5 53.5t-53.5 146.5q-30 -33 -51 -54.5t-60.5 -52.5t-77 -49.5t-91.5 -32.5
t-112 -14q-151 0 -233 78.5t-82 198.5q0 32 6 59.5t13.5 49t24 41t29.5 32.5t38 26.5t41 21.5t47 18.5t47 15t51 14.5l403 117v49q0 61 -16.5 113.5t-49.5 95t-88.5 66.5t-127.5 24q-97 0 -145 -39t-48 -124q0 -42 13 -82l-136 -15q-20 13 -31.5 41.5t-11.5 57.5
q0 115 115 185.5t283 70.5q187 0 293 -92t106 -281zM301 1335v107h541v-107h-541z" />
    <glyph glyph-name="Abreve" unicode="&#x102;" horiz-adv-x="1675" 
d="M1282 258l-119 274h-723l-114 -272q-25 -62 -25 -92q0 -52 53 -73.5t181 -26.5v-68h-515v68q58 9 92 25.5t52 58.5l577 1341l-61 131h194l637 -1472q18 -42 52 -58.5t92 -25.5v-68h-580v68q129 5 180.5 25.5t51.5 72.5q0 30 -25 92zM801 1382l-322 -757h645zM803 1706
q-185 0 -269.5 104t-84.5 304h73q18 -151 94 -219t187 -68t186.5 68t93.5 219h74q0 -200 -84.5 -304t-269.5 -104z" />
    <glyph glyph-name="abreve" unicode="&#x103;" horiz-adv-x="1243" 
d="M489 88q92 0 168 42.5t170 125.5v309l-401 -123q-129 -41 -129 -161q0 -94 52 -143.5t140 -49.5zM983 719v-488q0 -68 26.5 -105.5t77.5 -37.5q45 0 91 18l20 -38q-94 -88 -186 -88q-75 0 -124.5 53.5t-53.5 146.5q-30 -33 -51 -54.5t-60.5 -52.5t-77 -49.5t-91.5 -32.5
t-112 -14q-151 0 -233 78.5t-82 198.5q0 32 6 59.5t13.5 49t24 41t29.5 32.5t38 26.5t41 21.5t47 18.5t47 15t51 14.5l403 117v49q0 61 -16.5 113.5t-49.5 95t-88.5 66.5t-127.5 24q-97 0 -145 -39t-48 -124q0 -42 13 -82l-136 -15q-20 13 -31.5 41.5t-11.5 57.5
q0 115 115 185.5t283 70.5q187 0 293 -92t106 -281zM571 1231q-185 0 -269.5 103.5t-84.5 303.5h74q18 -151 93.5 -218.5t186.5 -67.5q112 0 187.5 67.5t93.5 218.5h74q0 -200 -85 -303.5t-270 -103.5z" />
    <glyph glyph-name="Aogonek" unicode="&#x104;" horiz-adv-x="1675" 
d="M1499 0h-424v68q129 5 180.5 25.5t51.5 72.5q0 30 -25 92l-119 274h-723l-114 -272q-25 -62 -25 -92q0 -52 53 -73.5t181 -26.5v-68h-515v68q58 9 92 25.5t52 58.5l577 1341l-61 131h194l637 -1472q18 -42 52 -58.5t92 -25.5v-68q-115 -35 -188.5 -100t-73.5 -164
q0 -70 44 -111t119 -41q62 0 134 31l22 -45q-82 -82 -211 -82q-102 0 -168.5 56.5t-66.5 172.5q0 95 63 166t170 117zM801 1382l-322 -757h645z" />
    <glyph glyph-name="aogonek" unicode="&#x105;" horiz-adv-x="1243" 
d="M492 88q92 0 166 42t169 126v309l-399 -123q-129 -41 -129 -161q0 -94 52.5 -143.5t140.5 -49.5zM977 -12q-55 17 -97.5 68t-45.5 124q-30 -33 -51 -54.5t-60.5 -52.5t-77 -49.5t-91.5 -32.5t-112 -14q-151 0 -233 78.5t-82 198.5q0 32 6 59.5t13.5 49t24 41t29.5 32.5
t38 26.5t41 21.5t47 18.5t47 15t51 14.5l403 117v49q0 61 -16.5 113.5t-49.5 95t-88.5 66.5t-127.5 24q-205 0 -205 -163q0 -45 12 -82l-135 -15q-20 13 -31.5 41.5t-11.5 57.5q0 76 57.5 135.5t150 90t202.5 30.5q187 0 293 -92t106 -281v-488q0 -68 26.5 -105.5
t77.5 -37.5q45 0 91 18l20 -38q-12 -9 -45.5 -33t-51 -37.5t-46.5 -38.5t-45 -46.5t-33 -50t-25 -61.5t-8 -69q0 -71 41 -114.5t100 -43.5q91 0 156 41l23 -43q-87 -84 -215 -84q-44 0 -83 11.5t-73.5 36t-55 69.5t-20.5 106q0 81 43 145t117 132z" />
    <glyph glyph-name="Cacute" unicode="&#x106;" horiz-adv-x="1675" 
d="M995 76q117 0 203 23.5t151 76t112 122.5t95 177h50l-47 -377q-262 -118 -584 -118q-164 0 -304 41.5t-241 115t-173 172.5t-107 215.5t-35 243.5q0 192 66 352.5t180 269t269 168.5t333 60q338 0 559 -127l14 -336h-45q-70 188 -201.5 270t-333.5 82
q-320 0 -494.5 -184.5t-174.5 -503.5q0 -110 29 -216.5t89 -201.5t143 -167.5t198.5 -115t248.5 -42.5zM1073 2109h207l-305 -426h-68z" />
    <glyph glyph-name="cacute" unicode="&#x107;" horiz-adv-x="1126" 
d="M731 1638h207l-305 -426h-68zM231 569q0 -202 108 -330t304 -128q126 0 203 44t151 140l54 -19q-47 -131 -158.5 -213.5t-288.5 -82.5q-122 0 -221.5 43t-163 116t-97.5 168.5t-34 202.5q0 265 156.5 423.5t410.5 158.5q174 0 270.5 -70.5t96.5 -177.5q0 -42 -18.5 -74
t-49.5 -47h-82v41q0 113 -69.5 171t-202.5 58q-158 0 -263.5 -116.5t-105.5 -307.5z" />
    <glyph glyph-name="Ccircumflex" unicode="&#x108;" horiz-adv-x="1675" 
d="M995 76q117 0 203 23.5t151 76t112 122.5t95 177h50l-47 -377q-262 -118 -584 -118q-164 0 -304 41.5t-241 115t-173 172.5t-107 215.5t-35 243.5q0 192 66 352.5t180 269t269 168.5t333 60q338 0 559 -127l14 -336h-45q-70 188 -201.5 270t-333.5 82
q-320 0 -494.5 -184.5t-174.5 -503.5q0 -110 29 -216.5t89 -201.5t143 -167.5t198.5 -115t248.5 -42.5zM1010 2109l303 -426h-70l-291 275l-290 -275h-70l303 426h115z" />
    <glyph glyph-name="ccircumflex" unicode="&#x109;" horiz-adv-x="1126" 
d="M655 1638l303 -426h-69l-291 275l-291 -275h-69l303 426h114zM231 569q0 -202 108 -330t304 -128q126 0 203 44t151 140l54 -19q-47 -131 -158.5 -213.5t-288.5 -82.5q-122 0 -221.5 43t-163 116t-97.5 168.5t-34 202.5q0 265 156.5 423.5t410.5 158.5q174 0 270.5 -70.5
t96.5 -177.5q0 -42 -18.5 -74t-49.5 -47h-82v41q0 113 -69.5 171t-202.5 58q-158 0 -263.5 -116.5t-105.5 -307.5z" />
    <glyph glyph-name="Cdotaccent" unicode="&#x10a;" horiz-adv-x="1675" 
d="M834 1862q0 51 33.5 85.5t84.5 34.5t86 -34.5t35 -85.5t-35 -85t-86 -34t-84.5 34t-33.5 85zM995 76q117 0 203 23.5t151 76t112 122.5t95 177h50l-47 -377q-262 -118 -584 -118q-164 0 -304 41.5t-241 115t-173 172.5t-107 215.5t-35 243.5q0 192 66 352.5t180 269
t269 168.5t333 60q338 0 559 -127l14 -336h-45q-70 188 -201.5 270t-333.5 82q-320 0 -494.5 -184.5t-174.5 -503.5q0 -110 29 -216.5t89 -201.5t143 -167.5t198.5 -115t248.5 -42.5z" />
    <glyph glyph-name="cdotaccent" unicode="&#x10b;" horiz-adv-x="1126" 
d="M231 569q0 -202 108 -330t304 -128q126 0 203 44t151 140l54 -19q-47 -131 -158.5 -213.5t-288.5 -82.5q-122 0 -221.5 43t-163 116t-97.5 168.5t-34 202.5q0 265 156.5 423.5t410.5 158.5q174 0 270.5 -70.5t96.5 -177.5q0 -42 -18.5 -74t-49.5 -47h-82v41
q0 113 -69.5 171t-202.5 58q-158 0 -263.5 -116.5t-105.5 -307.5zM479 1419q0 51 34 86t85 35t86 -35t35 -86t-35 -85t-86 -34t-85 34t-34 85z" />
    <glyph glyph-name="Ccaron" unicode="&#x10c;" horiz-adv-x="1675" 
d="M995 76q117 0 203 23.5t151 76t112 122.5t95 177h50l-47 -377q-262 -118 -584 -118q-164 0 -304 41.5t-241 115t-173 172.5t-107 215.5t-35 243.5q0 192 66 352.5t180 269t269 168.5t333 60q338 0 559 -127l14 -336h-45q-70 188 -201.5 270t-333.5 82
q-320 0 -494.5 -184.5t-174.5 -503.5q0 -110 29 -216.5t89 -201.5t143 -167.5t198.5 -115t248.5 -42.5zM895 1683l-303 426h70l290 -274l291 274h70l-303 -426h-115z" />
    <glyph glyph-name="ccaron" unicode="&#x10d;" horiz-adv-x="1126" 
d="M541 1212l-303 426h69l291 -274l291 274h69l-303 -426h-114zM231 569q0 -202 108 -330t304 -128q126 0 203 44t151 140l54 -19q-47 -131 -158.5 -213.5t-288.5 -82.5q-122 0 -221.5 43t-163 116t-97.5 168.5t-34 202.5q0 265 156.5 423.5t410.5 158.5q174 0 270.5 -70.5
t96.5 -177.5q0 -42 -18.5 -74t-49.5 -47h-82v41q0 113 -69.5 171t-202.5 58q-158 0 -263.5 -116.5t-105.5 -307.5z" />
    <glyph glyph-name="Dcaron" unicode="&#x10e;" horiz-adv-x="1884" 
d="M846 1683l-303 426h69l291 -274l291 274h70l-303 -426h-115zM872 1507h-358v-1257q0 -95 57 -127.5t195 -32.5h192q127 0 239 43.5t199.5 126.5t138 214.5t50.5 295.5q0 124 -23.5 231t-77 201.5t-134.5 161t-203 105t-275 38.5zM94 1597h821q174 0 317.5 -41t242 -112
t165.5 -167.5t98 -205t31 -227.5q0 -199 -65.5 -361.5t-177.5 -266.5t-257 -160t-308 -56h-867v68q65 3 106 9.5t77.5 24t53.5 51t17 85.5v1122q0 52 -17 85.5t-53.5 51t-77.5 24t-106 9.5v67z" />
    <glyph glyph-name="dcaron" unicode="&#x10f;" horiz-adv-x="1366" 
d="M1243 1638h154l-115 -426h-65zM631 993q-174 0 -277.5 -118.5t-103.5 -331.5q0 -190 99.5 -315.5t281.5 -125.5q98 0 186.5 42t147.5 110v434q0 150 -87.5 227.5t-246.5 77.5zM1305 53l-336 -73h-15l11 186q-164 -186 -379 -186q-117 0 -213 41t-157.5 111t-94.5 160
t-33 191q0 137 45.5 253t123.5 193t181 120t217 43q189 0 310 -97v482l-164 32v39l258 111h69l-10 -176v-1272q0 -50 22 -63.5t107 -24.5l58 -8v-62z" />
    <glyph glyph-name="Dcroat" unicode="&#x110;" horiz-adv-x="1884" 
d="M94 768v90h254v502q0 52 -17 85.5t-53.5 51t-77.5 24t-106 9.5v67h821q174 0 317.5 -41t242 -112t165.5 -167.5t98 -205t31 -227.5q0 -199 -65.5 -361.5t-177.5 -266.5t-257 -160t-308 -56h-867v68q65 3 106 9.5t77.5 24t53.5 51t17 85.5v530h-254zM872 1507h-358v-649
h504v-90h-504v-518q0 -95 57 -127.5t195 -32.5h192q127 0 239 43.5t199.5 126.5t138 214.5t50.5 295.5q0 124 -23.5 231t-77 201.5t-134.5 161t-203 105t-275 38.5z" />
    <glyph glyph-name="dcroat" unicode="&#x111;" horiz-adv-x="1366" 
d="M598 1239v78h367v160l-164 32v39l258 111h69l-10 -176v-166h187v-78h-187v-1028q0 -50 22 -63.5t107 -24.5l58 -8v-62l-336 -73h-15l11 186q-164 -186 -379 -186q-117 0 -213 41t-157.5 111t-94.5 160t-33 191q0 137 45.5 253t123.5 193t181 120t217 43q189 0 310 -97
v244h-367zM631 993q-174 0 -277.5 -118.5t-103.5 -331.5q0 -190 99.5 -315.5t281.5 -125.5q98 0 186.5 42t147.5 110v434q0 150 -87.5 227.5t-246.5 77.5z" />
    <glyph glyph-name="Emacron" unicode="&#x112;" horiz-adv-x="1660" 
d="M557 1802v107h541v-107h-541zM1247 555h-57q-20 109 -57.5 161t-110.5 52h-508v-524q0 -90 57 -122t195 -32h317q65 0 109 9.5t74.5 21.5t66.5 54.5t58.5 76t75.5 119.5q2 3 3.5 5t3 5t3.5 6h49l-72 -387h-1360v68q65 3 106 9.5t77.5 24t53.5 51t17 85.5v1122
q0 52 -17 85.5t-53.5 51t-77.5 24t-106 9.5v67h1350l6 -360h-39q-66 156 -135 213t-205 57h-557v-649h508q73 0 110.5 52.5t57.5 162.5h57v-518z" />
    <glyph glyph-name="emacron" unicode="&#x113;" horiz-adv-x="1144" 
d="M614 1092q213 0 329 -119t116 -309v-50h-828q-15 -227 101.5 -365t316.5 -138q125 0 207 45t156 139l51 -19q-47 -131 -160 -213.5t-293 -82.5q-124 0 -224.5 43t-164.5 115.5t-98.5 165.5t-34.5 196q0 262 145.5 427t380.5 165zM573 987q-124 0 -212 -78.5t-115 -206.5
h643q0 126 -83.5 205.5t-232.5 79.5zM340 1335v107h541v-107h-541z" />
    <glyph glyph-name="Ebreve" unicode="&#x114;" horiz-adv-x="1660" 
d="M848 1706q-185 0 -269.5 104t-84.5 304h73q18 -151 94 -219t187 -68t186.5 68t93.5 219h74q0 -200 -84.5 -304t-269.5 -104zM1247 555h-57q-20 109 -57.5 161t-110.5 52h-508v-524q0 -90 57 -122t195 -32h317q65 0 109 9.5t74.5 21.5t66.5 54.5t58.5 76t75.5 119.5
q2 3 3.5 5t3 5t3.5 6h49l-72 -387h-1360v68q65 3 106 9.5t77.5 24t53.5 51t17 85.5v1122q0 52 -17 85.5t-53.5 51t-77.5 24t-106 9.5v67h1350l6 -360h-39q-66 156 -135 213t-205 57h-557v-649h508q73 0 110.5 52.5t57.5 162.5h57v-518z" />
    <glyph glyph-name="ebreve" unicode="&#x115;" horiz-adv-x="1144" 
d="M614 1092q213 0 329 -119t116 -309v-50h-828q-15 -227 101.5 -365t316.5 -138q125 0 207 45t156 139l51 -19q-47 -131 -160 -213.5t-293 -82.5q-124 0 -224.5 43t-164.5 115.5t-98.5 165.5t-34.5 196q0 262 145.5 427t380.5 165zM573 987q-124 0 -212 -78.5t-115 -206.5
h643q0 126 -83.5 205.5t-232.5 79.5zM610 1231q-185 0 -269.5 103.5t-84.5 303.5h74q18 -151 93.5 -218.5t186.5 -67.5q112 0 187.5 67.5t93.5 218.5h74q0 -200 -85 -303.5t-270 -103.5z" />
    <glyph glyph-name="Edotaccent" unicode="&#x116;" horiz-adv-x="1660" 
d="M705 1862q0 51 33.5 85.5t84.5 34.5t86 -34.5t35 -85.5t-35 -85t-86 -34t-84.5 34t-33.5 85zM1247 555h-57q-20 109 -57.5 161t-110.5 52h-508v-524q0 -90 57 -122t195 -32h317q65 0 109 9.5t74.5 21.5t66.5 54.5t58.5 76t75.5 119.5q2 3 3.5 5t3 5t3.5 6h49l-72 -387
h-1360v68q65 3 106 9.5t77.5 24t53.5 51t17 85.5v1122q0 52 -17 85.5t-53.5 51t-77.5 24t-106 9.5v67h1350l6 -360h-39q-66 156 -135 213t-205 57h-557v-649h508q73 0 110.5 52.5t57.5 162.5h57v-518z" />
    <glyph glyph-name="edotaccent" unicode="&#x117;" horiz-adv-x="1144" 
d="M614 1092q213 0 329 -119t116 -309v-50h-828q-15 -227 101.5 -365t316.5 -138q125 0 207 45t156 139l51 -19q-47 -131 -160 -213.5t-293 -82.5q-124 0 -224.5 43t-164.5 115.5t-98.5 165.5t-34.5 196q0 262 145.5 427t380.5 165zM573 987q-124 0 -212 -78.5t-115 -206.5
h643q0 126 -83.5 205.5t-232.5 79.5zM492 1419q0 51 33.5 86t84.5 35t86 -35t35 -86t-35 -85t-86 -34t-84.5 34t-33.5 85z" />
    <glyph glyph-name="Eogonek" unicode="&#x118;" horiz-adv-x="1660" 
d="M1298 0h-1204v68q65 3 106 9.5t77.5 24t53.5 51t17 85.5v1122q0 52 -17 85.5t-53.5 51t-77.5 24t-106 9.5v67h1350l6 -360h-39q-66 156 -135 213t-205 57h-557v-649h508q73 0 110.5 52.5t57.5 162.5h57v-518h-57q-20 109 -57.5 161t-110.5 52h-508v-524q0 -90 57 -122
t195 -32h317q65 0 109 9.5t74.5 21.5t66.5 54.5t58.5 76t75.5 119.5q2 3 3.5 5t3 5t3.5 6h49l-72 -387q-115 -35 -188.5 -100t-73.5 -164q0 -70 44.5 -111t119.5 -41q61 0 133 31l22 -45q-82 -82 -211 -82q-102 0 -168.5 56.5t-66.5 172.5q0 95 63 166t170 117z" />
    <glyph glyph-name="eogonek" unicode="&#x119;" horiz-adv-x="1144" 
d="M831 23q-237 -106 -237 -287q0 -70 44.5 -111t119.5 -41q61 0 133 31l22 -45q-82 -82 -211 -82q-102 0 -168.5 56.5t-66.5 172.5q0 167 195 265q-5 0 -26 -1t-26 -1q-124 0 -224.5 43t-164.5 115.5t-98.5 165.5t-34.5 196q0 262 145.5 427t380.5 165q213 0 329 -119
t116 -309v-50h-828q-15 -227 101.5 -365t316.5 -138q125 0 207 45t156 139l51 -19q-67 -180 -232 -253zM573 987q-124 0 -212 -78.5t-115 -206.5h643q0 126 -83.5 205.5t-232.5 79.5z" />
    <glyph glyph-name="Ecaron" unicode="&#x11a;" horiz-adv-x="1660" 
d="M793 1683l-304 426h70l291 -274l291 274h69l-303 -426h-114zM1247 555h-57q-20 109 -57.5 161t-110.5 52h-508v-524q0 -90 57 -122t195 -32h317q65 0 109 9.5t74.5 21.5t66.5 54.5t58.5 76t75.5 119.5q2 3 3.5 5t3 5t3.5 6h49l-72 -387h-1360v68q65 3 106 9.5t77.5 24
t53.5 51t17 85.5v1122q0 52 -17 85.5t-53.5 51t-77.5 24t-106 9.5v67h1350l6 -360h-39q-66 156 -135 213t-205 57h-557v-649h508q73 0 110.5 52.5t57.5 162.5h57v-518z" />
    <glyph glyph-name="ecaron" unicode="&#x11b;" horiz-adv-x="1144" 
d="M553 1212l-303 426h69l291 -274l291 274h70l-303 -426h-115zM614 1092q213 0 329 -119t116 -309v-50h-828q-15 -227 101.5 -365t316.5 -138q125 0 207 45t156 139l51 -19q-47 -131 -160 -213.5t-293 -82.5q-124 0 -224.5 43t-164.5 115.5t-98.5 165.5t-34.5 196
q0 262 145.5 427t380.5 165zM573 987q-124 0 -212 -78.5t-115 -206.5h643q0 126 -83.5 205.5t-232.5 79.5z" />
    <glyph glyph-name="Gcircumflex" unicode="&#x11c;" horiz-adv-x="1853" 
d="M115 768q0 192 66 352.5t180 269t269 168.5t333 60q338 0 559 -127l14 -336h-45q-70 188 -201.5 270t-333.5 82q-320 0 -494.5 -184.5t-174.5 -503.5q0 -93 21.5 -184t61.5 -173.5t101.5 -153t137.5 -122t173 -81t205 -29.5q316 0 438 155v308q0 42 -12 71.5t-30.5 46
t-53.5 26.5t-67.5 13.5t-85.5 5.5v66h653v-66q-53 -2 -86 -5.5t-68 -13.5t-53.5 -26.5t-30.5 -46t-12 -71.5v-396q-240 -163 -610 -163q-202 0 -367 65.5t-270 176t-161 251t-56 295.5zM1016 2109l303 -426h-70l-291 275l-290 -275h-70l303 426h115z" />
    <glyph glyph-name="gcircumflex" unicode="&#x11d;" horiz-adv-x="1210" 
d="M637 1638l303 -426h-70l-290 275l-291 -275h-70l303 426h115zM604 1092q92 0 174 -29l375 8v-123h-78l-233 31v-4q77 -33 126.5 -111t49.5 -174q0 -178 -120.5 -277.5t-311.5 -99.5q-60 0 -124 12t-100 27q-32 -25 -48 -41t-30 -41t-14 -53q0 -44 26.5 -68t76.5 -24h473
q151 0 236 -69t85 -201q0 -160 -164.5 -263.5t-447.5 -103.5q-242 0 -362.5 81t-120.5 202q0 84 49 136t143 95q-62 21 -93.5 64.5t-31.5 101.5q0 76 44.5 123t129.5 88q-163 111 -163 303q0 189 125.5 299.5t328.5 110.5zM821 -14h-508q-86 -74 -86 -181
q0 -110 103.5 -170.5t265.5 -60.5q202 0 319 68t117 190q0 154 -211 154zM614 395q112 0 174 74.5t62 189.5q0 155 -78.5 246.5t-224.5 91.5q-112 0 -174 -74.5t-62 -189.5q0 -155 78.5 -246.5t224.5 -91.5z" />
    <glyph glyph-name="Gbreve" unicode="&#x11e;" horiz-adv-x="1853" 
d="M958 1706q-185 0 -269.5 104t-84.5 304h74q18 -151 93.5 -219t186.5 -68t187 68t94 219h74q0 -200 -85 -304t-270 -104zM115 768q0 192 66 352.5t180 269t269 168.5t333 60q338 0 559 -127l14 -336h-45q-70 188 -201.5 270t-333.5 82q-320 0 -494.5 -184.5t-174.5 -503.5
q0 -93 21.5 -184t61.5 -173.5t101.5 -153t137.5 -122t173 -81t205 -29.5q316 0 438 155v308q0 42 -12 71.5t-30.5 46t-53.5 26.5t-67.5 13.5t-85.5 5.5v66h653v-66q-53 -2 -86 -5.5t-68 -13.5t-53.5 -26.5t-30.5 -46t-12 -71.5v-396q-240 -163 -610 -163q-202 0 -367 65.5
t-270 176t-161 251t-56 295.5z" />
    <glyph glyph-name="gbreve" unicode="&#x11f;" horiz-adv-x="1210" 
d="M604 1092q92 0 174 -29l375 8v-123h-78l-233 31v-4q77 -33 126.5 -111t49.5 -174q0 -178 -120.5 -277.5t-311.5 -99.5q-60 0 -124 12t-100 27q-32 -25 -48 -41t-30 -41t-14 -53q0 -44 26.5 -68t76.5 -24h473q151 0 236 -69t85 -201q0 -160 -164.5 -263.5t-447.5 -103.5
q-242 0 -362.5 81t-120.5 202q0 84 49 136t143 95q-62 21 -93.5 64.5t-31.5 101.5q0 76 44.5 123t129.5 88q-163 111 -163 303q0 189 125.5 299.5t328.5 110.5zM821 -14h-508q-86 -74 -86 -181q0 -110 103.5 -170.5t265.5 -60.5q202 0 319 68t117 190q0 154 -211 154z
M614 395q112 0 174 74.5t62 189.5q0 155 -78.5 246.5t-224.5 91.5q-112 0 -174 -74.5t-62 -189.5q0 -155 78.5 -246.5t224.5 -91.5zM573 1231q-185 0 -269.5 103.5t-84.5 303.5h74q18 -151 93.5 -218.5t186.5 -67.5q112 0 187.5 67.5t93.5 218.5h74q0 -200 -85 -303.5
t-270 -103.5z" />
    <glyph glyph-name="Gdotaccent" unicode="&#x120;" horiz-adv-x="1853" 
d="M840 1862q0 51 33.5 85.5t84.5 34.5t86 -34.5t35 -85.5t-35 -85t-86 -34t-84.5 34t-33.5 85zM115 768q0 192 66 352.5t180 269t269 168.5t333 60q338 0 559 -127l14 -336h-45q-70 188 -201.5 270t-333.5 82q-320 0 -494.5 -184.5t-174.5 -503.5q0 -93 21.5 -184
t61.5 -173.5t101.5 -153t137.5 -122t173 -81t205 -29.5q316 0 438 155v308q0 42 -12 71.5t-30.5 46t-53.5 26.5t-67.5 13.5t-85.5 5.5v66h653v-66q-53 -2 -86 -5.5t-68 -13.5t-53.5 -26.5t-30.5 -46t-12 -71.5v-396q-240 -163 -610 -163q-202 0 -367 65.5t-270 176t-161 251
t-56 295.5z" />
    <glyph glyph-name="gdotaccent" unicode="&#x121;" horiz-adv-x="1210" 
d="M604 1092q92 0 174 -29l375 8v-123h-78l-233 31v-4q77 -33 126.5 -111t49.5 -174q0 -178 -120.5 -277.5t-311.5 -99.5q-60 0 -124 12t-100 27q-32 -25 -48 -41t-30 -41t-14 -53q0 -44 26.5 -68t76.5 -24h473q151 0 236 -69t85 -201q0 -160 -164.5 -263.5t-447.5 -103.5
q-242 0 -362.5 81t-120.5 202q0 84 49 136t143 95q-62 21 -93.5 64.5t-31.5 101.5q0 76 44.5 123t129.5 88q-163 111 -163 303q0 189 125.5 299.5t328.5 110.5zM821 -14h-508q-86 -74 -86 -181q0 -110 103.5 -170.5t265.5 -60.5q202 0 319 68t117 190q0 154 -211 154z
M614 395q112 0 174 74.5t62 189.5q0 155 -78.5 246.5t-224.5 91.5q-112 0 -174 -74.5t-62 -189.5q0 -155 78.5 -246.5t224.5 -91.5zM461 1419q0 51 34 86t85 35t85.5 -35t34.5 -86t-34.5 -85t-85.5 -34t-85 34t-34 85z" />
    <glyph glyph-name="Gcommaaccent" unicode="&#x122;" horiz-adv-x="1853" 
d="M1010 -336h-70q-43 11 -66.5 38.5t-23.5 68.5q0 50 33 82t88 32q67 0 102 -45t35 -110q0 -46 -12 -86t-38.5 -75.5t-77 -57t-120.5 -23.5v70q121 12 150 106zM115 768q0 192 66 352.5t180 269t269 168.5t333 60q338 0 559 -127l14 -336h-45q-70 188 -201.5 270t-333.5 82
q-320 0 -494.5 -184.5t-174.5 -503.5q0 -93 21.5 -184t61.5 -173.5t101.5 -153t137.5 -122t173 -81t205 -29.5q316 0 438 155v308q0 42 -12 71.5t-30.5 46t-53.5 26.5t-67.5 13.5t-85.5 5.5v66h653v-66q-53 -2 -86 -5.5t-68 -13.5t-53.5 -26.5t-30.5 -46t-12 -71.5v-396
q-240 -163 -610 -163q-202 0 -367 65.5t-270 176t-161 251t-56 295.5z" />
    <glyph glyph-name="gcommaaccent" unicode="&#x123;" horiz-adv-x="1210" 
d="M604 1092q92 0 174 -29l375 8v-123h-78l-233 31v-4q77 -33 126.5 -111t49.5 -174q0 -178 -120.5 -277.5t-311.5 -99.5q-60 0 -124 12t-100 27q-32 -25 -48 -41t-30 -41t-14 -53q0 -44 26.5 -68t76.5 -24h473q151 0 236 -69t85 -201q0 -160 -164.5 -263.5t-447.5 -103.5
q-242 0 -362.5 81t-120.5 202q0 84 49 136t143 95q-62 21 -93.5 64.5t-31.5 101.5q0 76 44.5 123t129.5 88q-163 111 -163 303q0 189 125.5 299.5t328.5 110.5zM821 -14h-508q-86 -74 -86 -181q0 -110 103.5 -170.5t265.5 -60.5q202 0 319 68t117 190q0 154 -211 154z
M614 395q112 0 174 74.5t62 189.5q0 155 -78.5 246.5t-224.5 91.5q-112 0 -174 -74.5t-62 -189.5q0 -155 78.5 -246.5t224.5 -91.5zM541 1446h69q43 -11 66.5 -38.5t23.5 -68.5q0 -50 -32.5 -82t-87.5 -32q-67 0 -102.5 45t-35.5 110q0 46 12 86t38.5 75.5t77 57t120.5 23.5
v-70q-69 -7 -102 -34.5t-47 -71.5z" />
    <glyph glyph-name="Hcircumflex" unicode="&#x124;" horiz-adv-x="2013" 
d="M1499 238v528h-985v-528q0 -52 17 -85.5t53.5 -51t77.5 -24t106 -9.5v-68h-674v68q65 3 106 9.5t77.5 24t53.5 51t17 85.5v1122q0 52 -17 85.5t-53.5 51t-77.5 24t-106 9.5v67h674v-67q-65 -3 -106 -9.5t-77.5 -24t-53.5 -51t-17 -85.5v-502h985v502q0 52 -17 85.5
t-53.5 51t-77.5 24t-106 9.5v67h674v-67q-65 -3 -106 -9.5t-77.5 -24t-53.5 -51t-17 -85.5v-1122q0 -52 17 -85.5t53.5 -51t77.5 -24t106 -9.5v-68h-674v68q65 3 106 9.5t77.5 24t53.5 51t17 85.5zM1063 2109l303 -426h-70l-290 275l-291 -275h-70l303 426h115z" />
    <glyph glyph-name="hcircumflex" unicode="&#x125;" horiz-adv-x="1423" 
d="M260 1477l-164 32v39l260 111h70l-10 -176v-602q79 86 191 148.5t231 62.5q159 0 250.5 -81t91.5 -255v-580q0 -27 10 -47t23 -31.5t40 -19.5t46 -11t55 -8v-59h-504v59q36 5 55 8t46 11t40 19.5t23 31.5t10 47v557q0 121 -61.5 174.5t-176.5 53.5q-90 0 -193 -47
t-177 -115v-623q0 -27 10 -47t22.5 -31.5t39 -19.5t45.5 -11t55 -8v-59h-502v59q36 5 55 8t46 11t40 19.5t23 31.5t10 47v1301zM408 2109l303 -426h-70l-291 275l-291 -275h-69l303 426h115z" />
    <glyph glyph-name="Hbar" unicode="&#x126;" horiz-adv-x="2013" 
d="M125 1145v88h223v127q0 52 -17 85.5t-53.5 51t-77.5 24t-106 9.5v67h674v-67q-65 -3 -106 -9.5t-77.5 -24t-53.5 -51t-17 -85.5v-127h985v127q0 52 -17 85.5t-53.5 51t-77.5 24t-106 9.5v67h674v-67q-65 -3 -106 -9.5t-77.5 -24t-53.5 -51t-17 -85.5v-127h223v-88h-223
v-907q0 -52 17 -85.5t53.5 -51t77.5 -24t106 -9.5v-68h-674v68q65 3 106 9.5t77.5 24t53.5 51t17 85.5v528h-985v-528q0 -52 17 -85.5t53.5 -51t77.5 -24t106 -9.5v-68h-674v68q65 3 106 9.5t77.5 24t53.5 51t17 85.5v907h-223zM514 858h985v287h-985v-287z" />
    <glyph glyph-name="hbar" unicode="&#x127;" horiz-adv-x="1423" 
d="M260 1477l-164 32v39l260 111h70l-10 -176v-166h387v-78h-387v-358q79 86 191 148.5t231 62.5q159 0 250.5 -81t91.5 -255v-580q0 -27 10 -47t23 -31.5t40 -19.5t46 -11t55 -8v-59h-504v59q36 5 55 8t46 11t40 19.5t23 31.5t10 47v557q0 121 -61.5 174.5t-176.5 53.5
q-90 0 -193 -47t-177 -115v-623q0 -27 10 -47t22.5 -31.5t39 -19.5t45.5 -11t55 -8v-59h-502v59q36 5 55 8t46 11t40 19.5t23 31.5t10 47v1063h-164v78h164v160z" />
    <glyph glyph-name="Itilde" unicode="&#x128;" horiz-adv-x="862" 
d="M348 238v1122q0 52 -17 85.5t-53.5 51t-77.5 24t-106 9.5v67h674v-67q-65 -3 -106 -9.5t-77.5 -24t-53.5 -51t-17 -85.5v-1122q0 -52 17 -85.5t53.5 -51t77.5 -24t106 -9.5v-68h-674v68q65 3 106 9.5t77.5 24t53.5 51t17 85.5zM569 1741q-45 0 -92.5 19t-80.5 42.5
t-72.5 42.5t-69.5 19q-53 0 -79.5 -20t-63.5 -87l-68 8q79 215 254 215q45 0 92.5 -19t80.5 -42t72.5 -42t69.5 -19q53 0 80.5 19.5t63.5 86.5l67 -8q-78 -215 -254 -215z" />
    <glyph glyph-name="itilde" unicode="&#x129;" horiz-adv-x="712" 
d="M451 868v-692q0 -27 10 -47t23 -31.5t40 -19.5t46 -11t55 -8v-59h-504v59q36 5 55 8t46 11t40 19.5t23 31.5t10 47v719l-164 53v41l262 98h68zM510 1249q-45 0 -92.5 19t-80.5 41.5t-72.5 41.5t-69.5 19q-54 0 -81 -19.5t-63 -86.5l-67 10q79 215 254 215q45 0 92.5 -19
t80.5 -42.5t72.5 -42.5t69.5 -19q53 0 79.5 20t63.5 87l68 -9q-78 -215 -254 -215z" />
    <glyph glyph-name="Imacron" unicode="&#x12a;" horiz-adv-x="862" 
d="M348 238v1122q0 52 -17 85.5t-53.5 51t-77.5 24t-106 9.5v67h674v-67q-65 -3 -106 -9.5t-77.5 -24t-53.5 -51t-17 -85.5v-1122q0 -52 17 -85.5t53.5 -51t77.5 -24t106 -9.5v-68h-674v68q65 3 106 9.5t77.5 24t53.5 51t17 85.5zM162 1802v107h540v-107h-540z" />
    <glyph glyph-name="imacron" unicode="&#x12b;" horiz-adv-x="712" 
d="M451 868v-692q0 -27 10 -47t23 -31.5t40 -19.5t46 -11t55 -8v-59h-504v59q36 5 55 8t46 11t40 19.5t23 31.5t10 47v719l-164 53v41l262 98h68zM96 1335v107h500v-107h-500z" />
    <glyph glyph-name="Ibreve" unicode="&#x12c;" horiz-adv-x="862" 
d="M348 238v1122q0 52 -17 85.5t-53.5 51t-77.5 24t-106 9.5v67h674v-67q-65 -3 -106 -9.5t-77.5 -24t-53.5 -51t-17 -85.5v-1122q0 -52 17 -85.5t53.5 -51t77.5 -24t106 -9.5v-68h-674v68q65 3 106 9.5t77.5 24t53.5 51t17 85.5zM432 1706q-185 0 -269.5 104t-84.5 304h74
q18 -151 93.5 -219t186.5 -68t187 68t94 219h73q0 -200 -84.5 -304t-269.5 -104z" />
    <glyph glyph-name="ibreve" unicode="&#x12d;" horiz-adv-x="712" 
d="M451 868v-692q0 -27 10 -47t23 -31.5t40 -19.5t46 -11t55 -8v-59h-504v59q36 5 55 8t46 11t40 19.5t23 31.5t10 47v719l-164 53v41l262 98h68zM373 1231q-185 0 -270 103.5t-85 303.5h74q18 -151 93.5 -218.5t187.5 -67.5q111 0 186.5 67.5t93.5 218.5h74
q0 -200 -84.5 -303.5t-269.5 -103.5z" />
    <glyph glyph-name="Iogonek" unicode="&#x12e;" horiz-adv-x="862" 
d="M612 0h-518v68q65 3 106 9.5t77.5 24t53.5 51t17 85.5v1122q0 52 -17 85.5t-53.5 51t-77.5 24t-106 9.5v67h674v-67q-65 -3 -106 -9.5t-77.5 -24t-53.5 -51t-17 -85.5v-1122q0 -52 17 -85.5t53.5 -51t77.5 -24t106 -9.5v-68q-115 -35 -188.5 -100t-73.5 -164
q0 -70 44.5 -111t119.5 -41q61 0 133 31l22 -45q-82 -82 -211 -82q-102 0 -168.5 56.5t-66.5 172.5q0 95 63 166t170 117z" />
    <glyph glyph-name="iogonek" unicode="&#x12f;" horiz-adv-x="712" 
d="M469 0h-348v59q36 5 55 8t46 11t40 19.5t23 31.5t10 47v719l-164 53v41l262 98h68l-10 -219v-692q0 -27 10 -47t23 -31.5t40 -19.5t46 -11t55 -8v-59q-115 -35 -189 -100t-74 -164q0 -70 44.5 -111t119.5 -41q61 0 133 31l23 -45q-82 -82 -211 -82q-102 0 -168.5 56.5
t-66.5 172.5q0 95 63 166t170 117zM238 1419q0 51 33.5 86t84.5 35t86 -35t35 -86t-35 -85t-86 -34t-84.5 34t-33.5 85z" />
    <glyph glyph-name="Idotaccent" unicode="&#x130;" horiz-adv-x="862" 
d="M348 238v1122q0 52 -17 85.5t-53.5 51t-77.5 24t-106 9.5v67h674v-67q-65 -3 -106 -9.5t-77.5 -24t-53.5 -51t-17 -85.5v-1122q0 -52 17 -85.5t53.5 -51t77.5 -24t106 -9.5v-68h-674v68q65 3 106 9.5t77.5 24t53.5 51t17 85.5zM313 1862q0 51 34 85.5t85 34.5t86 -34.5
t35 -85.5t-35 -85t-86 -34t-85 34t-34 85z" />
    <glyph glyph-name="dotlessi" unicode="&#x131;" horiz-adv-x="712" 
d="M451 868v-692q0 -27 10 -47t23 -31.5t40 -19.5t46 -11t55 -8v-59h-504v59q36 5 55 8t46 11t40 19.5t23 31.5t10 47v719l-164 53v41l262 98h68z" />
    <glyph glyph-name="IJ" unicode="&#x132;" horiz-adv-x="1835" 
d="M344 238v1122q0 42 -12 72t-31 48t-53 29t-68.5 15t-85.5 6v67h674v-67q-65 -3 -105 -9.5t-75.5 -24t-51.5 -51t-16 -85.5v-1122q0 -52 16 -85.5t51.5 -51t75.5 -24t105 -9.5v-68h-674v68q51 2 85.5 6t68.5 15t53 29t31 48t12 72zM1546 1360v-930q0 -235 -97 -342.5
t-286 -107.5q-166 0 -263 67t-97 182q0 35 13.5 76t33.5 57h135v-120q0 -95 48 -140t118 -45q44 0 75.5 7t60.5 27.5t46.5 56t28 94t10.5 139.5v979q0 42 -12 72t-31 48t-53 29t-68.5 15t-85.5 6v67h674v-67q-51 -2 -85.5 -6t-68.5 -15t-53 -29t-31 -48t-12 -72z" />
    <glyph glyph-name="ij" unicode="&#x133;" horiz-adv-x="1144" 
d="M295 895l-164 53v41l262 98h68l-10 -219v-692q0 -27 10 -47t23 -31.5t40 -19.5t46 -11t55 -8v-59h-504v59q36 5 55 8t46 11t40 19.5t23 31.5t10 47v719zM238 1419q0 51 33.5 86t84.5 35t86 -35t35 -86t-35 -85t-86 -34t-84.5 34t-33.5 85zM809 895l-164 53v41l262 98h68
l-10 -219v-768q0 -131 -6.5 -184.5t-32.5 -114.5q-19 -45 -66.5 -107t-86.5 -103t-101 -103l-43 39l102 162q47 72 62.5 158t15.5 221v827zM752 1419q0 51 33.5 86t84.5 35t86 -35t35 -86t-35 -85t-86 -34t-84.5 34t-33.5 85z" />
    <glyph glyph-name="Jcircumflex" unicode="&#x134;" horiz-adv-x="1132" 
d="M840 1360v-916q0 -464 -441 -464q-185 0 -295 65.5t-110 187.5q0 77 51 117h137v-63q0 -230 238 -230q118 0 186 84.5t68 268.5v950q0 52 -17 85.5t-53.5 51t-77.5 24t-106 9.5v67h674v-67q-65 -3 -106 -9.5t-77.5 -24t-53.5 -51t-17 -85.5zM805 2109l303 -426h-70
l-290 275l-291 -275h-70l303 426h115z" />
    <glyph glyph-name="jcircumflex" unicode="&#x135;" horiz-adv-x="571" 
d="M236 895l-164 53v41l260 98h69l-10 -219v-768q0 -131 -6.5 -184.5t-32.5 -114.5q-19 -45 -66.5 -107t-86.5 -103t-101 -103l-43 39l103 162q47 72 62.5 158t15.5 221v827zM367 1638l303 -426h-70l-291 275l-291 -275h-69l303 426h115z" />
    <glyph glyph-name="Kcommaaccent" unicode="&#x136;" horiz-adv-x="1683" 
d="M926 -336h-70q-43 11 -66.5 38.5t-23.5 68.5q0 50 33 82t88 32q67 0 102 -45t35 -110q0 -46 -12 -86t-38.5 -75.5t-77 -57t-120.5 -23.5v70q121 12 150 106zM721 852l668 -645q69 -67 136 -99t148 -40v-68h-262q-112 56 -240 184l-639 629l685 576q51 41 51 75t-34 44.5
t-167 21.5v67h575v-67q-42 0 -75 -7.5t-68.5 -29t-58 -38.5t-70.5 -58zM348 238v1122q0 52 -17 85.5t-53.5 51t-77.5 24t-106 9.5v67h674v-67q-65 -3 -106 -9.5t-77.5 -24t-53.5 -51t-17 -85.5v-1122q0 -52 17 -85.5t53.5 -51t77.5 -24t106 -9.5v-68h-674v68q65 3 106 9.5
t77.5 24t53.5 51t17 85.5z" />
    <glyph glyph-name="kcommaaccent" unicode="&#x137;" horiz-adv-x="1239" 
d="M743 -336h-69q-43 11 -66.5 38.5t-23.5 68.5q0 50 33 82t88 32q67 0 102 -45t35 -110q0 -46 -12 -86t-38.5 -75.5t-77 -57t-120.5 -23.5v70q69 7 102 34.5t47 71.5zM428 539l391 354q29 29 29 49q0 34 -28 46.5t-115 23.5v59h456v-59q-10 -3 -32 -9t-29 -7.5t-22 -6.5
t-21 -8l-17 -8.5t-19 -12t-17 -14.5l-402 -362l629 -539v-45h-172zM416 1483v-1307q0 -27 10 -47t22.5 -31.5t39 -19.5t45.5 -11t55 -8v-59h-502v59q36 5 55 8t46 11t40 19.5t23 31.5t10 47v1301l-164 32v39l260 111h70z" />
    <glyph glyph-name="kgreenlandic" unicode="&#x138;" horiz-adv-x="1277" 
d="M295 895l-164 53v41l262 98h68l-10 -219v-692q0 -27 10 -47t23 -31.5t40 -19.5t46 -11t55 -8v-59h-504v59q36 5 55 8t46 11t40 19.5t23 31.5t10 47v719zM467 539l391 354q29 29 29 49q0 34 -28.5 46.5t-115.5 23.5v59h457v-59q-11 -3 -32.5 -8.5t-29 -8t-22 -7t-21 -7.5
t-17.5 -8.5t-19 -12t-17 -14.5l-401 -362l629 -539v-45h-172z" />
    <glyph glyph-name="Lacute" unicode="&#x139;" horiz-adv-x="1550" 
d="M586 2109h207l-306 -426h-67zM514 1360v-1116q0 -90 57 -122t195 -32h278q62 0 109.5 14t80.5 35t66 64t55.5 82t59.5 108q8 15 12 23h48l-74 -416h-1307v68q65 3 106 9.5t77.5 24t53.5 51t17 85.5v1122q0 52 -17 85.5t-53.5 51t-77.5 24t-106 9.5v67h674v-67
q-65 -3 -106 -9.5t-77.5 -24t-53.5 -51t-17 -85.5z" />
    <glyph glyph-name="lacute" unicode="&#x13a;" horiz-adv-x="692" 
d="M446 2109h207l-305 -426h-67zM430 1483v-1307q0 -27 10 -47t23 -31.5t40 -19.5t46 -11t55 -8v-59h-504v59q36 5 55 8t46 11t40 19.5t23 31.5t10 47v1301l-163 32v39l262 111h67z" />
    <glyph glyph-name="Lcommaaccent" unicode="&#x13b;" horiz-adv-x="1550" 
d="M825 -336h-69q-43 11 -66.5 38.5t-23.5 68.5q0 50 32.5 82t87.5 32q67 0 102.5 -45t35.5 -110q0 -46 -12 -86t-38.5 -75.5t-77 -57t-120.5 -23.5v70q69 7 102 34.5t47 71.5zM514 1360v-1116q0 -90 57 -122t195 -32h278q62 0 109.5 14t80.5 35t66 64t55.5 82t59.5 108
q8 15 12 23h48l-74 -416h-1307v68q65 3 106 9.5t77.5 24t53.5 51t17 85.5v1122q0 52 -17 85.5t-53.5 51t-77.5 24t-106 9.5v67h674v-67q-65 -3 -106 -9.5t-77.5 -24t-53.5 -51t-17 -85.5z" />
    <glyph glyph-name="lcommaaccent" unicode="&#x13c;" horiz-adv-x="692" 
d="M395 -336h-69q-43 11 -66.5 38.5t-23.5 68.5q0 50 32.5 82t87.5 32q67 0 102.5 -45t35.5 -110q0 -46 -12 -86t-38.5 -75.5t-77 -57t-120.5 -23.5v70q69 7 102 34.5t47 71.5zM430 1483v-1307q0 -27 10 -47t23 -31.5t40 -19.5t46 -11t55 -8v-59h-504v59q36 5 55 8t46 11
t40 19.5t23 31.5t10 47v1301l-163 32v39l262 111h67z" />
    <glyph glyph-name="Lcaron" unicode="&#x13d;" horiz-adv-x="1550" 
d="M993 1597h154l-115 -426h-65zM514 1360v-1116q0 -90 57 -122t195 -32h278q62 0 109.5 14t80.5 35t66 64t55.5 82t59.5 108q8 15 12 23h48l-74 -416h-1307v68q65 3 106 9.5t77.5 24t53.5 51t17 85.5v1122q0 52 -17 85.5t-53.5 51t-77.5 24t-106 9.5v67h674v-67
q-65 -3 -106 -9.5t-77.5 -24t-53.5 -51t-17 -85.5z" />
    <glyph glyph-name="lcaron" unicode="&#x13e;" horiz-adv-x="692" 
d="M557 1638h154l-115 -426h-66zM430 1483v-1307q0 -27 10 -47t23 -31.5t40 -19.5t46 -11t55 -8v-59h-504v59q36 5 55 8t46 11t40 19.5t23 31.5t10 47v1301l-163 32v39l262 111h67z" />
    <glyph glyph-name="Ldot" unicode="&#x13f;" horiz-adv-x="1550" 
d="M514 1360v-1116q0 -90 57 -122t195 -32h278q62 0 109.5 14t80.5 35t66 64t55.5 82t59.5 108q8 15 12 23h48l-74 -416h-1307v68q65 3 106 9.5t77.5 24t53.5 51t17 85.5v1122q0 52 -17 85.5t-53.5 51t-77.5 24t-106 9.5v67h674v-67q-65 -3 -106 -9.5t-77.5 -24t-53.5 -51
t-17 -85.5zM1075 819q0 54 37.5 92.5t91.5 38.5t92.5 -38.5t38.5 -92.5t-38.5 -91.5t-92.5 -37.5t-91.5 37.5t-37.5 91.5z" />
    <glyph glyph-name="ldot" unicode="&#x140;" horiz-adv-x="753" 
d="M600 799q0 54 37.5 92.5t91.5 38.5t92.5 -38.5t38.5 -92.5t-38.5 -91.5t-92.5 -37.5t-91.5 37.5t-37.5 91.5zM430 1483v-1307q0 -27 10 -47t23 -31.5t40 -19.5t46 -11t55 -8v-59h-504v59q36 5 55 8t46 11t40 19.5t23 31.5t10 47v1301l-163 32v39l262 111h67z" />
    <glyph glyph-name="Lslash" unicode="&#x141;" horiz-adv-x="1550" 
d="M94 539v102l254 109v610q0 52 -17 85.5t-53.5 51t-77.5 24t-106 9.5v67h674v-67q-65 -3 -106 -9.5t-77.5 -24t-53.5 -51t-17 -85.5v-539l408 178v-102l-408 -178v-471q0 -90 57 -122t195 -32h278q62 0 109.5 13t82 36t65.5 62.5t57 84t60 108.5l9 18h48l-74 -416h-1307
v68q65 3 106 9.5t77.5 24t53.5 51t17 85.5v409z" />
    <glyph glyph-name="lslash" unicode="&#x142;" horiz-adv-x="702" 
d="M424 1483v-518l182 118v-92l-182 -121v-694q0 -27 10 -47t23 -31.5t40 -19.5t46 -11t55 -8v-59h-504v59q36 5 55 8t46 11t40 19.5t23 31.5t10 47v623l-170 -109v94l170 109v584l-164 32v39l261 111h69z" />
    <glyph glyph-name="Nacute" unicode="&#x143;" horiz-adv-x="1998" 
d="M1139 2109h207l-306 -426h-67zM346 238v1157q-74 88 -117.5 111.5t-134.5 23.5v67h332l1141 -1318v1081q0 52 -15.5 85.5t-50 51t-74 24t-104.5 9.5v67h602v-67q-51 -2 -85.5 -6t-68.5 -15t-53 -29t-31 -48t-12 -72v-1360h-76l-1144 1311v-1073q0 -52 15 -85.5t49.5 -51
t74.5 -24t104 -9.5v-68h-604v68q51 2 86 6t69 15t53.5 29t31.5 48t12 72z" />
    <glyph glyph-name="nacute" unicode="&#x144;" horiz-adv-x="1458" 
d="M887 1638h207l-306 -426h-67zM1059 176v557q0 121 -61.5 174.5t-176.5 53.5q-90 0 -193 -47t-177 -115v-623q0 -27 10 -47t23 -31.5t40 -19.5t46 -11t55 -8v-59h-504v59q36 5 55 8t46 11t40 19.5t23 31.5t10 47v719l-164 53v41l262 98h68l-10 -206q79 86 190.5 148.5
t230.5 62.5q159 0 250.5 -81t91.5 -255v-580q0 -27 10 -47t23.5 -31t40.5 -19.5t45.5 -11.5t55.5 -8v-59h-504v59q36 5 55 8t46 11t40 19.5t23 31.5t10 47z" />
    <glyph glyph-name="Ncommaaccent" unicode="&#x145;" horiz-adv-x="1998" 
d="M1059 -336h-70q-43 11 -66.5 38.5t-23.5 68.5q0 50 33 82t88 32q67 0 102 -45t35 -110q0 -46 -12 -86t-38.5 -75.5t-77 -57t-120.5 -23.5v70q121 12 150 106zM346 238v1157q-74 88 -117.5 111.5t-134.5 23.5v67h332l1141 -1318v1081q0 52 -15.5 85.5t-50 51t-74 24
t-104.5 9.5v67h602v-67q-51 -2 -85.5 -6t-68.5 -15t-53 -29t-31 -48t-12 -72v-1360h-76l-1144 1311v-1073q0 -52 15 -85.5t49.5 -51t74.5 -24t104 -9.5v-68h-604v68q51 2 86 6t69 15t53.5 29t31.5 48t12 72z" />
    <glyph glyph-name="ncommaaccent" unicode="&#x146;" horiz-adv-x="1458" 
d="M797 -336h-70q-43 11 -66.5 38.5t-23.5 68.5q0 50 33 82t88 32q67 0 102 -45t35 -110q0 -46 -12 -86t-38.5 -75.5t-77 -57t-120.5 -23.5v70q121 12 150 106zM1059 176v557q0 121 -61.5 174.5t-176.5 53.5q-90 0 -193 -47t-177 -115v-623q0 -27 10 -47t23 -31.5t40 -19.5
t46 -11t55 -8v-59h-504v59q36 5 55 8t46 11t40 19.5t23 31.5t10 47v719l-164 53v41l262 98h68l-10 -206q79 86 190.5 148.5t230.5 62.5q159 0 250.5 -81t91.5 -255v-580q0 -27 10 -47t23.5 -31t40.5 -19.5t45.5 -11.5t55.5 -8v-59h-504v59q36 5 55 8t46 11t40 19.5t23 31.5
t10 47z" />
    <glyph glyph-name="Ncaron" unicode="&#x147;" horiz-adv-x="1998" 
d="M961 1683l-304 426h70l291 -274l291 274h69l-303 -426h-114zM346 238v1157q-74 88 -117.5 111.5t-134.5 23.5v67h332l1141 -1318v1081q0 52 -15.5 85.5t-50 51t-74 24t-104.5 9.5v67h602v-67q-51 -2 -85.5 -6t-68.5 -15t-53 -29t-31 -48t-12 -72v-1360h-76l-1144 1311
v-1073q0 -52 15 -85.5t49.5 -51t74.5 -24t104 -9.5v-68h-604v68q51 2 86 6t69 15t53.5 29t31.5 48t12 72z" />
    <glyph glyph-name="ncaron" unicode="&#x148;" horiz-adv-x="1458" 
d="M698 1212l-303 426h70l291 -274l291 274h69l-303 -426h-115zM1059 176v557q0 121 -61.5 174.5t-176.5 53.5q-90 0 -193 -47t-177 -115v-623q0 -27 10 -47t23 -31.5t40 -19.5t46 -11t55 -8v-59h-504v59q36 5 55 8t46 11t40 19.5t23 31.5t10 47v719l-164 53v41l262 98h68
l-10 -206q79 86 190.5 148.5t230.5 62.5q159 0 250.5 -81t91.5 -255v-580q0 -27 10 -47t23.5 -31t40.5 -19.5t45.5 -11.5t55.5 -8v-59h-504v59q36 5 55 8t46 11t40 19.5t23 31.5t10 47z" />
    <glyph glyph-name="Eng" unicode="&#x14a;" horiz-adv-x="1998" 
d="M1567 37l-1112 1274v-1073q0 -52 15 -85.5t49.5 -51t74.5 -24t104 -9.5v-68h-604v68q51 2 86 6t69 15t53.5 29t31.5 48t12 72v1157q-74 88 -117.5 111.5t-134.5 23.5v67h332l1141 -1318v1081q0 52 -15.5 85.5t-50 51t-74 24t-104.5 9.5v67h602v-67q-51 -2 -85.5 -6
t-68.5 -15t-53 -29t-31 -48t-12 -72v-1501q0 -66 -8 -117.5t-31.5 -100.5t-61 -81.5t-100.5 -52t-147 -19.5q-77 0 -142 20.5t-109 66t-44 108.5q0 36 20.5 67.5t47.5 48.5h98v-53q0 -79 42 -125.5t126 -46.5q99 0 150 58.5t51 193.5v211z" />
    <glyph glyph-name="eng" unicode="&#x14b;" horiz-adv-x="1355" 
d="M1059 733q0 121 -61.5 174.5t-176.5 53.5q-90 0 -193 -47t-177 -115v-623q0 -27 10 -47t23 -31.5t40 -19.5t46 -11t55 -8v-59h-504v59q36 5 55 8t46 11t40 19.5t23 31.5t10 47v719l-164 53v41l262 98h68l-10 -206q79 86 190.5 148.5t230.5 62.5q159 0 250.5 -81
t91.5 -255v-934q0 -151 -101.5 -242.5t-250.5 -91.5q-143 0 -212.5 52t-69.5 134q0 55 34 82h119v-41q0 -61 40.5 -103t109.5 -42q94 0 135 51.5t41 171.5v940z" />
    <glyph glyph-name="Omacron" unicode="&#x14c;" horiz-adv-x="1851" 
d="M655 1802v107h541v-107h-541zM975 102q138 0 251 50.5t187 138t114 203.5t40 249q0 126 -27 238t-83 206.5t-136.5 162.5t-194 106.5t-249.5 38.5q-138 0 -251 -50.5t-187 -138t-114 -203.5t-40 -249q0 -126 27 -238t83 -206.5t136.5 -162.5t194 -106.5t249.5 -38.5z
M903 -20q-176 0 -326 65t-250 174t-156 251.5t-56 297.5q0 192 65 352.5t177 269t264.5 168.5t326.5 60q176 0 326 -65t250.5 -174t156.5 -252t56 -298q0 -191 -65 -352t-177.5 -269t-265 -168t-326.5 -60z" />
    <glyph glyph-name="omacron" unicode="&#x14d;" horiz-adv-x="1271" 
d="M373 1335v107h540v-107h-540zM672 88q111 0 191 57t118.5 149t38.5 206q0 229 -110.5 356t-309.5 127q-111 0 -191 -57t-118.5 -149t-38.5 -206q0 -229 110.5 -356t309.5 -127zM618 -20q-234 0 -382 149.5t-148 384.5q0 129 47 239t125 183.5t180 114.5t213 41
q234 0 382.5 -150t148.5 -385q0 -129 -47 -239t-125.5 -183t-180.5 -114t-213 -41z" />
    <glyph glyph-name="Obreve" unicode="&#x14e;" horiz-adv-x="1851" 
d="M926 1706q-185 0 -270 104t-85 304h74q18 -151 94 -219t187 -68t186.5 68t93.5 219h74q0 -200 -84.5 -304t-269.5 -104zM975 102q138 0 251 50.5t187 138t114 203.5t40 249q0 126 -27 238t-83 206.5t-136.5 162.5t-194 106.5t-249.5 38.5q-138 0 -251 -50.5t-187 -138
t-114 -203.5t-40 -249q0 -126 27 -238t83 -206.5t136.5 -162.5t194 -106.5t249.5 -38.5zM903 -20q-176 0 -326 65t-250 174t-156 251.5t-56 297.5q0 192 65 352.5t177 269t264.5 168.5t326.5 60q176 0 326 -65t250.5 -174t156.5 -252t56 -298q0 -191 -65 -352t-177.5 -269
t-265 -168t-326.5 -60z" />
    <glyph glyph-name="obreve" unicode="&#x14f;" horiz-adv-x="1271" 
d="M672 88q111 0 191 57t118.5 149t38.5 206q0 229 -110.5 356t-309.5 127q-111 0 -191 -57t-118.5 -149t-38.5 -206q0 -229 110.5 -356t309.5 -127zM618 -20q-234 0 -382 149.5t-148 384.5q0 129 47 239t125 183.5t180 114.5t213 41q234 0 382.5 -150t148.5 -385
q0 -129 -47 -239t-125.5 -183t-180.5 -114t-213 -41zM643 1231q-185 0 -269.5 103.5t-84.5 303.5h73q18 -151 93.5 -218.5t187.5 -67.5t187.5 67.5t93.5 218.5h73q0 -200 -84.5 -303.5t-269.5 -103.5z" />
    <glyph glyph-name="Ohungarumlaut" unicode="&#x150;" horiz-adv-x="1851" 
d="M975 102q138 0 251 50.5t187 138t114 203.5t40 249q0 126 -27 238t-83 206.5t-136.5 162.5t-194 106.5t-249.5 38.5q-138 0 -251 -50.5t-187 -138t-114 -203.5t-40 -249q0 -126 27 -238t83 -206.5t136.5 -162.5t194 -106.5t249.5 -38.5zM903 -20q-176 0 -326 65t-250 174
t-156 251.5t-56 297.5q0 192 65 352.5t177 269t264.5 168.5t326.5 60q176 0 326 -65t250.5 -174t156.5 -252t56 -298q0 -191 -65 -352t-177.5 -269t-265 -168t-326.5 -60zM872 2109h187l-250 -426h-74zM1182 2109h186l-250 -426h-74z" />
    <glyph glyph-name="ohungarumlaut" unicode="&#x151;" horiz-adv-x="1271" 
d="M561 1638h187l-250 -426h-74zM870 1638h187l-250 -426h-74zM672 88q111 0 191 57t118.5 149t38.5 206q0 229 -110.5 356t-309.5 127q-111 0 -191 -57t-118.5 -149t-38.5 -206q0 -229 110.5 -356t309.5 -127zM618 -20q-234 0 -382 149.5t-148 384.5q0 129 47 239
t125 183.5t180 114.5t213 41q234 0 382.5 -150t148.5 -385q0 -129 -47 -239t-125.5 -183t-180.5 -114t-213 -41z" />
    <glyph glyph-name="OE" unicode="&#x152;" horiz-adv-x="2662" 
d="M903 -20q-176 0 -326 65t-250 174t-156 251.5t-56 297.5q0 191 66 352t179 269.5t265 168.5t323 60q84 0 187 -21h1310l6 -360h-38q-66 156 -134.5 212t-205.5 56h-707q168 -102 265.5 -275t103.5 -372h288q73 0 110.5 52.5t57.5 162.5h58v-518h-58q-20 109 -57.5 161
t-110.5 52h-288q-13 -227 -119.5 -401.5t-280.5 -274.5h750q81 0 127 8.5t92 48.5t73 79t91 143q7 11 10 16h49l-71 -387h-1360q-102 -20 -193 -20zM975 102q138 0 251 50.5t187 138t114 203.5t40 249q0 126 -27 238t-83 206.5t-136.5 162.5t-194 106.5t-249.5 38.5
q-138 0 -251 -50.5t-187 -138t-114 -203.5t-40 -249q0 -126 27 -238t83 -206.5t136.5 -162.5t194 -106.5t249.5 -38.5z" />
    <glyph glyph-name="oe" unicode="&#x153;" horiz-adv-x="2097" 
d="M1567 1092q213 0 328.5 -119t115.5 -309v-50h-827q-15 -227 101.5 -365t316.5 -138q125 0 206.5 45t155.5 139l51 -19q-47 -131 -159.5 -213.5t-292.5 -82.5q-164 0 -285.5 71.5t-185.5 192.5q-74 -125 -200.5 -194.5t-273.5 -69.5q-234 0 -382 149.5t-148 384.5
q0 129 47 239t125 183.5t180 114.5t213 41q156 0 274.5 -69.5t182.5 -193.5q70 124 188.5 193.5t268.5 69.5zM672 88q111 0 191 57t118.5 149t38.5 206q0 229 -110.5 356t-309.5 127q-111 0 -191 -57t-118.5 -149t-38.5 -206q0 -229 110.5 -356t309.5 -127zM1526 987
q-124 0 -212.5 -78.5t-115.5 -206.5h643q0 126 -83 205.5t-232 79.5z" />
    <glyph glyph-name="Racute" unicode="&#x154;" horiz-adv-x="1730" 
d="M786 1507h-272v-684h272q241 0 341 80.5t100 253.5q0 350 -441 350zM94 1597h717q138 0 245.5 -26t173 -68t107.5 -100t58 -116.5t16 -123.5q0 -96 -42.5 -175t-115.5 -131t-169 -80.5t-205 -28.5q109 -31 225 -160l364 -404q52 -58 112.5 -84.5t139.5 -31.5v-68h-256
q-55 24 -96.5 59.5t-107.5 106.5l-396 434q-77 82 -136 108.5t-138 26.5h-76v-497q0 -52 17 -85.5t53.5 -51t77.5 -24t106 -9.5v-68h-674v68q65 3 106 9.5t77.5 24t53.5 51t17 85.5v1122q0 52 -17 85.5t-53.5 51t-77.5 24t-106 9.5v67zM860 2109h207l-305 -426h-68z" />
    <glyph glyph-name="racute" unicode="&#x155;" horiz-adv-x="917" 
d="M678 1638h207l-305 -426h-68zM461 1087l-10 -294q26 41 37 59.5t37.5 57t43.5 58t44.5 47.5t51 42t53.5 24.5t60 10.5q61 0 90 -29v-131h-63q-110 0 -180 -44.5t-174 -174.5v-525q0 -23 4 -40t10 -29t21 -21t27.5 -14.5t40.5 -10.5t49 -7.5t63 -6.5v-59h-545v59
q36 5 55 8t46 11t40 19.5t23 31.5t10 47v719l-164 53v41l260 98h70z" />
    <glyph glyph-name="Rcommaaccent" unicode="&#x156;" horiz-adv-x="1730" 
d="M961 -336h-70q-43 11 -66.5 38.5t-23.5 68.5q0 50 33 82t88 32q67 0 102 -45t35 -110q0 -46 -12 -86t-38.5 -75.5t-77 -57t-120.5 -23.5v70q121 12 150 106zM786 1507h-272v-684h272q241 0 341 80.5t100 253.5q0 350 -441 350zM94 1597h717q138 0 245.5 -26t173 -68
t107.5 -100t58 -116.5t16 -123.5q0 -96 -42.5 -175t-115.5 -131t-169 -80.5t-205 -28.5q109 -31 225 -160l364 -404q52 -58 112.5 -84.5t139.5 -31.5v-68h-256q-55 24 -96.5 59.5t-107.5 106.5l-396 434q-77 82 -136 108.5t-138 26.5h-76v-497q0 -52 17 -85.5t53.5 -51
t77.5 -24t106 -9.5v-68h-674v68q65 3 106 9.5t77.5 24t53.5 51t17 85.5v1122q0 52 -17 85.5t-53.5 51t-77.5 24t-106 9.5v67z" />
    <glyph glyph-name="rcommaaccent" unicode="&#x157;" horiz-adv-x="917" 
d="M428 -336h-70q-43 11 -66.5 38.5t-23.5 68.5q0 50 33 82t88 32q67 0 102 -45t35 -110q0 -47 -11.5 -86.5t-38 -75t-77 -57t-120.5 -23.5v70q69 7 102 34.5t47 71.5zM461 1087l-10 -294q26 41 37 59.5t37.5 57t43.5 58t44.5 47.5t51 42t53.5 24.5t60 10.5q61 0 90 -29
v-131h-63q-110 0 -180 -44.5t-174 -174.5v-525q0 -23 4 -40t10 -29t21 -21t27.5 -14.5t40.5 -10.5t49 -7.5t63 -6.5v-59h-545v59q36 5 55 8t46 11t40 19.5t23 31.5t10 47v719l-164 53v41l260 98h70z" />
    <glyph glyph-name="Rcaron" unicode="&#x158;" horiz-adv-x="1730" 
d="M788 1683l-303 426h70l291 -274l291 274h69l-303 -426h-115zM786 1507h-272v-684h272q241 0 341 80.5t100 253.5q0 350 -441 350zM94 1597h717q138 0 245.5 -26t173 -68t107.5 -100t58 -116.5t16 -123.5q0 -96 -42.5 -175t-115.5 -131t-169 -80.5t-205 -28.5
q109 -31 225 -160l364 -404q52 -58 112.5 -84.5t139.5 -31.5v-68h-256q-55 24 -96.5 59.5t-107.5 106.5l-396 434q-77 82 -136 108.5t-138 26.5h-76v-497q0 -52 17 -85.5t53.5 -51t77.5 -24t106 -9.5v-68h-674v68q65 3 106 9.5t77.5 24t53.5 51t17 85.5v1122q0 52 -17 85.5
t-53.5 51t-77.5 24t-106 9.5v67z" />
    <glyph glyph-name="rcaron" unicode="&#x159;" horiz-adv-x="917" 
d="M487 1212l-303 426h70l291 -274l291 274h69l-303 -426h-115zM461 1087l-10 -294q26 41 37 59.5t37.5 57t43.5 58t44.5 47.5t51 42t53.5 24.5t60 10.5q61 0 90 -29v-131h-63q-110 0 -180 -44.5t-174 -174.5v-525q0 -23 4 -40t10 -29t21 -21t27.5 -14.5t40.5 -10.5t49 -7.5
t63 -6.5v-59h-545v59q36 5 55 8t46 11t40 19.5t23 31.5t10 47v719l-164 53v41l260 98h70z" />
    <glyph glyph-name="Sacute" unicode="&#x15a;" horiz-adv-x="1300" 
d="M610 -20q-143 0 -275 36.5t-206 98.5l-14 383h55q44 -207 161 -315.5t294 -108.5q184 0 287.5 83.5t103.5 231.5q0 65 -19.5 115t-60.5 88.5t-93.5 66.5t-129.5 56l-232 84q-76 28 -132.5 60t-108 79.5t-78.5 115.5t-27 154q0 182 131.5 296t366.5 114q140 0 262.5 -37.5
t204.5 -103.5v-342h-58q-45 214 -144 301.5t-286 87.5q-150 0 -237.5 -77.5t-87.5 -205.5q0 -63 16 -109t51.5 -79.5t77.5 -56t107 -46.5l258 -96q89 -33 153.5 -70t116.5 -88.5t78 -121.5t26 -158q0 -201 -153.5 -318.5t-407.5 -117.5zM764 2109h207l-305 -426h-68z" />
    <glyph glyph-name="sacute" unicode="&#x15b;" horiz-adv-x="1013" 
d="M600 1638h207l-305 -426h-68zM496 -20q-228 0 -369 104l-12 276h61q69 -290 330 -290q113 0 181.5 48t68.5 146q0 44 -15 76.5t-48 55.5t-66.5 38t-87.5 33l-140 43q-136 41 -201 106.5t-65 190.5q0 128 98.5 206.5t260.5 78.5q187 0 346 -88v-265h-68q-23 136 -95 199
t-194 63q-94 0 -151.5 -43.5t-57.5 -130.5q0 -72 42 -110t135 -66l155 -47q151 -44 221 -118.5t70 -206.5q0 -135 -109 -217t-290 -82z" />
    <glyph glyph-name="Scircumflex" unicode="&#x15c;" horiz-adv-x="1300" 
d="M610 -20q-143 0 -275 36.5t-206 98.5l-14 383h55q44 -207 161 -315.5t294 -108.5q184 0 287.5 83.5t103.5 231.5q0 65 -19.5 115t-60.5 88.5t-93.5 66.5t-129.5 56l-232 84q-76 28 -132.5 60t-108 79.5t-78.5 115.5t-27 154q0 182 131.5 296t366.5 114q140 0 262.5 -37.5
t204.5 -103.5v-342h-58q-45 214 -144 301.5t-286 87.5q-150 0 -237.5 -77.5t-87.5 -205.5q0 -63 16 -109t51.5 -79.5t77.5 -56t107 -46.5l258 -96q89 -33 153.5 -70t116.5 -88.5t78 -121.5t26 -158q0 -201 -153.5 -318.5t-407.5 -117.5zM700 2109l304 -426h-70l-291 275
l-291 -275h-69l303 426h114z" />
    <glyph glyph-name="scircumflex" unicode="&#x15d;" horiz-adv-x="1013" 
d="M553 1638l303 -426h-70l-290 275l-291 -275h-70l303 426h115zM496 -20q-228 0 -369 104l-12 276h61q69 -290 330 -290q113 0 181.5 48t68.5 146q0 44 -15 76.5t-48 55.5t-66.5 38t-87.5 33l-140 43q-136 41 -201 106.5t-65 190.5q0 128 98.5 206.5t260.5 78.5
q187 0 346 -88v-265h-68q-23 136 -95 199t-194 63q-94 0 -151.5 -43.5t-57.5 -130.5q0 -72 42 -110t135 -66l155 -47q151 -44 221 -118.5t70 -206.5q0 -135 -109 -217t-290 -82z" />
    <glyph glyph-name="Scedilla" unicode="&#x15e;" horiz-adv-x="1300" 
d="M1171 416q0 -196 -147.5 -313t-392.5 -123l-13 -66q113 -33 175.5 -83.5t62.5 -135.5q0 -90 -73 -148.5t-181 -58.5q-105 0 -178 47l16 55q60 -22 146 -22q71 0 113 29.5t42 78.5q0 56 -52 88.5t-146 51.5l37 164q-137 5 -259.5 40.5t-191.5 94.5l-14 383h55
q44 -207 161 -315.5t294 -108.5q184 0 287.5 83.5t103.5 231.5q0 65 -19.5 115t-60.5 88.5t-93.5 66.5t-129.5 56l-232 84q-76 28 -132.5 60t-108 79.5t-78.5 115.5t-27 154q0 182 131.5 296t366.5 114q140 0 262.5 -37.5t204.5 -103.5v-342h-58q-45 214 -144 301.5
t-286 87.5q-150 0 -237.5 -77.5t-87.5 -205.5q0 -63 16 -109t51.5 -79.5t77.5 -56t107 -46.5l258 -96q89 -33 153.5 -70t116.5 -88.5t78 -121.5t26 -158z" />
    <glyph glyph-name="scedilla" unicode="&#x15f;" horiz-adv-x="1013" 
d="M895 279q0 -135 -108.5 -216t-288.5 -83l-13 -66q113 -33 175.5 -83.5t62.5 -135.5q0 -90 -73 -148.5t-181 -58.5q-105 0 -178 47l16 55q60 -22 146 -22q71 0 113 29.5t42 78.5q0 56 -52 88.5t-146 51.5l36 166q-196 11 -319 102l-12 276h61q69 -290 330 -290
q113 0 181.5 48t68.5 146q0 44 -15 76.5t-48 55.5t-66.5 38t-87.5 33l-140 43q-136 41 -201 106.5t-65 190.5q0 128 98.5 206.5t260.5 78.5q187 0 346 -88v-265h-68q-23 136 -95 199t-194 63q-94 0 -151.5 -43.5t-57.5 -130.5q0 -72 42 -110t135 -66l155 -47
q151 -44 221 -118.5t70 -206.5z" />
    <glyph glyph-name="Scaron" unicode="&#x160;" horiz-adv-x="1300" 
d="M610 -20q-143 0 -275 36.5t-206 98.5l-14 383h55q44 -207 161 -315.5t294 -108.5q184 0 287.5 83.5t103.5 231.5q0 65 -19.5 115t-60.5 88.5t-93.5 66.5t-129.5 56l-232 84q-76 28 -132.5 60t-108 79.5t-78.5 115.5t-27 154q0 182 131.5 296t366.5 114q140 0 262.5 -37.5
t204.5 -103.5v-342h-58q-45 214 -144 301.5t-286 87.5q-150 0 -237.5 -77.5t-87.5 -205.5q0 -63 16 -109t51.5 -79.5t77.5 -56t107 -46.5l258 -96q89 -33 153.5 -70t116.5 -88.5t78 -121.5t26 -158q0 -201 -153.5 -318.5t-407.5 -117.5zM586 1683l-303 426h69l291 -274
l291 274h70l-304 -426h-114z" />
    <glyph glyph-name="scaron" unicode="&#x161;" horiz-adv-x="1013" 
d="M438 1212l-303 426h70l291 -274l290 274h70l-303 -426h-115zM496 -20q-228 0 -369 104l-12 276h61q69 -290 330 -290q113 0 181.5 48t68.5 146q0 44 -15 76.5t-48 55.5t-66.5 38t-87.5 33l-140 43q-136 41 -201 106.5t-65 190.5q0 128 98.5 206.5t260.5 78.5
q187 0 346 -88v-265h-68q-23 136 -95 199t-194 63q-94 0 -151.5 -43.5t-57.5 -130.5q0 -72 42 -110t135 -66l155 -47q151 -44 221 -118.5t70 -206.5q0 -135 -109 -217t-290 -82z" />
    <glyph glyph-name="Tcommaaccent" unicode="&#x162;" horiz-adv-x="1669" 
d="M870 -336h-69q-43 11 -66.5 38.5t-23.5 68.5q0 50 32.5 82t87.5 32q67 0 102.5 -45t35.5 -110q0 -46 -12 -86t-38.5 -75.5t-77 -57t-120.5 -23.5v70q69 7 102 34.5t47 71.5zM119 1597h1429l37 -401h-49q-77 159 -109 203q-52 74 -129 95q-55 15 -145 15h-238v-1271
q0 -42 12.5 -72t32.5 -48t55 -29t69.5 -15t86.5 -6v-68h-675v68q52 2 86.5 6t69.5 15t55 29t32.5 48t12.5 72v1271h-236q-59 0 -100.5 -5t-75.5 -21t-56.5 -35t-47.5 -57t-45 -77t-52 -105q-4 -9 -6 -13h-49z" />
    <glyph glyph-name="tcommaaccent" unicode="&#x163;" horiz-adv-x="815" 
d="M457 -336h-70q-43 11 -66.5 38.5t-23.5 68.5q0 50 33 82t88 32q67 0 102 -45t35 -110q0 -46 -12 -86t-38.5 -75.5t-77 -57t-120.5 -23.5v70q121 12 150 106zM379 1294v-223h330v-88h-330v-678q0 -215 203 -215q81 0 159 37l19 -39q-39 -44 -104.5 -76t-147.5 -32
q-128 0 -205.5 67.5t-77.5 206.5v729h-157v47q83 60 141.5 115.5t128.5 148.5h41z" />
    <glyph glyph-name="Tcaron" unicode="&#x164;" horiz-adv-x="1669" 
d="M772 1683l-303 426h70l290 -274l291 274h70l-303 -426h-115zM119 1597h1429l37 -401h-49q-77 159 -109 203q-52 74 -129 95q-55 15 -145 15h-238v-1271q0 -42 12.5 -72t32.5 -48t55 -29t69.5 -15t86.5 -6v-68h-675v68q52 2 86.5 6t69.5 15t55 29t32.5 48t12.5 72v1271
h-236q-59 0 -100.5 -5t-75.5 -21t-56.5 -35t-47.5 -57t-45 -77t-52 -105q-4 -9 -6 -13h-49z" />
    <glyph glyph-name="tcaron" unicode="&#x165;" horiz-adv-x="815" 
d="M520 1638h154l-115 -426h-65zM379 1294v-223h330v-88h-330v-678q0 -215 203 -215q81 0 159 37l19 -39q-39 -44 -104.5 -76t-147.5 -32q-128 0 -205.5 67.5t-77.5 206.5v729h-157v47q83 60 141.5 115.5t128.5 148.5h41z" />
    <glyph glyph-name="Tbar" unicode="&#x166;" horiz-adv-x="1669" 
d="M119 1597h1429l37 -401h-49q-77 159 -109 203q-52 74 -129 95q-55 15 -145 15h-238v-696h357v-96h-357v-479q0 -42 12.5 -72t32.5 -48t55 -29t69.5 -15t86.5 -6v-68h-675v68q52 2 86.5 6t69.5 15t55 29t32.5 48t12.5 72v479h-351v96h351v696h-236q-59 0 -100.5 -5
t-75.5 -21t-56.5 -35t-47.5 -57t-45 -77t-52 -105q-4 -9 -6 -13h-49z" />
    <glyph glyph-name="tbar" unicode="&#x167;" horiz-adv-x="815" 
d="M68 616v89h157v278h-157v47q83 60 141.5 115.5t128.5 148.5h45v-223h326v-88h-326v-278h322v-89h-322v-311q0 -108 48.5 -161.5t150.5 -53.5q81 0 159 37l19 -39q-39 -44 -104.5 -76t-147.5 -32q-128 0 -205.5 67.5t-77.5 206.5v362h-157z" />
    <glyph glyph-name="Utilde" unicode="&#x168;" horiz-adv-x="1794" 
d="M1073 1741q-45 0 -92.5 19t-80.5 42.5t-72.5 42.5t-69.5 19q-53 0 -80.5 -20t-63.5 -87l-67 8q79 215 254 215q45 0 92.5 -19t80.5 -42t72.5 -42t69.5 -19q53 0 80.5 19.5t63.5 86.5l67 -8q-78 -215 -254 -215zM440 1360v-776q0 -235 124.5 -360.5t334.5 -125.5
q256 0 386 123.5t130 368.5v770q0 52 -15.5 85.5t-50 51t-74 24t-104.5 9.5v67h603v-67q-51 -2 -85.5 -6t-68.5 -15t-53 -29t-31 -48t-12 -72v-817q0 -135 -50 -243t-136 -177.5t-198.5 -106t-240.5 -36.5q-189 0 -327.5 61t-218 190t-79.5 316v813q0 52 -17 85.5t-53.5 51
t-77.5 24t-106 9.5v67h674v-67q-65 -3 -106 -9.5t-77.5 -24t-53.5 -51t-17 -85.5z" />
    <glyph glyph-name="utilde" unicode="&#x169;" horiz-adv-x="1372" 
d="M944 -20l10 206q-40 -44 -74.5 -75t-83.5 -64t-107.5 -50t-123.5 -17q-154 0 -246 82.5t-92 259.5v579q0 55 -30 72.5t-121 27.5l-37 3v67l309 21h45l-10 -218v-536q0 -121 62.5 -180.5t168.5 -59.5q91 0 171.5 46.5t168.5 127.5v629q0 55 -30 72.5t-121 27.5l-39 3v67
l311 21h45l-10 -218v-663q0 -50 22.5 -63.5t106.5 -24.5l57 -8v-62l-335 -73h-17zM805 1249q-57 0 -116.5 30.5t-111 60.5t-88.5 30q-54 0 -80.5 -19t-62.5 -87l-67 10q79 215 253 215q45 0 92.5 -19t81 -42.5t73 -42.5t69.5 -19q53 0 79.5 20t63.5 87l68 -9
q-78 -215 -254 -215z" />
    <glyph glyph-name="Umacron" unicode="&#x16a;" horiz-adv-x="1794" 
d="M666 1802v107h540v-107h-540zM440 1360v-776q0 -235 124.5 -360.5t334.5 -125.5q256 0 386 123.5t130 368.5v770q0 52 -15.5 85.5t-50 51t-74 24t-104.5 9.5v67h603v-67q-51 -2 -85.5 -6t-68.5 -15t-53 -29t-31 -48t-12 -72v-817q0 -135 -50 -243t-136 -177.5
t-198.5 -106t-240.5 -36.5q-189 0 -327.5 61t-218 190t-79.5 316v813q0 52 -17 85.5t-53.5 51t-77.5 24t-106 9.5v67h674v-67q-65 -3 -106 -9.5t-77.5 -24t-53.5 -51t-17 -85.5z" />
    <glyph glyph-name="umacron" unicode="&#x16b;" horiz-adv-x="1372" 
d="M944 -20l10 206q-40 -44 -74.5 -75t-83.5 -64t-107.5 -50t-123.5 -17q-154 0 -246 82.5t-92 259.5v579q0 55 -30 72.5t-121 27.5l-37 3v67l309 21h45l-10 -218v-536q0 -121 62.5 -180.5t168.5 -59.5q91 0 171.5 46.5t168.5 127.5v629q0 55 -30 72.5t-121 27.5l-39 3v67
l311 21h45l-10 -218v-663q0 -50 22.5 -63.5t106.5 -24.5l57 -8v-62l-335 -73h-17zM397 1335v107h541v-107h-541z" />
    <glyph glyph-name="Ubreve" unicode="&#x16c;" horiz-adv-x="1794" 
d="M936 1706q-185 0 -269.5 104t-84.5 304h73q18 -151 94 -219t187 -68t187 68t94 219h73q0 -200 -84.5 -304t-269.5 -104zM440 1360v-776q0 -235 124.5 -360.5t334.5 -125.5q256 0 386 123.5t130 368.5v770q0 52 -15.5 85.5t-50 51t-74 24t-104.5 9.5v67h603v-67
q-51 -2 -85.5 -6t-68.5 -15t-53 -29t-31 -48t-12 -72v-817q0 -135 -50 -243t-136 -177.5t-198.5 -106t-240.5 -36.5q-189 0 -327.5 61t-218 190t-79.5 316v813q0 52 -17 85.5t-53.5 51t-77.5 24t-106 9.5v67h674v-67q-65 -3 -106 -9.5t-77.5 -24t-53.5 -51t-17 -85.5z" />
    <glyph glyph-name="ubreve" unicode="&#x16d;" horiz-adv-x="1372" 
d="M944 -20l10 206q-40 -44 -74.5 -75t-83.5 -64t-107.5 -50t-123.5 -17q-154 0 -246 82.5t-92 259.5v579q0 55 -30 72.5t-121 27.5l-37 3v67l309 21h45l-10 -218v-536q0 -121 62.5 -180.5t168.5 -59.5q91 0 171.5 46.5t168.5 127.5v629q0 55 -30 72.5t-121 27.5l-39 3v67
l311 21h45l-10 -218v-663q0 -50 22.5 -63.5t106.5 -24.5l57 -8v-62l-335 -73h-17zM668 1231q-185 0 -270 103.5t-85 303.5h74q18 -151 93.5 -218.5t187.5 -67.5q111 0 186.5 67.5t93.5 218.5h74q0 -200 -84.5 -303.5t-269.5 -103.5z" />
    <glyph glyph-name="Uring" unicode="&#x16e;" horiz-adv-x="1794" 
d="M440 1360v-776q0 -235 124.5 -360.5t334.5 -125.5q256 0 386 123.5t130 368.5v770q0 52 -15.5 85.5t-50 51t-74 24t-104.5 9.5v67h603v-67q-51 -2 -85.5 -6t-68.5 -15t-53 -29t-31 -48t-12 -72v-817q0 -135 -50 -243t-136 -177.5t-198.5 -106t-240.5 -36.5
q-189 0 -327.5 61t-218 190t-79.5 316v813q0 52 -17 85.5t-53.5 51t-77.5 24t-106 9.5v67h674v-67q-65 -3 -106 -9.5t-77.5 -24t-53.5 -51t-17 -85.5zM707 1896q0 99 64 166.5t165 67.5t165 -67.5t64 -166.5t-64 -166t-165 -67t-165 67t-64 166zM1067 1896q0 68 -33 110
t-98 42t-97 -42t-32 -110t32 -109.5t97 -41.5t98 41.5t33 109.5z" />
    <glyph glyph-name="uring" unicode="&#x16f;" horiz-adv-x="1372" 
d="M438 1419q0 99 64.5 166.5t165.5 67.5t165 -67.5t64 -166.5t-64 -166t-165 -67t-165.5 67.5t-64.5 165.5zM799 1419q0 68 -33 111t-98 43q-64 0 -96.5 -42.5t-32.5 -111.5q0 -67 32.5 -109t96.5 -42q65 0 98 42t33 109zM944 -20l10 206q-40 -44 -74.5 -75t-83.5 -64
t-107.5 -50t-123.5 -17q-154 0 -246 82.5t-92 259.5v579q0 55 -30 72.5t-121 27.5l-37 3v67l309 21h45l-10 -218v-536q0 -121 62.5 -180.5t168.5 -59.5q91 0 171.5 46.5t168.5 127.5v629q0 55 -30 72.5t-121 27.5l-39 3v67l311 21h45l-10 -218v-663q0 -50 22.5 -63.5
t106.5 -24.5l57 -8v-62l-335 -73h-17z" />
    <glyph glyph-name="Uhungarumlaut" unicode="&#x170;" horiz-adv-x="1794" 
d="M440 1360v-776q0 -235 124.5 -360.5t334.5 -125.5q256 0 386 123.5t130 368.5v770q0 52 -15.5 85.5t-50 51t-74 24t-104.5 9.5v67h603v-67q-51 -2 -85.5 -6t-68.5 -15t-53 -29t-31 -48t-12 -72v-817q0 -135 -50 -243t-136 -177.5t-198.5 -106t-240.5 -36.5
q-189 0 -327.5 61t-218 190t-79.5 316v813q0 52 -17 85.5t-53.5 51t-77.5 24t-106 9.5v67h674v-67q-65 -3 -106 -9.5t-77.5 -24t-53.5 -51t-17 -85.5zM885 2109h186l-250 -426h-73zM1194 2109h186l-250 -426h-73z" />
    <glyph glyph-name="uhungarumlaut" unicode="&#x171;" horiz-adv-x="1372" 
d="M944 -20l10 206q-40 -44 -74.5 -75t-83.5 -64t-107.5 -50t-123.5 -17q-154 0 -246 82.5t-92 259.5v579q0 55 -30 72.5t-121 27.5l-37 3v67l309 21h45l-10 -218v-536q0 -121 62.5 -180.5t168.5 -59.5q91 0 171.5 46.5t168.5 127.5v629q0 55 -30 72.5t-121 27.5l-39 3v67
l311 21h45l-10 -218v-663q0 -50 22.5 -63.5t106.5 -24.5l57 -8v-62l-335 -73h-17zM588 1638h186l-250 -426h-73zM897 1638h186l-249 -426h-74z" />
    <glyph glyph-name="Uogonek" unicode="&#x172;" horiz-adv-x="1794" 
d="M440 1360v-776q0 -235 124.5 -360.5t334.5 -125.5q256 0 386 123.5t130 368.5v770q0 52 -15.5 85.5t-50 51t-74 24t-104.5 9.5v67h603v-67q-51 -2 -85.5 -6t-68.5 -15t-53 -29t-31 -48t-12 -72v-817q0 -112 -35 -207t-97.5 -162.5t-145 -112.5t-181.5 -65
q-96 -37 -157.5 -103t-61.5 -157q0 -70 44.5 -111t119.5 -41q61 0 133 31l22 -45q-82 -82 -211 -82q-102 0 -168.5 56.5t-66.5 172.5q0 162 162 263q-280 5 -443.5 149t-163.5 418v813q0 52 -17 85.5t-53.5 51t-77.5 24t-106 9.5v67h674v-67q-65 -3 -106 -9.5t-77.5 -24
t-53.5 -51t-17 -85.5z" />
    <glyph glyph-name="uogonek" unicode="&#x173;" horiz-adv-x="1372" 
d="M944 -20l10 206q-40 -44 -74.5 -75t-83.5 -64t-107.5 -50t-123.5 -17q-154 0 -246 82.5t-92 259.5v579q0 55 -30 72.5t-121 27.5l-37 3v67l309 21h45l-10 -218v-536q0 -121 62.5 -180.5t168.5 -59.5q91 0 171.5 46.5t168.5 127.5v629q0 55 -30 72.5t-121 27.5l-39 3v67
l311 21h45l-10 -218v-663q0 -50 22.5 -63.5t106.5 -24.5l57 -8v-62q-123 -39 -188.5 -123t-65.5 -194q0 -70 44.5 -111t119.5 -41q61 0 133 31l23 -45q-82 -82 -211 -82q-102 0 -169 56.5t-67 172.5q0 98 59 176.5t161 122.5l-174 -36h-17z" />
    <glyph glyph-name="Wcircumflex" unicode="&#x174;" horiz-adv-x="2351" 
d="M1659 266l373 1065q26 80 26 99q0 52 -52.5 73.5t-180.5 26.5v67h506v-67q-61 -9 -94.5 -25t-49.5 -59l-532 -1471h-41l-426 1061l-424 -1061h-41l-559 1471q-17 42 -51 58.5t-93 25.5v67h566v-67q-129 -5 -180.5 -25.5t-51.5 -72.5q0 -21 27 -97l405 -1067l349 883
l-113 295q-16 41 -49.5 58t-91.5 26v67h563v-67q-129 -5 -180.5 -25.5t-51.5 -72.5q0 -24 27 -99zM1214 2109l304 -426h-70l-291 275l-291 -275h-69l303 426h114z" />
    <glyph glyph-name="wcircumflex" unicode="&#x175;" horiz-adv-x="1753" 
d="M944 1638l303 -426h-69l-291 275l-291 -275h-70l303 426h115zM1241 242l236 622q20 56 20 74q0 35 -33.5 49t-122.5 25v59h392v-59q-76 -25 -95.5 -37.5t-31.5 -44.5l-381 -955h-27l-315 742l-301 -742h-27l-408 955q-13 33 -31 44t-96 38v59h461v-59q-98 -15 -130 -27.5
t-32 -46.5q0 -20 21 -74l262 -626l229 581l-43 111q-13 33 -31 44t-98 38v59h463v-59q-93 -13 -126 -26.5t-33 -47.5q0 -31 18 -74z" />
    <glyph glyph-name="Ycircumflex" unicode="&#x176;" horiz-adv-x="1507" 
d="M793 766l370 577q35 52 35 97q0 47 -44 66.5t-173 23.5v67h506v-67q-53 -8 -85.5 -25.5t-58.5 -58.5l-503 -772v-436q0 -52 15.5 -85.5t50.5 -51t74.5 -24t104.5 -9.5v-68h-653v68q65 3 104.5 9.5t75 24t51 51t15.5 85.5v428l-514 780q-26 41 -58.5 58.5t-85.5 25.5v67
h574v-67q-126 -4 -172.5 -24.5t-46.5 -67.5q0 -37 28 -84zM844 2109l303 -426h-70l-291 275l-290 -275h-70l303 426h115z" />
    <glyph glyph-name="ycircumflex" unicode="&#x177;" horiz-adv-x="1206" 
d="M580 -2l-428 924q-17 35 -36 48t-96 42v59h461v-59q-89 -11 -122 -25t-33 -49q0 -24 14 -55l315 -711l275 711q14 38 14 55q0 35 -33.5 49t-122.5 25v59h398v-59q-78 -29 -97.5 -42t-33.5 -48l-475 -1186q-57 -142 -126.5 -196t-156.5 -54q-52 0 -92.5 20.5t-54.5 51.5
v90h129q86 0 139 35t88 127zM653 1638l303 -426h-69l-291 275l-291 -275h-69l303 426h114z" />
    <glyph glyph-name="Ydieresis" unicode="&#x178;" horiz-adv-x="1507" 
d="M793 766l370 577q35 52 35 97q0 47 -44 66.5t-173 23.5v67h506v-67q-53 -8 -85.5 -25.5t-58.5 -58.5l-503 -772v-436q0 -52 15.5 -85.5t50.5 -51t74.5 -24t104.5 -9.5v-68h-653v68q65 3 104.5 9.5t75 24t51 51t15.5 85.5v428l-514 780q-26 41 -58.5 58.5t-85.5 25.5v67
h574v-67q-126 -4 -172.5 -24.5t-46.5 -67.5q0 -37 28 -84zM461 1862q0 47 33.5 81.5t80.5 34.5t82 -34.5t35 -81.5t-35 -81t-82 -34t-80.5 34t-33.5 81zM868 1862q0 47 34 81.5t81 34.5t82 -34.5t35 -81.5t-35 -81t-82 -34t-81 34t-34 81z" />
    <glyph glyph-name="Zacute" unicode="&#x179;" horiz-adv-x="1521" 
d="M307 90h686q52 0 92.5 8t73 27t57 42t50 61.5t46 75.5t49.5 94l9 18h53l-73 -416h-1276v39l1089 1468h-637q-48 0 -81.5 -4.5t-64 -20t-51.5 -35t-46 -59t-45.5 -82t-51.5 -114.5h-45l6 405h1246v-41zM885 2109h207l-306 -426h-67z" />
    <glyph glyph-name="zacute" unicode="&#x17a;" horiz-adv-x="1075" 
d="M686 1638h207l-305 -426h-68zM92 0v35l662 952h-357q-85 0 -135 -43.5t-80 -169.5h-67l28 348h68l25 -51h722v-37l-649 -950h369q196 0 244 240h61l-27 -324h-864z" />
    <glyph glyph-name="Zdotaccent" unicode="&#x17b;" horiz-adv-x="1521" 
d="M645 1862q0 51 34 85.5t85 34.5t86 -34.5t35 -85.5t-35 -85t-86 -34t-85 34t-34 85zM307 90h686q52 0 92.5 8t73 27t57 42t50 61.5t46 75.5t49.5 94l9 18h53l-73 -416h-1276v39l1089 1468h-637q-48 0 -81.5 -4.5t-64 -20t-51.5 -35t-46 -59t-45.5 -82t-51.5 -114.5h-45
l6 405h1246v-41z" />
    <glyph glyph-name="zdotaccent" unicode="&#x17c;" horiz-adv-x="1075" 
d="M92 0v35l662 952h-357q-85 0 -135 -43.5t-80 -169.5h-67l28 348h68l25 -51h722v-37l-649 -950h369q196 0 244 240h61l-27 -324h-864zM436 1419q0 51 34 86t85 35t86 -35t35 -86t-35 -85t-86 -34t-85 34t-34 85z" />
    <glyph glyph-name="Zcaron" unicode="&#x17d;" horiz-adv-x="1521" 
d="M707 1683l-304 426h70l291 -274l291 274h69l-303 -426h-114zM307 90h686q52 0 92.5 8t73 27t57 42t50 61.5t46 75.5t49.5 94l9 18h53l-73 -416h-1276v39l1089 1468h-637q-48 0 -81.5 -4.5t-64 -20t-51.5 -35t-46 -59t-45.5 -82t-51.5 -114.5h-45l6 405h1246v-41z" />
    <glyph glyph-name="zcaron" unicode="&#x17e;" horiz-adv-x="1075" 
d="M498 1212l-303 426h69l291 -274l291 274h69l-303 -426h-114zM92 0v35l662 952h-357q-85 0 -135 -43.5t-80 -169.5h-67l28 348h68l25 -51h722v-37l-649 -950h369q196 0 244 240h61l-27 -324h-864z" />
    <glyph glyph-name="florin" unicode="&#x192;" horiz-adv-x="1013" 
d="M399 -217h-166l82 879h-231l8 77h232l14 150q19 197 118 299t289 102q120 0 184 -42.5t64 -117.5q0 -38 -21 -69t-44 -41h-127q6 27 6 57q0 119 -117 119q-164 0 -188 -303l-15 -154h328l-8 -77h-330z" />
    <glyph glyph-name="Scommaaccent" unicode="&#x218;" horiz-adv-x="1300" 
d="M653 -336h-69q-43 11 -66.5 38.5t-23.5 68.5q0 50 32.5 82t87.5 32q67 0 102.5 -45t35.5 -110q0 -46 -12 -86t-38.5 -75.5t-77 -57t-120.5 -23.5v70q69 7 102 34.5t47 71.5zM610 -20q-143 0 -275 36.5t-206 98.5l-14 383h55q44 -207 161 -315.5t294 -108.5
q184 0 287.5 83.5t103.5 231.5q0 65 -19.5 115t-60.5 88.5t-93.5 66.5t-129.5 56l-232 84q-76 28 -132.5 60t-108 79.5t-78.5 115.5t-27 154q0 182 131.5 296t366.5 114q140 0 262.5 -37.5t204.5 -103.5v-342h-58q-45 214 -144 301.5t-286 87.5q-150 0 -237.5 -77.5
t-87.5 -205.5q0 -63 16 -109t51.5 -79.5t77.5 -56t107 -46.5l258 -96q89 -33 153.5 -70t116.5 -88.5t78 -121.5t26 -158q0 -201 -153.5 -318.5t-407.5 -117.5z" />
    <glyph glyph-name="scommaaccent" unicode="&#x219;" horiz-adv-x="1013" 
d="M532 -336h-69q-43 11 -66.5 38.5t-23.5 68.5q0 50 33 82t88 32q67 0 102 -45t35 -110q0 -46 -12 -86t-38.5 -75.5t-77 -57t-120.5 -23.5v70q69 7 102 34.5t47 71.5zM496 -20q-228 0 -369 104l-12 276h61q69 -290 330 -290q113 0 181.5 48t68.5 146q0 44 -15 76.5
t-48 55.5t-66.5 38t-87.5 33l-140 43q-136 41 -201 106.5t-65 190.5q0 128 98.5 206.5t260.5 78.5q187 0 346 -88v-265h-68q-23 136 -95 199t-194 63q-94 0 -151.5 -43.5t-57.5 -130.5q0 -72 42 -110t135 -66l155 -47q151 -44 221 -118.5t70 -206.5q0 -135 -109 -217
t-290 -82z" />
    <glyph glyph-name="dotlessj" unicode="&#x237;" horiz-adv-x="571" 
d="M236 895l-164 53v41l260 98h69l-10 -219v-768q0 -131 -6.5 -184.5t-32.5 -114.5q-19 -45 -66.5 -107t-86.5 -103t-101 -103l-43 39l103 162q47 72 62.5 158t15.5 221v827z" />
    <glyph glyph-name="circumflex" unicode="&#x2c6;" horiz-adv-x="1228" 
d="M672 1638l303 -426h-70l-291 275l-290 -275h-70l303 426h115z" />
    <glyph glyph-name="caron" unicode="&#x2c7;" horiz-adv-x="1228" 
d="M557 1212l-303 426h70l290 -274l291 274h70l-303 -426h-115z" />
    <glyph glyph-name="breve" unicode="&#x2d8;" horiz-adv-x="1228" 
d="M614 1231q-185 0 -269.5 103.5t-84.5 303.5h74q18 -151 93.5 -218.5t186.5 -67.5q112 0 187.5 67.5t93.5 218.5h74q0 -200 -85 -303.5t-270 -103.5z" />
    <glyph glyph-name="dotaccent" unicode="&#x2d9;" horiz-adv-x="1228" 
d="M494 1419q0 51 33.5 86t84.5 35t86 -35t35 -86t-35 -85t-86 -34t-84.5 34t-33.5 85z" />
    <glyph glyph-name="ring" unicode="&#x2da;" horiz-adv-x="1228" 
d="M385 1419q0 99 64 166.5t165 67.5t165.5 -67.5t64.5 -166.5q0 -98 -64.5 -165.5t-165.5 -67.5t-165 67t-64 166zM745 1419q0 68 -33 111t-98 43q-64 0 -96.5 -42.5t-32.5 -111.5q0 -67 32.5 -109t96.5 -42q65 0 98 42t33 109z" />
    <glyph glyph-name="ogonek" unicode="&#x2db;" horiz-adv-x="1228" 
d="M750 53l30 -53q-115 -35 -188.5 -100t-73.5 -164q0 -70 44.5 -111t119.5 -41q61 0 133 31l23 -45q-82 -82 -211 -82q-102 0 -169 56.5t-67 172.5q0 234 359 336z" />
    <glyph glyph-name="tilde" unicode="&#x2dc;" horiz-adv-x="1228" 
d="M750 1249q-57 0 -116.5 30.5t-111 60.5t-88.5 30q-54 0 -80.5 -19t-62.5 -87l-68 10q79 215 254 215q45 0 92.5 -19t81 -42.5t73 -42.5t69.5 -19q53 0 79.5 20t63.5 87l68 -9q-78 -215 -254 -215z" />
    <glyph glyph-name="hungarumlaut" unicode="&#x2dd;" horiz-adv-x="1228" 
d="M434 1638h187l-250 -426h-74zM743 1638h187l-250 -426h-74z" />
    <glyph glyph-name="uni0300" unicode="&#x300;" horiz-adv-x="1228" 
d="M403 2109h250l172 -426h-92z" />
    <glyph glyph-name="uni0301" unicode="&#x301;" horiz-adv-x="1228" 
d="M575 2109h250l-329 -426h-93z" />
    <glyph glyph-name="uni0302" unicode="&#x302;" horiz-adv-x="1228" 
d="M684 2109l307 -426h-94l-283 254l-282 -254h-94l307 426h139z" />
    <glyph glyph-name="uni0303" unicode="&#x303;" horiz-adv-x="1228" 
d="M748 1759q-55 0 -114.5 30.5t-111.5 60.5t-88 30q-50 0 -77.5 -21.5t-63.5 -86.5l-80 12q44 128 107.5 190t158.5 62q43 0 90.5 -19t81.5 -41.5t73 -41.5t69 -19q50 0 77.5 21.5t63.5 86.5l80 -12q-44 -128 -107.5 -190t-158.5 -62z" />
    <glyph glyph-name="uni0304" unicode="&#x304;" horiz-adv-x="1228" 
d="M336 1831v131h557v-131h-557z" />
    <glyph glyph-name="uni0305" unicode="&#x305;" horiz-adv-x="1228" 
d="M614 1704q-192 0 -278 102t-86 303h90q30 -266 274 -266q245 0 275 266h90q0 -200 -86.5 -302.5t-278.5 -102.5z" />
    <glyph glyph-name="uni0306" unicode="&#x306;" horiz-adv-x="1228" 
d="M614 2089q192 0 278.5 -103t86.5 -303h-90q-30 267 -275 267q-244 0 -274 -267h-90q0 201 86 303.5t278 102.5z" />
    <glyph glyph-name="uni0307" unicode="&#x307;" horiz-adv-x="1228" 
d="M471 1896q0 60 41.5 102t101.5 42t102 -42t42 -102t-42 -101.5t-102 -41.5t-101.5 41.5t-41.5 101.5z" />
    <glyph glyph-name="uni0308" unicode="&#x308;" horiz-adv-x="1228" 
d="M266 1896q0 60 42 102t102 42t101.5 -42t41.5 -102t-41.5 -101.5t-101.5 -41.5t-102 41.5t-42 101.5zM676 1896q0 60 41.5 102t101.5 42t102 -42t42 -102t-42 -101.5t-102 -41.5t-101.5 41.5t-41.5 101.5z" />
    <glyph glyph-name="uni0309" unicode="&#x309;" horiz-adv-x="1228" 
d="M381 1896q0 99 65.5 166.5t167.5 67.5q103 0 168.5 -67.5t65.5 -166.5q0 -98 -65.5 -165.5t-168.5 -67.5t-168 67t-65 166zM739 1896q0 62 -31.5 101t-93.5 39t-93.5 -39t-31.5 -101t31.5 -100.5t93.5 -38.5t93.5 38.5t31.5 100.5z" />
    <glyph glyph-name="uni030A" unicode="&#x30a;" horiz-adv-x="1228" 
d="M414 2109h209l-254 -426h-93zM741 2109h209l-254 -426h-92z" />
    <glyph glyph-name="uni030B" unicode="&#x30b;" horiz-adv-x="1228" 
d="M604 2109h209l137 -426h-92zM276 2109h209l138 -426h-93z" />
    <glyph glyph-name="uni030C" unicode="&#x30c;" horiz-adv-x="1228" 
d="M545 1683l-307 426h94l282 -254l283 254h94l-307 -426h-139z" />
    <glyph glyph-name="uni0312" unicode="&#x312;" horiz-adv-x="1228" 
d="M584 1446h69q43 -11 66.5 -38.5t23.5 -68.5q0 -50 -32.5 -82t-87.5 -32q-67 0 -102.5 45t-35.5 110q0 46 12 86t38.5 75.5t77 57t120.5 23.5v-70q-69 -7 -102 -34.5t-47 -71.5z" />
    <glyph glyph-name="enspace" unicode="&#x2002;" horiz-adv-x="1024" 
 />
    <glyph glyph-name="emspace" unicode="&#x2003;" horiz-adv-x="2048" 
 />
    <glyph glyph-name="threeperemspace" unicode="&#x2004;" horiz-adv-x="681" 
 />
    <glyph glyph-name="fourperemspace" unicode="&#x2005;" horiz-adv-x="512" 
 />
    <glyph glyph-name="sixperemspace" unicode="&#x2006;" horiz-adv-x="342" 
 />
    <glyph glyph-name="figurespace" unicode="&#x2007;" 
 />
    <glyph glyph-name="punctuationspace" unicode="&#x2008;" horiz-adv-x="573" 
 />
    <glyph glyph-name="thinspace" unicode="&#x2009;" horiz-adv-x="409" 
 />
    <glyph glyph-name="hairspace" unicode="&#x200a;" horiz-adv-x="204" 
 />
    <glyph glyph-name="zerowidthspace" unicode="&#x200b;" horiz-adv-x="0" 
 />
    <glyph glyph-name="figuredash" unicode="&#x2012;" 
d="M1331 752v-119h-1229v119h1229z" />
    <glyph glyph-name="endash" unicode="&#x2013;" horiz-adv-x="1024" 
d="M922 633h-820v119h820v-119z" />
    <glyph glyph-name="emdash" unicode="&#x2014;" horiz-adv-x="2048" 
d="M1946 633h-1844v119h1844v-119z" />
    <glyph glyph-name="uni2015" unicode="&#x2015;" horiz-adv-x="2867" 
d="M2765 752v-119h-2663v119h2663z" />
    <glyph glyph-name="doublebar" unicode="&#x2016;" horiz-adv-x="788" 
d="M315 1700v-1948h-110v1948h110zM584 1700v-1948h-111v1948h111z" />
    <glyph glyph-name="quoteleft" unicode="&#x2018;" horiz-adv-x="514" 
d="M190 1364h76q42 -11 67 -43t25 -78q0 -56 -36.5 -89.5t-94.5 -33.5q-74 0 -112.5 58t-38.5 137q0 59 20.5 116t60.5 108t109.5 86t157.5 44v-72q-123 -29 -178.5 -91t-55.5 -142z" />
    <glyph glyph-name="quoteright" unicode="&#x2019;" horiz-adv-x="514" 
d="M324 1407h-76q-42 11 -67 43t-25 78q0 56 36.5 89.5t94.5 33.5q74 0 112.5 -58t38.5 -137q0 -59 -20.5 -116t-60.5 -108t-109.5 -86t-157.5 -44v72q123 29 178.5 91t55.5 142z" />
    <glyph glyph-name="quotesinglbase" unicode="&#x201a;" horiz-adv-x="514" 
d="M324 4h-76q-42 11 -67 43t-25 78q0 56 36.5 89.5t94.5 33.5q74 0 112.5 -58t38.5 -137q0 -59 -20.5 -116t-60.5 -108t-109.5 -86t-157.5 -44v72q123 29 178.5 91t55.5 142z" />
    <glyph glyph-name="reversequoteleft" unicode="&#x201b;" horiz-adv-x="514" 
d="M266 1407h-76q0 -80 55.5 -142t178.5 -91v-72q-88 9 -157.5 44t-109.5 86t-60.5 108t-20.5 116q0 79 38.5 137t112.5 58q58 0 94.5 -33.5t36.5 -89.5q0 -46 -25 -78t-67 -43z" />
    <glyph glyph-name="quotedblleft" unicode="&#x201c;" horiz-adv-x="935" 
d="M190 1364h76q42 -11 67 -43t25 -78q0 -56 -36.5 -89.5t-94.5 -33.5q-74 0 -112.5 58t-38.5 137q0 59 20.5 116t60.5 108t109.5 86t157.5 44v-72q-123 -29 -178.5 -91t-55.5 -142zM612 1364h76q42 -11 67 -43t25 -78q0 -56 -36.5 -89.5t-94.5 -33.5q-74 0 -112.5 58
t-38.5 137q0 59 20.5 116t60.5 108t109.5 86t157.5 44v-72q-123 -29 -178.5 -91t-55.5 -142z" />
    <glyph glyph-name="quotedblright" unicode="&#x201d;" horiz-adv-x="935" 
d="M745 1409h-75q-42 11 -67 43t-25 78q0 56 36.5 89.5t94.5 33.5q74 0 112.5 -58t38.5 -137q0 -59 -20.5 -116t-60.5 -108t-109.5 -86t-157.5 -44v72q123 29 178 91t55 142zM324 1409h-76q-42 11 -67 43t-25 78q0 56 36.5 89.5t94.5 33.5q74 0 112.5 -58t38.5 -137
q0 -59 -20.5 -116t-60.5 -108t-109.5 -86t-157.5 -44v72q123 29 178.5 91t55.5 142z" />
    <glyph glyph-name="quotedblbase" unicode="&#x201e;" horiz-adv-x="935" 
d="M745 4h-75q-42 11 -67 43t-25 78q0 56 36.5 89.5t94.5 33.5q74 0 112.5 -58t38.5 -137q0 -59 -20.5 -116t-60.5 -108t-109.5 -86t-157.5 -44v72q123 29 178 91t55 142zM324 4h-76q-42 11 -67 43t-25 78q0 56 36.5 89.5t94.5 33.5q74 0 112.5 -58t38.5 -137
q0 -59 -20.5 -116t-60.5 -108t-109.5 -86t-157.5 -44v72q123 29 178.5 91t55.5 142z" />
    <glyph glyph-name="reversequotedblleft" unicode="&#x201f;" horiz-adv-x="935" 
d="M266 1409h-76q0 -80 55.5 -142t178.5 -91v-72q-88 9 -157.5 44t-109.5 86t-60.5 108t-20.5 116q0 79 38.5 137t112.5 58q58 0 94.5 -33.5t36.5 -89.5q0 -46 -25 -78t-67 -43zM688 1409h-76q0 -80 55.5 -142t178.5 -91v-72q-88 9 -157.5 44t-109.5 86t-60.5 108t-20.5 116
q0 79 38.5 137t112.5 58q58 0 94.5 -33.5t36.5 -89.5q0 -46 -25 -78t-67 -43z" />
    <glyph glyph-name="dagger" unicode="&#x2020;" horiz-adv-x="1406" 
d="M627 1597h153l21 -47l-72 -526l524 70l52 -21v-145l-52 -21l-524 70l72 -459l-66 -1030h-63l-66 1030l72 459l-524 -70l-52 21v145l52 21l524 -70l-72 526z" />
    <glyph glyph-name="daggerdbl" unicode="&#x2021;" horiz-adv-x="1406" 
d="M608 551l70 426l-524 -70l-52 21v145l52 21l524 -70l-72 526l21 47h153l21 -47l-72 -526l524 70l52 -21v-145l-52 -21l-524 70l74 -426l-74 -422l524 70l52 -21v-145l-52 -21l-524 70l72 -526l-21 -48h-153l-21 48l72 526l-524 -70l-52 21v145l52 21l524 -70z" />
    <glyph glyph-name="bullet" unicode="&#x2022;" horiz-adv-x="788" 
d="M182 682q0 88 61.5 150.5t149.5 62.5t150.5 -62.5t62.5 -150.5t-62.5 -149.5t-150.5 -61.5t-149.5 61.5t-61.5 149.5z" />
    <glyph glyph-name="ellipsis" unicode="&#x2026;" horiz-adv-x="2048" 
d="M199 109q0 54 37.5 92.5t91.5 38.5t92.5 -38.5t38.5 -92.5t-38.5 -91.5t-92.5 -37.5t-91.5 37.5t-37.5 91.5zM893 109q0 54 37.5 92.5t91.5 38.5t92.5 -38.5t38.5 -92.5t-38.5 -91.5t-92.5 -37.5t-91.5 37.5t-37.5 91.5zM1589 109q0 54 37.5 92.5t91.5 38.5t92.5 -38.5
t38.5 -92.5t-38.5 -91.5t-92.5 -37.5t-91.5 37.5t-37.5 91.5z" />
    <glyph glyph-name="perthousand" unicode="&#x2030;" horiz-adv-x="3014" 
d="M102 963q0 206 103 314.5t276 108.5t276 -108.5t103 -314.5t-103 -315t-276 -109t-276 109t-103 315zM713 963q0 337 -232 337q-231 0 -231 -337q0 -338 231 -338q232 0 232 338zM2038 403q0 -206 -103 -314.5t-276 -108.5t-276 108.5t-103 314.5t103 315t276 109
t276 -109t103 -315zM578 0l870 1366h115l-871 -1366h-114zM1427 403q0 -337 232 -337q231 0 231 337q0 338 -231 338q-232 0 -232 -338zM2912 403q0 -206 -103 -314.5t-276 -108.5t-276 108.5t-103 314.5t103 315t276 109t276 -109t103 -315zM2302 403q0 -337 231 -337
q232 0 232 337q0 338 -232 338q-231 0 -231 -338z" />
    <glyph glyph-name="minute" unicode="&#x2032;" horiz-adv-x="339" 
d="M143 1597h152l-94 -512h-58v512z" />
    <glyph glyph-name="second" unicode="&#x2033;" horiz-adv-x="634" 
d="M143 1597h152l-94 -512h-58v512zM438 1597h152l-94 -512h-58v512z" />
    <glyph glyph-name="tripleprime" unicode="&#x2034;" horiz-adv-x="993" 
d="M229 1073h-88l-53 524h195zM541 1073h-88l-54 524h195zM852 1073h-88l-53 524h194z" />
    <glyph glyph-name="guilsinglleft" unicode="&#x2039;" horiz-adv-x="616" 
d="M84 551v20l346 390h76l-262 -400l262 -399h-76z" />
    <glyph glyph-name="guilsinglright" unicode="&#x203a;" horiz-adv-x="616" 
d="M532 571v-20l-346 -389h-75l262 399l-262 400h75z" />
    <glyph glyph-name="fraction" unicode="&#x2044;" horiz-adv-x="579" 
d="M-303 0l1069 1597h117l-1069 -1597h-117z" />
    <glyph glyph-name="uni2070" unicode="&#x2070;" horiz-adv-x="907" 
d="M244 1102q0 -66 3 -117t11 -103t23 -89t37.5 -67t57 -45t79.5 -15t79.5 15t57 45t37.5 67t23 89t11 103t3 117t-3 117t-11 103t-23 89t-37.5 67t-57 45t-79.5 15t-79.5 -15t-57 -45t-37.5 -67t-23 -89t-11 -103t-3 -117zM823 1102q0 -238 -93 -373t-275 -135t-275.5 135
t-93.5 373t93.5 373t275.5 135t275 -135t93 -373z" />
    <glyph glyph-name="uni2074" unicode="&#x2074;" horiz-adv-x="905" 
d="M158 946h401v445zM705 606h-146v258h-526v62l600 671h72v-651h157v-82h-157v-258z" />
    <glyph glyph-name="uni2075" unicode="&#x2075;" horiz-adv-x="894" 
d="M428 659q98 0 150.5 54t52.5 159q0 94 -59 158t-156 92.5t-226 28.5l76 446h309q52 0 72.5 10.5t50.5 55.5h64l-57 -201h-390l-32 -196q215 -11 344 -101.5t129 -249.5q0 -146 -98 -233.5t-246 -87.5q-150 0 -233 61t-83 144q0 36 17 63.5t41 40.5h86v-55
q0 -189 188 -189z" />
    <glyph glyph-name="uni2076" unicode="&#x2076;" horiz-adv-x="870" 
d="M680 1548q-196 -58 -296 -157t-132 -246q102 98 246 98q133 0 219 -80t86 -223q0 -152 -101.5 -249t-255.5 -97q-165 0 -262.5 118t-97.5 296q0 220 149.5 383t413.5 215zM430 1149q-110 0 -190 -64q-4 -25 -4 -79q0 -157 61.5 -247.5t163.5 -90.5q98 0 152.5 60.5
t54.5 168.5q0 114 -63.5 183t-174.5 69z" />
    <glyph glyph-name="uni2077" unicode="&#x2077;" horiz-adv-x="866" 
d="M690 1462h-444q-44 0 -68.5 -31t-52.5 -104h-53l45 270h676v-41l-402 -950h-153z" />
    <glyph glyph-name="uni2078" unicode="&#x2078;" horiz-adv-x="870" 
d="M748 1372q0 -78 -63.5 -142.5t-143.5 -88.5l51 -23q194 -84 194 -248q0 -121 -88.5 -198.5t-261.5 -77.5q-159 0 -256.5 72t-97.5 188q0 92 61.5 160.5t159.5 97.5l-16 8q-82 42 -125 94t-43 140q0 111 83.5 183.5t227.5 72.5q146 0 232 -64.5t86 -173.5zM506 1024
l-148 63q-79 -41 -113 -100.5t-34 -122.5q0 -93 62 -144.5t165 -51.5q97 0 156 48.5t59 127.5q0 65 -35 105.5t-112 74.5zM387 1214l107 -49q72 41 100.5 90.5t28.5 120.5q0 73 -53 115.5t-140 42.5q-86 0 -134 -39.5t-48 -112.5q0 -59 34 -97t105 -71z" />
    <glyph glyph-name="uni2079" unicode="&#x2079;" horiz-adv-x="870" 
d="M221 594l-31 57q196 58 296 157.5t132 246.5q-103 -99 -245 -99q-133 0 -219 80.5t-86 223.5q0 152 101 249t255 97q165 0 262.5 -118t97.5 -296q0 -220 -149.5 -383t-413.5 -215zM440 1051q113 0 191 63q4 25 4 80q0 157 -61.5 247.5t-163.5 90.5q-98 0 -152.5 -60.5
t-54.5 -168.5q0 -114 63 -183t174 -69z" />
    <glyph glyph-name="uni207A" unicode="&#x207a;" horiz-adv-x="897" 
d="M403 719v309h-301v80h301v305h91v-305h301v-80h-301v-309h-91z" />
    <glyph glyph-name="uni207B" unicode="&#x207b;" horiz-adv-x="897" 
d="M795 1028h-693v80h693v-80z" />
    <glyph glyph-name="uni207C" unicode="&#x207c;" horiz-adv-x="897" 
d="M795 936h-693v82h693v-82zM795 1118h-693v80h693v-80z" />
    <glyph glyph-name="uni207D" unicode="&#x207d;" horiz-adv-x="499" 
d="M82 1081q0 185 75 335t222 278l53 -49q-121 -121 -188.5 -254.5t-67.5 -309.5t67.5 -309t188.5 -254l-53 -49q-147 129 -222 278t-75 334z" />
    <glyph glyph-name="uni207E" unicode="&#x207e;" horiz-adv-x="493" 
d="M412 1081q0 -186 -73 -335t-218 -277l-53 49q118 120 183.5 253t65.5 310t-65.5 311t-183.5 253l53 49q145 -128 218 -277.5t73 -335.5z" />
    <glyph glyph-name="n.superior" unicode="&#x207f;" horiz-adv-x="1013" 
d="M711 858v375q0 75 -36 105t-110 30q-55 0 -120 -25t-111 -61v-424q0 -19 6.5 -33t14 -21.5t25.5 -13t29.5 -7.5t36.5 -5v-57h-368v57q31 4 46 7t32.5 11t24.5 23t7 39v471l-104 51v33l207 74h51l-8 -139q52 56 130.5 96.5t156.5 40.5q110 0 172.5 -57t62.5 -177v-393
q0 -19 6 -33t14 -21.5t25.5 -13t30 -7.5t37.5 -5v-57h-369v57q25 3 37.5 5t29.5 7.5t24.5 13t13.5 21.5t6 33z" />
    <glyph glyph-name="uni2080" unicode="&#x2080;" horiz-adv-x="907" 
d="M244 496q0 -66 3 -117t11 -103.5t23 -89.5t37.5 -67t57 -45t79.5 -15t79.5 15t57 45t37.5 67t23 89.5t11 103.5t3 117t-3 117t-11 103t-23 89t-37.5 67t-57 45t-79.5 15t-79.5 -15t-57 -45t-37.5 -67t-23 -89t-11 -103t-3 -117zM823 496q0 -238 -93 -373t-275 -135
t-275.5 135t-93.5 373t93.5 373t275.5 135t275 -135t93 -373z" />
    <glyph glyph-name="uni2081" unicode="&#x2081;" horiz-adv-x="841" 
d="M461 1004h28v-844q0 -21 7 -36.5t24.5 -26t35 -17t51.5 -11t60 -6.5t74 -4v-59h-647v59q48 2 73.5 4t60.5 6.5t53 11t36 17t25.5 26t7.5 36.5v620h-256v47l51 7q192 28 316 170z" />
    <glyph glyph-name="uni2082" unicode="&#x2082;" horiz-adv-x="849" 
d="M227 123h258q96 0 136.5 24t91.5 121h41l-37 -268h-668v37l262 268q147 151 194.5 223.5t47.5 155.5q0 95 -54 146t-151 51q-41 0 -76 -10t-68.5 -33t-51 -38.5t-50.5 -47.5l-30 34q48 94 132 156t199 62q140 0 217.5 -76.5t77.5 -206.5q0 -42 -11.5 -82.5t-39 -83
t-54.5 -77.5t-76 -83.5t-85.5 -82.5t-100.5 -92.5t-104 -96.5z" />
    <glyph glyph-name="uni2083" unicode="&#x2083;" horiz-adv-x="886" 
d="M485 551q131 -15 209 -92.5t78 -190.5q0 -71 -29 -126t-78.5 -88t-111 -49.5t-131.5 -16.5q-147 0 -234.5 62.5t-87.5 146.5q0 35 17.5 61t42.5 39h84v-49q0 -91 48.5 -142t145.5 -51q90 0 140.5 49t50.5 146q0 221 -275 221h-61v45q69 23 115.5 43.5t89 49t63.5 64.5
t21 81q0 141 -166 141q-75 0 -132 -35t-112 -92l-33 35q105 201 318 201q125 0 193.5 -61.5t68.5 -149.5q0 -48 -21 -87.5t-61.5 -69.5t-71.5 -47t-80 -38z" />
    <glyph glyph-name="uni2084" unicode="&#x2084;" horiz-adv-x="905" 
d="M158 340h401v444zM705 0h-146v258h-526v61l600 672h72v-651h157v-82h-157v-258z" />
    <glyph glyph-name="uni2085" unicode="&#x2085;" horiz-adv-x="894" 
d="M428 53q98 0 150.5 54t52.5 159q0 94 -59 158t-156 92.5t-226 28.5l76 446h309q52 0 72.5 10.5t50.5 55.5h64l-57 -201h-390l-32 -197q215 -11 344 -101t129 -249q0 -146 -98 -233.5t-246 -87.5q-150 0 -233 61t-83 144q0 36 17 63.5t41 40.5h86v-55q0 -189 188 -189z
" />
    <glyph glyph-name="uni2086" unicode="&#x2086;" horiz-adv-x="870" 
d="M680 942q-196 -58 -296 -157t-132 -246q102 98 246 98q133 0 219 -80t86 -223q0 -152 -101.5 -249t-255.5 -97q-166 0 -263 118t-97 295q0 220 149.5 383t413.5 215zM430 543q-110 0 -190 -64q-4 -25 -4 -80q0 -157 61.5 -247.5t163.5 -90.5q98 0 152.5 61t54.5 169
q0 114 -63.5 183t-174.5 69z" />
    <glyph glyph-name="uni2087" unicode="&#x2087;" horiz-adv-x="866" 
d="M690 856h-444q-44 0 -68.5 -31t-52.5 -104h-53l45 270h676v-41l-402 -950h-153z" />
    <glyph glyph-name="uni2088" unicode="&#x2088;" horiz-adv-x="870" 
d="M748 766q0 -78 -63.5 -142.5t-143.5 -88.5l51 -23q194 -84 194 -248q0 -121 -88.5 -198.5t-261.5 -77.5q-159 0 -256.5 72t-97.5 188q0 92 61.5 160.5t159.5 97.5l-16 8q-82 42 -125 94t-43 140q0 111 83.5 183.5t227.5 72.5q146 0 232 -64.5t86 -173.5zM506 418l-148 63
q-79 -41 -113 -100.5t-34 -122.5q0 -93 62 -145t165 -52q97 0 156 48.5t59 128.5q0 65 -35 105.5t-112 74.5zM387 608l107 -49q72 41 100.5 90.5t28.5 120.5q0 73 -53 115.5t-140 42.5q-86 0 -134 -39.5t-48 -112.5q0 -59 34 -97t105 -71z" />
    <glyph glyph-name="uni2089" unicode="&#x2089;" horiz-adv-x="870" 
d="M221 -12l-31 57q196 58 296 157.5t132 246.5q-103 -99 -245 -99q-133 0 -219 80t-86 223q0 152 101 249t255 97q166 0 263 -118t97 -295q0 -220 -149.5 -383t-413.5 -215zM440 444q111 0 191 64q4 25 4 80q0 157 -61.5 247.5t-163.5 90.5q-98 0 -152.5 -61t-54.5 -169
q0 -114 63 -183t174 -69z" />
    <glyph glyph-name="uni208A" unicode="&#x208a;" horiz-adv-x="897" 
d="M403 113v309h-301v80h301v305h91v-305h301v-80h-301v-309h-91z" />
    <glyph glyph-name="uni208B" unicode="&#x208b;" horiz-adv-x="897" 
d="M795 422h-693v80h693v-80z" />
    <glyph glyph-name="uni208C" unicode="&#x208c;" horiz-adv-x="897" 
d="M795 330h-693v82h693v-82zM795 512h-693v80h693v-80z" />
    <glyph glyph-name="uni208D" unicode="&#x208d;" horiz-adv-x="499" 
d="M82 475q0 185 75 334t222 278l53 -49q-121 -121 -188.5 -254t-67.5 -309t67.5 -309t188.5 -254l-53 -49q-147 129 -222 278t-75 334z" />
    <glyph glyph-name="uni208E" unicode="&#x208e;" horiz-adv-x="493" 
d="M412 475q0 -186 -73 -335t-218 -277l-53 49q118 120 183.5 253t65.5 310t-65.5 310t-183.5 253l53 49q145 -128 218 -277t73 -335z" />
    <glyph glyph-name="Euro" unicode="&#x20ac;" horiz-adv-x="1372" 
d="M90 719v88h170q47 222 200 352.5t363 130.5q245 0 398 -123l8 -270h-62q-47 161 -130 230t-228 69q-86 0 -155 -31.5t-114 -87t-73 -123t-41 -147.5h575l-24 -88h-559v-39q0 -60 6 -119h510l-27 -88h-471q16 -86 47 -156t79.5 -126t119.5 -86.5t160 -30.5
q85 0 145.5 18.5t104.5 60t73 95.5t58 139h59l-31 -305q-202 -102 -438 -102q-224 0 -370.5 136.5t-186.5 356.5h-166v88h154q-2 20 -2 64q0 32 4 94h-156z" />
    <glyph glyph-name="afii61289" unicode="&#x2113;" horiz-adv-x="755" 
d="M457 -20q-287 0 -287 247v226q-17 -14 -115 -82v129q7 5 49.5 35t61.5 47v553q0 127 20 217t57.5 140t84.5 72.5t108 22.5q108 0 167 -74.5t59 -214.5q0 -110 -33 -225.5t-86.5 -213.5t-115 -179t-126.5 -141v-263q0 -97 34.5 -134.5t123.5 -37.5q68 0 127 23l16 -125
q-60 -22 -145 -22zM301 1155v-448q102 111 173 276.5t71 323.5q0 74 -27 117.5t-80 43.5q-137 0 -137 -313z" />
    <glyph glyph-name="afii61352" unicode="&#x2116;" horiz-adv-x="3033" 
d="M498 1395q-74 88 -117.5 111.5t-134.5 23.5v67h352l997 -1296v930q0 212 62.5 299.5t210.5 87.5q111 0 171 -47.5t60 -122.5q0 -74 -59 -115h-133v49q0 140 -84 140q-68 0 -93.5 -63t-25.5 -222v-1237h-76l-1022 1305v-938q0 -212 -62 -299.5t-210 -87.5
q-111 0 -171.5 47.5t-60.5 122.5q0 72 60 114h133v-49q0 -139 84 -139q68 0 93.5 62.5t25.5 221.5v1035zM2036 0v106h827v-106h-827zM2468 440q135 0 214 90.5t79 239.5q0 56 -12 111t-39 106.5t-66 91t-97.5 63t-129.5 23.5q-135 0 -214 -90t-79 -239q0 -71 20 -139
t59.5 -126.5t108.5 -94.5t156 -36zM2425 332q-136 0 -240.5 63.5t-157.5 165.5t-53 223q0 146 68.5 259.5t178.5 172t239 58.5q136 0 240 -63.5t157 -166t53 -223.5q0 -146 -68 -259t-178 -171.5t-239 -58.5z" />
    <glyph glyph-name="published" unicode="&#x2117;" horiz-adv-x="1822" 
d="M92 799q0 167 65 318.5t174.5 261t261 174.5t318.5 65t319 -65t261.5 -174.5t174.5 -261t65 -318.5t-65 -318.5t-174.5 -261t-261.5 -174.5t-319 -65t-318.5 65t-261 174.5t-174.5 261t-65 318.5zM154 799q0 -154 60 -294.5t161.5 -242t241.5 -161.5t294 -60t294.5 60
t242 161.5t161.5 242t60 294.5t-60 294t-161.5 241.5t-242 161.5t-294.5 60q-206 0 -380 -101.5t-275.5 -275.5t-101.5 -380zM983 729h-174v-252q0 -60 46 -81t138 -19v-51h-461v51q76 2 108 21t32 79v656q0 62 -31.5 81.5t-108.5 22.5v51h451q99 0 172.5 -22.5t115.5 -62
t62.5 -89t20.5 -108.5q0 -132 -90.5 -204.5t-280.5 -72.5zM809 1221v-424h170q112 0 167.5 50.5t55.5 160.5q0 102 -61.5 157.5t-184.5 55.5h-147z" />
    <glyph glyph-name="servicemark" unicode="&#x2120;" horiz-adv-x="1636" 
d="M293 911q-60 0 -118 17.5t-89 44.5l-8 164h39q23 -82 72.5 -126t117.5 -44q66 0 106 28.5t40 87.5q0 47 -21.5 70t-83.5 47l-104 35q-77 26 -119.5 66t-42.5 118q0 87 62.5 139t170.5 52q133 0 213 -62v-153h-41q-18 78 -60 118.5t-120 40.5q-59 0 -94 -27.5t-35 -78.5
q0 -41 24.5 -66.5t80.5 -44.5l106 -34q85 -27 125.5 -73.5t40.5 -125.5q0 -94 -74 -143.5t-188 -49.5zM1366 1087l-39 324l-211 -485h-61l-207 485l-41 -326q-6 -35 -6 -63q0 -26 18.5 -35t71.5 -12v-49h-236v49q33 1 54.5 15t23.5 30l60 475q-3 24 -21 37.5t-61 17.5v47
h182q4 -28 20 -65l201 -465l201 465q16 37 20 65h176v-47q-41 -4 -58 -17.5t-19 -37.5l57 -475q3 -24 21.5 -33t60.5 -12v-49h-293v49q54 3 73 12t19 35q0 5 -6 65z" />
    <glyph glyph-name="trademark" unicode="&#x2122;" horiz-adv-x="1708" 
d="M51 1597h631l16 -184h-43q-40 81 -62.5 102t-84.5 21h-82v-502q0 -33 25 -44.5t79 -14.5v-49h-327v49q55 3 80.5 15t25.5 44v502h-84q-26 0 -44 -4t-30 -10t-24.5 -24t-20.5 -33.5t-24 -51.5h-45zM1186 1067l200 465q18 41 21 65h176v-47q-41 -4 -58.5 -17.5t-19.5 -37.5
l58 -475q3 -24 21.5 -33t60.5 -12v-49h-293v49q54 3 73 12t19 35q0 5 -6 65l-39 324l-211 -485h-62l-206 485l-41 -326q-7 -40 -7 -63q0 -25 19 -34.5t72 -12.5v-49h-236v49q33 1 54.5 15t23.5 30l59 475q-3 24 -21 37.5t-61 17.5v47h183q4 -28 20 -65z" />
    <glyph glyph-name="estimated" unicode="&#x212e;" horiz-adv-x="1658" 
d="M1628 743h-1356q4 -105 26 -199t66 -179t107.5 -147t157 -99t207.5 -39q271 -3 438 117t190 342h133q-42 -285 -242 -423.5t-526 -138.5q-234 0 -415 99.5t-282 286t-101 432.5q0 185 58.5 338.5t163.5 259t253 163.5t323 58t323 -58t253 -163.5t164 -259t59 -338.5v-52z
M829 1511q-114 0 -206.5 -37t-154.5 -99t-105.5 -148t-64 -180t-24.5 -199h1112q-4 105 -25.5 199t-65 180t-106 148t-155 99t-205.5 37z" />
    <glyph glyph-name="uni2153" unicode="&#x2153;" horiz-adv-x="2164" 
d="M461 1610h28v-844q0 -21 7 -36.5t25 -26t34.5 -17t51.5 -10.5t60 -5.5t74 -4.5v-60h-647v60l73.5 4.5t60 5.5t53 10.5t36.5 17t26 26t7 36.5v620h-256v48l51 6q192 28 316 170zM539 0l1069 1597h116l-1069 -1597h-116zM1763 551q131 -15 209 -92.5t78 -190.5
q0 -71 -29 -126t-78.5 -88t-111 -49.5t-131.5 -16.5q-147 0 -234.5 62.5t-87.5 146.5q0 35 17.5 61t42.5 39h84v-49q0 -91 48.5 -142t145.5 -51q90 0 140.5 49t50.5 146q0 221 -275 221h-61v45q69 23 115.5 43.5t89 49t63.5 64.5t21 81q0 141 -166 141q-75 0 -132 -35
t-112 -92l-33 35q105 201 318 201q125 0 193.5 -61.5t68.5 -149.5q0 -48 -21 -87.5t-61.5 -69.5t-71.5 -47t-80 -38z" />
    <glyph glyph-name="uni2154" unicode="&#x2154;" horiz-adv-x="2131" 
d="M227 729h258q96 0 136.5 24t91.5 121h41l-37 -268h-668v37l262 268q147 151 194.5 223.5t47.5 155.5q0 95 -54 146t-151 51q-41 0 -76 -10t-68.5 -33t-51 -38.5t-50.5 -47.5l-30 35q48 94 132 155.5t199 61.5q140 0 217.5 -76.5t77.5 -206.5q0 -42 -11.5 -82.5t-39 -83
t-54.5 -77.5t-76 -83.5t-85.5 -82.5t-100.5 -92.5t-104 -96.5zM506 0l1069 1597h117l-1069 -1597h-117zM1731 551q131 -15 208.5 -92.5t77.5 -190.5q0 -71 -29 -126t-78.5 -88t-111 -49.5t-131.5 -16.5q-147 0 -234 62.5t-87 146.5q0 35 17 61t42 39h84v-49q0 -91 48.5 -142
t145.5 -51q90 0 140.5 49t50.5 146q0 221 -275 221h-61v45q69 23 115.5 43.5t89 49t63.5 64.5t21 81q0 141 -166 141q-75 0 -132 -35t-112 -92l-33 35q105 201 318 201q125 0 193.5 -61.5t68.5 -149.5q0 -39 -16 -73.5t-37 -57.5t-56.5 -46.5t-60.5 -35.5t-63 -29z" />
    <glyph glyph-name="uni2155" unicode="&#x2155;" horiz-adv-x="2172" 
d="M461 1610h28v-844q0 -21 7 -36.5t25 -26t34.5 -17t51.5 -10.5t60 -5.5t74 -4.5v-60h-647v60l73.5 4.5t60 5.5t53 10.5t36.5 17t26 26t7 36.5v620h-256v48l51 6q192 28 316 170zM539 0l1069 1597h116l-1069 -1597h-116zM1706 53q98 0 150.5 54t52.5 159q0 94 -59 158
t-156 92.5t-226 28.5l76 446h309q52 0 72.5 10.5t50.5 55.5h64l-58 -201h-389l-32 -197q215 -11 344 -101t129 -249q0 -146 -98 -233.5t-246 -87.5q-150 0 -233 61t-83 144q0 36 17 63.5t41 40.5h86v-55q0 -189 188 -189z" />
    <glyph glyph-name="uni2156" unicode="&#x2156;" horiz-adv-x="2140" 
d="M227 729h258q96 0 136.5 24t91.5 121h41l-37 -268h-668v37l262 268q147 151 194.5 223.5t47.5 155.5q0 95 -54 146t-151 51q-41 0 -76 -10t-68.5 -33t-51 -38.5t-50.5 -47.5l-30 35q48 94 132 155.5t199 61.5q140 0 217.5 -76.5t77.5 -206.5q0 -42 -11.5 -82.5t-39 -83
t-54.5 -77.5t-76 -83.5t-85.5 -82.5t-100.5 -92.5t-104 -96.5zM506 0l1069 1597h117l-1069 -1597h-117zM1673 53q98 0 150.5 54t52.5 159q0 71 -33.5 125.5t-93.5 87.5t-138.5 49.5t-174.5 16.5l75 446h310q52 0 72.5 10.5t50.5 55.5h63l-57 -201h-389l-33 -197
q215 -11 344 -101t129 -249q0 -146 -98 -233.5t-246 -87.5q-150 0 -233 61t-83 144q0 36 17 63.5t41 40.5h86v-55q0 -189 188 -189z" />
    <glyph glyph-name="uni2157" unicode="&#x2157;" horiz-adv-x="2095" 
d="M485 1157q131 -15 209 -92.5t78 -190.5q0 -71 -29 -126t-78.5 -88t-111 -49.5t-131.5 -16.5q-147 0 -234.5 62.5t-87.5 146.5q0 35 17.5 61t42.5 39h84v-49q0 -91 48.5 -141.5t145.5 -50.5q90 0 140.5 48.5t50.5 145.5q0 221 -275 221h-61v45q69 23 115.5 43.5t89 49
t63.5 64.5t21 81q0 141 -166 141q-75 0 -132 -35t-112 -92l-33 35q105 201 318 201q125 0 193.5 -61.5t68.5 -149.5q0 -48 -21 -87.5t-61.5 -69.5t-71.5 -47t-80 -38zM461 0l1069 1597h117l-1069 -1597h-117zM1628 53q98 0 150.5 54t52.5 159q0 71 -33.5 125.5t-93.5 87.5
t-138.5 49.5t-174.5 16.5l75 446h310q52 0 72 10.5t50 55.5h64l-57 -201h-389l-33 -197q215 -11 344 -101t129 -249q0 -146 -98 -233.5t-246 -87.5q-150 0 -233 61t-83 144q0 36 17 63.5t41 40.5h86v-55q0 -189 188 -189z" />
    <glyph glyph-name="uni2158" unicode="&#x2158;" horiz-adv-x="2236" 
d="M158 946h401v445zM705 606h-146v258h-526v62l600 671h72v-651h157v-82h-157v-258zM602 0l1069 1597h117l-1069 -1597h-117zM1769 53q98 0 150.5 54t52.5 159q0 71 -33.5 125.5t-93.5 87.5t-138.5 49.5t-174.5 16.5l76 446h309q52 0 72.5 10.5t50.5 55.5h63l-57 -201h-389
l-33 -197q215 -11 344 -101t129 -249q0 -146 -98 -233.5t-246 -87.5q-150 0 -232.5 61t-82.5 144q0 36 16.5 63.5t40.5 40.5h86v-55q0 -189 188 -189z" />
    <glyph glyph-name="uni2159" unicode="&#x2159;" horiz-adv-x="2107" 
d="M461 1610h28v-844q0 -21 7 -36.5t25 -26t34.5 -17t51.5 -10.5t60 -5.5t74 -4.5v-60h-647v60l73.5 4.5t60 5.5t53 10.5t36.5 17t26 26t7 36.5v620h-256v48l51 6q192 28 316 170zM539 0l1069 1597h116l-1069 -1597h-116zM1917 942q-196 -58 -296 -157t-132 -246
q102 98 246 98q133 0 219 -80t86 -223q0 -152 -101.5 -249t-255.5 -97q-166 0 -263 118t-97 295q0 220 149.5 383t413.5 215zM1667 543q-110 0 -190 -64q-4 -25 -4 -80q0 -157 61.5 -247.5t163.5 -90.5q98 0 152.5 61t54.5 169q0 114 -63.5 183t-174.5 69z" />
    <glyph glyph-name="uni215A" unicode="&#x215a;" horiz-adv-x="2017" 
d="M428 659q98 0 150.5 54t52.5 159q0 94 -59 158t-156 92.5t-226 28.5l76 446h309q52 0 72.5 10.5t50.5 55.5h64l-57 -201h-390l-32 -196q215 -11 344 -101.5t129 -249.5q0 -146 -98 -233.5t-246 -87.5q-150 0 -233 61t-83 144q0 36 17 63.5t41 40.5h86v-55
q0 -189 188 -189zM449 0l1069 1597h116l-1069 -1597h-116zM1827 942q-196 -58 -296 -157t-132 -246q102 98 246 98q133 0 219 -80t86 -223q0 -152 -101.5 -249t-255.5 -97q-166 0 -263 118t-97 295q0 220 149.5 383t413.5 215zM1577 543q-111 0 -191 -64q-4 -25 -4 -80
q0 -157 62 -247.5t164 -90.5q98 0 152.5 61t54.5 169q0 114 -63.5 183t-174.5 69z" />
    <glyph glyph-name="uni215B" unicode="&#x215b;" horiz-adv-x="2189" 
d="M461 1610h28v-844q0 -21 7 -36.5t25 -26t34.5 -17t51.5 -10.5t60 -5.5t74 -4.5v-60h-647v60l73.5 4.5t60 5.5t53 10.5t36.5 17t26 26t7 36.5v620h-256v48l51 6q192 28 316 170zM539 0l1069 1597h116l-1069 -1597h-116zM2066 766q0 -78 -63 -142.5t-143 -88.5l51 -23
q194 -84 194 -248q0 -121 -88.5 -198.5t-261.5 -77.5q-159 0 -256.5 72t-97.5 188q0 92 61.5 160.5t159.5 97.5l-16 8q-82 42 -125 94t-43 140q0 111 83.5 183.5t227.5 72.5q146 0 231.5 -64.5t85.5 -173.5zM1825 418l-148 63q-79 -41 -113 -100.5t-34 -122.5q0 -93 62 -145
t165 -52q97 0 156 48.5t59 128.5q0 65 -35 105.5t-112 74.5zM1706 608l106 -49q72 41 101 90.5t29 120.5q0 73 -53 115.5t-140 42.5q-86 0 -134 -39.5t-48 -112.5q0 -59 34 -97t105 -71z" />
    <glyph glyph-name="uni215C" unicode="&#x215c;" horiz-adv-x="2111" 
d="M485 1157q131 -15 209 -92.5t78 -190.5q0 -71 -29 -126t-78.5 -88t-111 -49.5t-131.5 -16.5q-147 0 -234.5 62.5t-87.5 146.5q0 35 17.5 61t42.5 39h84v-49q0 -91 48.5 -141.5t145.5 -50.5q90 0 140.5 48.5t50.5 145.5q0 221 -275 221h-61v45q69 23 115.5 43.5t89 49
t63.5 64.5t21 81q0 141 -166 141q-75 0 -132 -35t-112 -92l-33 35q105 201 318 201q125 0 193.5 -61.5t68.5 -149.5q0 -48 -21 -87.5t-61.5 -69.5t-71.5 -47t-80 -38zM461 0l1069 1597h117l-1069 -1597h-117zM1989 766q0 -78 -63.5 -142.5t-143.5 -88.5l51 -23
q93 -40 144 -99t51 -149q0 -121 -89 -198.5t-262 -77.5q-159 0 -256.5 72t-97.5 188q0 92 61.5 160.5t159.5 97.5l-16 8q-82 42 -125 94t-43 140q0 111 83.5 183.5t227.5 72.5q146 0 232 -64.5t86 -173.5zM1747 418l-148 63q-79 -41 -113 -100.5t-34 -122.5q0 -93 62 -145
t165 -52q97 0 156 48.5t59 128.5q0 65 -35 105.5t-112 74.5zM1628 608l107 -49q72 41 100.5 90.5t28.5 120.5q0 73 -53 115.5t-140 42.5q-86 0 -134 -39.5t-48 -112.5q0 -59 34 -97t105 -71z" />
    <glyph glyph-name="uni215D" unicode="&#x215d;" horiz-adv-x="2099" 
d="M428 659q98 0 150.5 54t52.5 159q0 94 -59 158t-156 92.5t-226 28.5l76 446h309q52 0 72.5 10.5t50.5 55.5h64l-57 -201h-390l-32 -196q215 -11 344 -101.5t129 -249.5q0 -146 -98 -233.5t-246 -87.5q-150 0 -233 61t-83 144q0 36 17 63.5t41 40.5h86v-55
q0 -189 188 -189zM449 0l1069 1597h116l-1069 -1597h-116zM1976 766q0 -78 -63.5 -142.5t-143.5 -88.5l52 -23q194 -84 194 -248q0 -121 -88.5 -198.5t-261.5 -77.5q-159 0 -256.5 72t-97.5 188q0 92 61.5 160.5t159.5 97.5l-16 8q-82 42 -125 94t-43 140q0 111 83.5 183.5
t227.5 72.5q146 0 231.5 -64.5t85.5 -173.5zM1735 418l-148 63q-79 -41 -113 -100.5t-34 -122.5q0 -93 62 -145t165 -52q97 0 156 48.5t59 128.5q0 65 -35 105.5t-112 74.5zM1616 608l106 -49q72 41 100.5 90.5t28.5 120.5q0 73 -52.5 115.5t-139.5 42.5q-86 0 -134 -39.5
t-48 -112.5q0 -59 34 -97t105 -71z" />
    <glyph glyph-name="uni215E" unicode="&#x215e;" horiz-adv-x="1951" 
d="M690 1462h-444q-44 0 -68.5 -31t-52.5 -104h-53l45 270h676v-41l-402 -950h-153zM301 0l1069 1597h117l-1069 -1597h-117zM1829 766q0 -78 -63.5 -142.5t-143.5 -88.5l51 -23q93 -40 144 -99t51 -149q0 -121 -88.5 -198.5t-261.5 -77.5q-159 0 -257 72t-98 188
q0 92 61.5 160.5t159.5 97.5l-16 8q-82 42 -125 94t-43 140q0 111 83.5 183.5t227.5 72.5q146 0 232 -64.5t86 -173.5zM1587 418l-147 63q-79 -41 -113.5 -100.5t-34.5 -122.5q0 -93 62.5 -145t165.5 -52q97 0 156 48.5t59 128.5q0 65 -35.5 105.5t-112.5 74.5zM1468 608
l107 -49q72 41 100.5 90.5t28.5 120.5q0 73 -53 115.5t-140 42.5q-86 0 -134 -39.5t-48 -112.5q0 -59 34 -97t105 -71z" />
    <glyph glyph-name="uni215F" unicode="&#x215f;" horiz-adv-x="1421" 
d="M461 1610h28v-844q0 -21 7 -36.5t25 -26t34.5 -17t51.5 -10.5t60 -5.5t74 -4.5v-60h-647v60l73.5 4.5t60 5.5t53 10.5t36.5 17t26 26t7 36.5v620h-256v48l51 6q192 28 316 170zM539 0l1069 1597h116l-1069 -1597h-116z" />
    <glyph glyph-name="arrowleft" unicode="&#x2190;" horiz-adv-x="1761" 
d="M926 207l-842 579v25l842 580v-107l-545 -442h1321v-86h-1321l545 -443v-106z" />
    <glyph glyph-name="arrowup" unicode="&#x2191;" horiz-adv-x="1761" 
d="M289 776l579 842h25l580 -842h-107l-442 563v-1339h-86v1339l-443 -563h-106z" />
    <glyph glyph-name="arrowright" unicode="&#x2192;" horiz-adv-x="1761" 
d="M1702 786l-842 -579v106l545 443h-1321v86h1321l-545 442v107l842 -580v-25z" />
    <glyph glyph-name="arrowdown" unicode="&#x2193;" horiz-adv-x="1761" 
d="M868 -20l-579 841h106l443 -563v1339h86v-1339l442 563h107l-580 -841h-25z" />
    <glyph glyph-name="uni2196" unicode="&#x2196;" horiz-adv-x="1761" 
d="M244 594l-185 1005l17 19l1005 -186l-75 -76l-699 86l936 -946l-61 -62l-932 946l69 -710z" />
    <glyph glyph-name="uni2197" unicode="&#x2197;" horiz-adv-x="1761" 
d="M680 1432l1006 186l16 -19l-184 -1005l-76 76l69 710l-931 -946l-62 62l936 946l-698 -86z" />
    <glyph glyph-name="uni2198" unicode="&#x2198;" horiz-adv-x="1761" 
d="M1518 1004l184 -1006l-16 -18l-1006 186l76 76l698 -86l-936 946l62 61l931 -946l-69 711z" />
    <glyph glyph-name="uni2199" unicode="&#x2199;" horiz-adv-x="1761" 
d="M1081 166l-1005 -186l-17 18l185 1006l75 -76l-71 -711l934 946l61 -61l-936 -946l699 86z" />
    <glyph glyph-name="partialdiff" unicode="&#x2202;" horiz-adv-x="1280" 
d="M1192 694q0 -177 -44 -315.5t-122.5 -224.5t-181.5 -130t-226 -44q-120 0 -221 42.5t-168 115t-104 167t-37 199.5q0 109 30.5 204.5t84 165t124.5 119.5t152.5 74.5t167.5 24.5q133 0 243 -66.5t146 -153.5q-9 120 -54.5 235t-116.5 206.5t-173 147t-215 55.5
q-106 0 -177 -20.5t-138 -61.5l-33 39q158 145 397 145q170 0 299.5 -70.5t208.5 -196.5t118.5 -291.5t39.5 -365.5zM672 88q111 0 191 57t118.5 149t38.5 206q0 229 -110.5 356t-309.5 127q-111 0 -191 -57t-118.5 -149t-38.5 -206q0 -229 110.5 -356t309.5 -127z" />
    <glyph glyph-name="increment" unicode="&#x2206;" horiz-adv-x="1761" 
d="M113 0v76l723 1521h90l723 -1521v-76h-1536zM1432 92l-605 1284l-598 -1284h1203z" />
    <glyph glyph-name="product" unicode="&#x220f;" horiz-adv-x="1970" 
d="M1456 1495h-942v-1257q0 -52 17 -85.5t53.5 -51t77.5 -24t106 -9.5v-68h-674v68q65 3 106 9.5t77.5 24t53.5 51t17 85.5v1122q0 52 -17 85.5t-53.5 51t-77.5 24t-106 9.5v67h1782v-67q-65 -3 -106 -9.5t-77.5 -24t-53.5 -51t-17 -85.5v-1122q0 -52 17 -85.5t53.5 -51
t77.5 -24t106 -9.5v-68h-674v68q65 3 106 9.5t77.5 24t53.5 51t17 85.5v1257z" />
    <glyph glyph-name="summation" unicode="&#x2211;" horiz-adv-x="1349" 
d="M217 137h602q58 0 93 2t69.5 12t54 22.5t46 43.5t47 63.5t55.5 92.5h49l-49 -373h-1123v125l658 668l-631 659v145h1100l6 -360h-39q-45 106 -86.5 160.5t-100.5 80t-153 25.5h-539l611 -633v-57z" />
    <glyph glyph-name="minus" unicode="&#x2212;" 
d="M1270 532h-1106v105h1106v-105z" />
    <glyph glyph-name="radical" unicode="&#x221a;" horiz-adv-x="1587" 
d="M639 158l825 1407h105l-924 -1565h-137l-223 965h-217v71l366 58z" />
    <glyph glyph-name="infinity" unicode="&#x221e;" horiz-adv-x="1800" 
d="M207 662q0 -109 68.5 -174.5t187.5 -65.5q203 0 362 221l-198 158q-64 53 -109.5 70.5t-103.5 17.5q-90 0 -148.5 -58t-58.5 -169zM1593 684q0 109 -68.5 174.5t-187.5 65.5q-203 0 -362 -222l199 -157q64 -53 109 -70.5t103 -17.5q90 0 148.5 58t58.5 169zM1047 455
l-164 137q-72 -126 -186 -201.5t-251 -75.5q-157 0 -260.5 90t-103.5 257q0 171 104.5 266.5t253.5 95.5q88 0 158 -30.5t156 -102.5l164 -137q72 126 185.5 201t250.5 75q101 0 182 -37t131.5 -117t50.5 -192q0 -171 -104.5 -266.5t-253.5 -95.5q-88 0 -157 30.5
t-156 102.5z" />
    <glyph glyph-name="integral" unicode="&#x222b;" horiz-adv-x="1249" 
d="M442 -39l115 1172q23 234 139.5 359.5t307.5 125.5q112 0 173.5 -42t61.5 -116q0 -40 -18 -71t-39 -41h-129q4 24 4 41q0 133 -121 133q-90 0 -140 -71.5t-65 -229.5l-115 -1172q-23 -234 -139 -359.5t-307 -125.5q-112 0 -174 41.5t-62 115.5q0 40 18.5 71.5t39.5 41.5
h129q-4 -24 -4 -41q0 -133 121 -133q89 0 139 71.5t65 229.5z" />
    <glyph glyph-name="approxequal" unicode="&#x2248;" 
d="M993 721q28 0 54.5 3t47 8.5t39 12.5t32 14.5t25 15t19.5 14t13 12t7 7.5l3 3l53 -76q-3 -5 -10 -13t-33.5 -28t-58 -35.5t-86 -28t-115.5 -12.5q-66 0 -126.5 15t-107.5 37t-93 44t-102 37t-114 15q-28 0 -54.5 -3t-47 -8.5t-39 -12.5t-32 -14.5t-25 -15t-19 -14
t-12.5 -12t-7 -8.5l-3 -2l-54 76q3 5 10.5 12.5t34 27.5t58 35.5t86 28t115.5 12.5q80 0 155 -23t124.5 -50.5t120.5 -50.5t142 -23zM993 401q28 0 54.5 3t47 8.5t39 12.5t32 14.5t25 15.5t19.5 14.5t13 12t7 8.5l3 2l53 -76q-3 -5 -10 -13t-33.5 -28t-58 -35.5t-86 -28
t-115.5 -12.5q-80 0 -155 23t-125 50.5t-121 50.5t-142 23q-28 0 -54.5 -3t-47 -8.5t-39 -12.5t-32 -14.5t-25 -15t-19 -14t-12.5 -12t-7 -8.5l-3 -2l-54 76q3 5 10.5 13t34 28t58 35.5t86 28t115.5 12.5q66 0 126 -15t107.5 -37t93 -44t101.5 -37t114 -15z" />
    <glyph glyph-name="notequal" unicode="&#x2260;" 
d="M389 195l129 188h-354v102h432l135 197h-567v104h643l131 189h123l-131 -189h340v-104h-416l-135 -197h557v-102h-635l-129 -188h-123z" />
    <glyph glyph-name="equivalence" unicode="&#x2261;" 
d="M1270 246h-1106v96h1106v-96zM1270 1255h-1106v97h1106v-97zM1270 754h-1106v94h1106v-94z" />
    <glyph glyph-name="lessequal" unicode="&#x2264;" 
d="M1270 53l-1106 344v101l1106 -346v-99zM225 725l334 -100l711 -222v-102l-1106 348v154l1106 346v-102l-711 -222z" />
    <glyph glyph-name="greaterequal" unicode="&#x2265;" 
d="M1270 397l-1106 -344v99l1106 346v-101zM874 625l334 100l-334 100l-710 222v102l1106 -346v-154l-1106 -348v102z" />
    <glyph glyph-name="squaremultiply" unicode="&#x22a0;" horiz-adv-x="1998" 
d="M201 0v1597h1597v-1597h-1597zM1661 1468h-1323v-1339h1323v1339zM442 338l461 461l-461 461l97 96l460 -461l459 461l98 -96l-460 -461l460 -461l-98 -96l-459 460l-460 -460z" />
    <glyph glyph-name="house" unicode="&#x2302;" horiz-adv-x="1740" 
d="M1597 0h-1454v922l727 696l727 -696v-922z" />
    <glyph glyph-name="blacksquare" unicode="&#x25a0;" horiz-adv-x="1998" 
d="M1798 1597v-1597h-1597v1597h1597z" />
    <glyph glyph-name="whitesquare" unicode="&#x25a1;" horiz-adv-x="1998" 
d="M201 0v1597h1597v-1597h-1597zM1661 1468h-1323v-1339h1323v1339z" />
    <glyph glyph-name="blacksmallsquare" unicode="&#x25aa;" horiz-adv-x="1486" 
d="M1286 1085v-1085h-1085v1085h1085z" />
    <glyph glyph-name="whitesmallsquare" unicode="&#x25ab;" horiz-adv-x="1486" 
d="M201 0v1085h1085v-1085h-1085zM1149 956h-811v-827h811v827z" />
    <glyph glyph-name="triagup" unicode="&#x25b2;" horiz-adv-x="1638" 
d="M1618 0h-1598l799 1384z" />
    <glyph glyph-name="triagrt" unicode="&#x25ba;" horiz-adv-x="1638" 
d="M70 0v1597l1384 -798z" />
    <glyph glyph-name="triagdn" unicode="&#x25bc;" horiz-adv-x="1638" 
d="M20 1597h1598l-799 -1384z" />
    <glyph glyph-name="triaglf" unicode="&#x25c4;" horiz-adv-x="1638" 
d="M1454 1597v-1597l-1384 799z" />
    <glyph glyph-name="lozenge" unicode="&#x25ca;" horiz-adv-x="1843" 
d="M922 -20l-754 819l754 819l753 -819zM332 799l590 -660l589 660l-589 659z" />
    <glyph glyph-name="whitecircle" unicode="&#x25cb;" horiz-adv-x="1998" 
d="M180 799q0 167 65 318.5t174.5 261t261 174.5t318.5 65t319 -65t261.5 -174.5t174.5 -261t65 -318.5t-65 -318.5t-174.5 -261t-261.5 -174.5t-319 -65t-318.5 65t-261 174.5t-174.5 261t-65 318.5zM1669 799q0 139 -52.5 265t-142 217.5t-214 145.5t-261.5 54
q-184 0 -338 -91.5t-242.5 -248t-88.5 -342.5t88.5 -342.5t243 -248t337.5 -91.5q184 0 338.5 91.5t243 248t88.5 342.5z" />
    <glyph glyph-name="whitecircle" unicode="&#x25ef;" horiz-adv-x="1998" 
d="M180 799q0 167 65 318.5t174.5 261t261 174.5t318.5 65t319 -65t261.5 -174.5t174.5 -261t65 -318.5t-65 -318.5t-174.5 -261t-261.5 -174.5t-319 -65t-318.5 65t-261 174.5t-174.5 261t-65 318.5zM1669 799q0 139 -52.5 265t-142 217.5t-214 145.5t-261.5 54
q-184 0 -338 -91.5t-242.5 -248t-88.5 -342.5t88.5 -342.5t243 -248t337.5 -91.5q184 0 338.5 91.5t243 248t88.5 342.5z" />
    <glyph glyph-name="bullseye" unicode="&#x25ce;" horiz-adv-x="1966" 
d="M164 799q0 167 65 318.5t174.5 261t261 174.5t318.5 65t318.5 -65t261 -174.5t174.5 -261t65 -318.5t-65 -318.5t-174.5 -261t-261 -174.5t-318.5 -65t-318.5 65t-261 174.5t-174.5 261t-65 318.5zM676 799q0 127 90 217t217 90t217 -90t90 -217t-90 -217t-217 -90
t-217 90t-90 217zM322 694q0 -152 74.5 -280t202.5 -202.5t280 -74.5t280.5 74t203.5 202.5t75 280.5q0 114 -44 217.5t-119 178.5t-178.5 119t-217.5 44q-152 0 -280.5 -75t-202.5 -203.5t-74 -280.5z" />
    <glyph glyph-name="blackcircle" unicode="&#x25cf;" horiz-adv-x="1998" 
d="M180 799q0 167 65 318.5t174.5 261t261 174.5t318.5 65t319 -65t261.5 -174.5t174.5 -261t65 -318.5t-65 -318.5t-174.5 -261t-261.5 -174.5t-319 -65t-318.5 65t-261 174.5t-174.5 261t-65 318.5z" />
    <glyph glyph-name="uni25E2" unicode="&#x25e2;" horiz-adv-x="1638" 
d="M53 414l1131 1130l413 -1544z" />
    <glyph glyph-name="uni25E3" unicode="&#x25e3;" horiz-adv-x="1638" 
d="M455 1544l1130 -1130l-1544 -414z" />
    <glyph glyph-name="uni25E4" unicode="&#x25e4;" horiz-adv-x="1638" 
d="M1585 1184l-1130 -1131l-414 1544z" />
    <glyph glyph-name="uni25E5" unicode="&#x25e5;" horiz-adv-x="1638" 
d="M1184 53l-1131 1131l1544 413z" />
    <glyph glyph-name="uni2605" unicode="&#x2605;" horiz-adv-x="1802" 
d="M901 369l-532 -389l202 628l-532 387h659l203 627l203 -627h659l-532 -387l203 -628z" />
    <glyph glyph-name="ballotboxwithx" unicode="&#x2612;" horiz-adv-x="1454" 
d="M184 0v1085h1086v-1085h-1086zM1126 950h-798v-815h798v815zM369 279l266 264l-266 264l94 94l264 -266l264 266l94 -94l-266 -264l266 -264l-94 -95l-264 267l-264 -267z" />
    <glyph glyph-name="uni263C" unicode="&#x263c;" horiz-adv-x="1966" 
d="M1802 799l-346 -62l318 -149l-351 30l271 -229l-332 121l201 -289l-289 201l119 -332l-228 266l31 -348l-152 318l-61 -346l-61 346l-152 -318l31 348l-228 -266l119 332l-289 -201l201 289l-332 -121l271 229l-350 -30l317 149l-346 62l346 61l-317 150l350 -31
l-271 229l332 -121l-201 289l289 -200l-119 331l228 -266l-31 348l152 -317l61 346l61 -346l152 317l-31 -348l228 266l-119 -331l289 200l-201 -289l332 121l-271 -229l351 31l-318 -150z" />
    <glyph glyph-name="uni263E" unicode="&#x263e;" horiz-adv-x="1966" 
d="M1278 1491q-181 0 -333.5 -92.5t-241.5 -252t-89 -347.5q0 -141 52.5 -269.5t141.5 -221t212 -147.5t258 -55q99 0 197 31q-218 -157 -492 -157q-167 0 -318.5 65t-261 174.5t-174.5 261t-65 318.5t65 318.5t174.5 261t261 174.5t318.5 65q268 0 492 -158
q-109 31 -197 31z" />
    <glyph glyph-name="spade" unicode="&#x2660;" horiz-adv-x="1843" 
d="M924 1618q66 -99 199 -238t278 -233q60 -39 104 -73t90.5 -79t75.5 -90t47.5 -102t18.5 -119q0 -150 -105 -253t-256 -103q-142 0 -246 93.5t-163 235.5l-6 -2q17 -210 54 -356.5t113 -298.5h-413q76 152 113.5 299t54.5 356l-6 2q-27 -67 -65.5 -124t-89 -104
t-116.5 -74t-139 -27q-151 0 -256 103t-105 253q0 62 18.5 119t47.5 102t75.5 90t90.5 79t104 73q146 95 279 233.5t199 237.5h4z" />
    <glyph glyph-name="club" unicode="&#x2663;" horiz-adv-x="1843" 
d="M715 0q76 152 113.5 299t54.5 356l-6 2q-27 -67 -65.5 -124t-89 -104t-116.5 -74t-139 -27q-151 0 -256 103t-105 253q0 161 99 265t258 104q84 0 172 -47l4 4q-78 118 -78 239q0 154 103.5 261.5t257.5 107.5t257 -107.5t103 -261.5q0 -121 -78 -239l4 -4q88 47 172 47
q159 0 258 -104t99 -265q0 -150 -105 -253t-256 -103q-142 0 -246 93.5t-163 235.5l-6 -2q17 -210 54 -356.5t113 -298.5h-413z" />
    <glyph glyph-name="heart" unicode="&#x2665;" horiz-adv-x="1843" 
d="M924 -20h-4q-59 88 -193.5 259t-284.5 341q-64 73 -114 136.5t-105 148.5t-86 170t-31 161q0 185 107 303.5t285 118.5q92 0 163.5 -25.5t120.5 -73t80.5 -100.5t55.5 -123h8q24 70 55.5 123t80.5 100.5t120.5 73t163.5 25.5q178 0 284.5 -118.5t106.5 -303.5
q0 -76 -31 -161t-86 -170t-105 -148.5t-114 -136.5q-149 -169 -283.5 -340t-193.5 -260z" />
    <glyph glyph-name="diamond" unicode="&#x2666;" horiz-adv-x="1843" 
d="M1673 799q-218 -170 -415 -386t-334 -433h-4q-137 217 -334.5 433t-415.5 386q218 170 415.5 386t334.5 433h4q137 -217 334 -433t415 -386z" />
    <glyph glyph-name="musicflatsign" unicode="&#x266d;" horiz-adv-x="983" 
d="M139 -86v1765h107v-755q40 78 131.5 133t183.5 55q176 0 263 -97t87 -280q0 -118 -42.5 -230t-116 -203t-172 -168t-210.5 -132t-231 -88zM246 702v-632q67 24 133 58t142.5 92.5t133.5 126.5t95 165t38 205q0 276 -241 276q-116 0 -203.5 -93t-97.5 -198z" />
    <glyph glyph-name="musicsharpsign" unicode="&#x266f;" horiz-adv-x="954" 
d="M727 1802v-430l186 150v-162l-186 -152v-420l186 150v-162l-186 -151v-625h-104v543l-291 -234v-514h-105v430l-186 -149v162l186 151v420l-186 -150v162l186 152v624h105v-542l291 233v514h104zM332 891v-420l291 234v421z" />
    <glyph glyph-name="uni267B" unicode="&#x267b;" horiz-adv-x="1966" 
d="M1767 545l2 -4l-196 -342q-41 -60 -60 -77q-44 -38 -120 -38h-117v-100l-232 278l232 277v-101h297q34 0 66.5 11t54.5 27t39.5 31.5t25.5 26.5zM381 250h-4l-197 344q-23 42 -31.5 65.5t-5.5 63t29 82.5l57 100l-86 49l357 64l121 -340l-84 49q-144 -246 -148 -256
q-27 -46 -29 -101.5t10 -87.5zM827 1595v2h396q37 -1 56 -3t46 -11t47 -29t39 -53l57 -100l88 49l-124 -340l-355 64l84 49l-147 256q-27 47 -74 76t-80 35zM410 1225l137 243q21 38 69 64q63 34 131.5 30.5t126.5 -33t80 -69.5l-237 -411zM913 84h-276q-43 0 -90 27
q-45 26 -76 70.5t-42.5 91.5t-9.5 91.5t19 73.5h475v-354zM1651 1079l141 -239q20 -36 20 -90q1 -99 -78 -178.5t-151 -79.5l-237 411z" />
    <glyph glyph-name="uni267C" unicode="&#x267c;" horiz-adv-x="1966" 
d="M1802 797q0 -167 -64.5 -318.5t-173.5 -260.5t-260.5 -173.5t-318.5 -64.5q-168 0 -320 64.5t-261.5 173.5t-174.5 260.5t-65 318.5q0 168 65 320t174.5 261.5t261.5 174.5t320 65q167 0 318.5 -65t260.5 -174.5t173.5 -261.5t64.5 -320zM641 1321l-106 -188l237 -138
l184 320q-17 30 -62 52.5t-98 25.5t-102 -23q-37 -21 -53 -49zM850 1421v-2q4 0 11 -1.5t26.5 -7.5t36.5 -14.5t37.5 -26.5t33.5 -40l115 -199l-66 -38l275 -50l96 265l-67 -39l-45 78q-28 49 -60 62t-86 13h-307zM702 248h216v274h-369q-13 -22 -15 -57t7.5 -71.5t33.5 -71
t58 -54.5q36 -20 69 -20zM510 377h2q-5 10 -10.5 27.5t-5 63t21.5 81.5l115 199l65 -39l-94 264l-276 -49l67 -39l-45 -78q-20 -34 -22.5 -65t4 -48.5t24.5 -50.5zM1606 834l-109 186l-237 -137l184 -320q57 0 118 61.5t60 139.5q0 42 -16 70zM1589 602l-2 2
q-2 -3 -6.5 -8.5t-19.5 -20t-31.5 -25t-42 -19.5t-51.5 -9h-230v78l-180 -215l180 -215v78h90q57 0 85 21.5t55 66.5z" />
    <glyph glyph-name="uni267D" unicode="&#x267d;" horiz-adv-x="1966" 
d="M1802 797q0 -167 -64.5 -318.5t-173.5 -260.5t-260.5 -173.5t-318.5 -64.5q-168 0 -320 64.5t-261.5 173.5t-174.5 260.5t-65 318.5q0 168 65 320t174.5 261.5t261.5 174.5t320 65q167 0 318.5 -65t260.5 -174.5t173.5 -261.5t64.5 -320zM1761 797q0 159 -61.5 303.5
t-165 249t-247.5 166t-302 61.5q-159 0 -303.5 -61.5t-249 -166t-166 -249t-61.5 -303.5q0 -158 61.5 -302t166 -248t249 -165.5t303.5 -61.5q158 0 302 61.5t247.5 165.5t165 248t61.5 302zM535 1133l106 188q16 28 53 49q49 26 102 23t98 -25.5t62 -52.5l-184 -320z
M850 1419v2h307q54 0 86 -13t60 -62l45 -78l67 39l-96 -265l-275 50l66 38l-115 199q-21 36 -57 58.5t-62 26.5zM918 248h-216q-33 0 -69 20q-34 20 -58 54.5t-33.5 71t-7.5 71.5t15 57h369v-274zM512 377h-2l-154 266q-18 33 -24.5 50.5t-4 48.5t22.5 65l45 78l-67 39
l276 49l94 -264l-65 39l-115 -199q-21 -36 -22.5 -79t7.5 -68zM1497 1020l109 -186q16 -28 16 -70q1 -78 -60 -139.5t-118 -61.5l-184 320zM1587 604l2 -2l-153 -266q-18 -30 -31 -46t-41 -29t-68 -13h-90v-78l-180 215l180 215v-78h230q42 0 79.5 20.5t54.5 41.5z" />
    <glyph glyph-name="mediumwhitecircle" unicode="&#x26aa;" horiz-adv-x="1454" 
d="M164 543q0 153 75.5 282.5t205 205t282.5 75.5t282.5 -75.5t205 -205t75.5 -282.5t-75.5 -282.5t-205 -205t-282.5 -75.5t-282.5 75.5t-205 205t-75.5 282.5zM1149 543q0 177 -123.5 301.5t-298.5 124.5t-298.5 -124.5t-123.5 -301.5t123.5 -301.5t298.5 -124.5
t298.5 124.5t123.5 301.5z" />
    <glyph glyph-name="mediumblackcircle" unicode="&#x26ab;" horiz-adv-x="1454" 
d="M164 543q0 153 75.5 282.5t205 205t282.5 75.5t282.5 -75.5t205 -205t75.5 -282.5t-75.5 -282.5t-205 -205t-282.5 -75.5t-282.5 75.5t-205 205t-75.5 282.5z" />
    <glyph glyph-name="anglebracketleft" unicode="&#x3008;" horiz-adv-x="745" 
d="M522 -266l-366 983l366 983h101l-359 -983l359 -983h-101z" />
    <glyph glyph-name="anglebracketright" unicode="&#x3009;" horiz-adv-x="745" 
d="M590 717l-367 -983h-100l358 983l-358 983h100z" />
    <glyph glyph-name="aogonek.school" unicode="&#xe150;" horiz-adv-x="1361" 
d="M621 993q-171 0 -273 -118.5t-102 -331.5q0 -123 40.5 -221t127 -159t207.5 -61q95 0 180 41.5t143 110.5v434q0 150 -84.5 227.5t-238.5 77.5zM1286 115v-62q-123 -39 -188.5 -123t-65.5 -194q0 -70 44.5 -111t119.5 -41q61 0 133 31l23 -45q-82 -82 -211 -82
q-102 0 -169 56.5t-67 172.5q0 98 59 177t160 122l-174 -36h-16l10 186q-161 -186 -369 -186q-115 0 -208.5 41t-153.5 111t-92.5 160t-32.5 191q0 137 44.5 252.5t120.5 193t177 120.5t213 43q92 0 181.5 -31.5t138.5 -75.5l118 129h29l-10 -221v-682q0 -50 22.5 -63.5
t106.5 -24.5z" />
    <glyph glyph-name="a.school" unicode="&#xe151;" horiz-adv-x="1361" 
d="M621 993q-171 0 -273 -118.5t-102 -331.5q0 -123 40.5 -221t127 -159t207.5 -61q95 0 180 41.5t143 110.5v434q0 150 -84.5 227.5t-238.5 77.5zM934 -20l10 186q-161 -186 -369 -186q-115 0 -208.5 41t-153.5 111t-92.5 160t-32.5 191q0 137 44.5 252.5t120.5 193
t177 120.5t213 43q92 0 181.5 -31.5t138.5 -75.5l118 129h29l-10 -221v-682q0 -50 22.5 -63.5t106.5 -24.5l57 -8v-62l-336 -73h-16z" />
    <glyph glyph-name="agrave.school" unicode="&#xe152;" horiz-adv-x="1361" 
d="M621 993q-171 0 -273 -118.5t-102 -331.5q0 -123 40.5 -221t127 -159t207.5 -61q95 0 180 41.5t143 110.5v434q0 150 -84.5 227.5t-238.5 77.5zM934 -20l10 186q-161 -186 -369 -186q-115 0 -208.5 41t-153.5 111t-92.5 160t-32.5 191q0 137 44.5 252.5t120.5 193
t177 120.5t213 43q92 0 181.5 -31.5t138.5 -75.5l118 129h29l-10 -221v-682q0 -50 22.5 -63.5t106.5 -24.5l57 -8v-62l-336 -73h-16zM299 1638h201l172 -426h-68z" />
    <glyph glyph-name="aacute.school" unicode="&#xe153;" horiz-adv-x="1361" 
d="M621 993q-171 0 -273 -118.5t-102 -331.5q0 -123 40.5 -221t127 -159t207.5 -61q95 0 180 41.5t143 110.5v434q0 150 -84.5 227.5t-238.5 77.5zM934 -20l10 186q-161 -186 -369 -186q-115 0 -208.5 41t-153.5 111t-92.5 160t-32.5 191q0 137 44.5 252.5t120.5 193
t177 120.5t213 43q92 0 181.5 -31.5t138.5 -75.5l118 129h29l-10 -221v-682q0 -50 22.5 -63.5t106.5 -24.5l57 -8v-62l-336 -73h-16zM760 1638h207l-305 -426h-68z" />
    <glyph glyph-name="acircumflex.school" unicode="&#xe154;" horiz-adv-x="1361" 
d="M686 1638l303 -426h-69l-291 275l-291 -275h-70l303 426h115zM621 993q-171 0 -273 -118.5t-102 -331.5q0 -123 40.5 -221t127 -159t207.5 -61q95 0 180 41.5t143 110.5v434q0 150 -84.5 227.5t-238.5 77.5zM934 -20l10 186q-161 -186 -369 -186q-115 0 -208.5 41
t-153.5 111t-92.5 160t-32.5 191q0 137 44.5 252.5t120.5 193t177 120.5t213 43q92 0 181.5 -31.5t138.5 -75.5l118 129h29l-10 -221v-682q0 -50 22.5 -63.5t106.5 -24.5l57 -8v-62l-336 -73h-16z" />
    <glyph glyph-name="adieresis.school" unicode="&#xe155;" horiz-adv-x="1361" 
d="M303 1415q0 47 34 82t81 35t82 -35t35 -82t-35 -81t-82 -34t-81 34t-34 81zM711 1415q0 48 33.5 82.5t80.5 34.5t82 -35t35 -82t-35 -81t-82 -34t-80.5 34t-33.5 81zM621 993q-171 0 -273 -118.5t-102 -331.5q0 -123 40.5 -221t127 -159t207.5 -61q95 0 180 41.5
t143 110.5v434q0 150 -84.5 227.5t-238.5 77.5zM934 -20l10 186q-161 -186 -369 -186q-115 0 -208.5 41t-153.5 111t-92.5 160t-32.5 191q0 137 44.5 252.5t120.5 193t177 120.5t213 43q92 0 181.5 -31.5t138.5 -75.5l118 129h29l-10 -221v-682q0 -50 22.5 -63.5
t106.5 -24.5l57 -8v-62l-336 -73h-16z" />
    <glyph glyph-name="atilde.school" unicode="&#xe156;" horiz-adv-x="1361" 
d="M621 993q-171 0 -273 -118.5t-102 -331.5q0 -123 40.5 -221t127 -159t207.5 -61q95 0 180 41.5t143 110.5v434q0 150 -84.5 227.5t-238.5 77.5zM934 -20l10 186q-161 -186 -369 -186q-115 0 -208.5 41t-153.5 111t-92.5 160t-32.5 191q0 137 44.5 252.5t120.5 193
t177 120.5t213 43q92 0 181.5 -31.5t138.5 -75.5l118 129h29l-10 -221v-682q0 -50 22.5 -63.5t106.5 -24.5l57 -8v-62l-336 -73h-16zM766 1249q-45 0 -92.5 19t-80.5 41.5t-72.5 41.5t-69.5 19q-54 0 -81 -19.5t-63 -86.5l-67 10q79 215 254 215q45 0 92.5 -19t80.5 -42.5
t72.5 -42.5t69.5 -19q53 0 79.5 20t63.5 87l68 -9q-78 -215 -254 -215z" />
    </font>
</defs>
</svg>
