<svg width="17" height="16" viewBox="0 0 17 16" fill="none" xmlns="http://www.w3.org/2000/svg"><path fill-rule="evenodd" clip-rule="evenodd" d="M16.64 9.81c0-3.316-1.76-4.86-4.107-4.86-1.893 0-2.741 1.048-3.215 1.783V5.204H5.751c.047 1.013 0 10.796 0 10.796h3.567V9.97c0-.322.023-.644.118-.875.258-.644.845-1.312 1.83-1.312 1.291 0 1.807.99 1.807 2.441V16h3.567V9.81zM3.776 5.204H.21V16h3.566V5.204zM4.013 1.865C3.989.806 3.238 0 2.018 0 .798 0 0 .806 0 1.865 0 2.9.774 3.73 1.972 3.73h.022c1.244 0 2.019-.83 2.019-1.866z" fill="#74788A"/></svg>