<svg width="100" height="32" viewBox="0 0 100 32" fill="none" xmlns="http://www.w3.org/2000/svg"><path fill-rule="evenodd" clip-rule="evenodd" d="M6.665 14.325c-1.358 0-2.537-.28-3.538-.841a5.872 5.872 0 0 1-2.314-2.4C.27 10.044 0 8.817 0 7.402v-.469c0-1.351.261-2.547.784-3.586A5.985 5.985 0 0 1 3.031.889C4.007.296 5.171 0 6.522 0c.937 0 1.82.134 2.649.402a6.511 6.511 0 0 1 2.219 1.224v3.366H9.313l-.287-2.114a3.96 3.96 0 0 0-1.08-.526 4.282 4.282 0 0 0-1.358-.2c-1.18 0-2.107.43-2.783 1.29-.676.855-1.014 2.012-1.014 3.472v.488c0 1.466.351 2.63 1.052 3.49.702.86 1.658 1.291 2.87 1.291.4 0 .802-.044 1.204-.134a6.29 6.29 0 0 0 1.11-.363l.286-1.96h2.075v3.327c-.541.357-1.217.66-2.027.909-.81.242-1.708.363-2.697.363zm12.394 0c-1.256 0-2.356-.302-3.3-.908-.943-.612-1.68-1.45-2.208-2.515-.523-1.065-.784-2.276-.784-3.634v-.21c0-1.352.261-2.56.784-3.625.529-1.065 1.262-1.903 2.2-2.515C16.693.306 17.793 0 19.048 0c1.256 0 2.36.306 3.31.918.955.612 1.698 1.45 2.227 2.515.536 1.065.804 2.273.804 3.624v.21c0 1.359-.265 2.57-.794 3.635-.53 1.065-1.272 1.903-2.228 2.515-.95.606-2.053.908-3.309.908zm0-2.17c1.18 0 2.066-.447 2.659-1.34.592-.898.889-2.08.889-3.547v-.23c0-.962-.134-1.807-.402-2.534-.267-.733-.666-1.304-1.195-1.712-.523-.408-1.176-.612-1.96-.612-1.174 0-2.05.447-2.63 1.34-.574.892-.861 2.065-.861 3.518v.23c0 1.466.29 2.649.87 3.548.587.892 1.463 1.338 2.63 1.338zm7.45.296v1.673h5.766v-1.673l-1.645-.287V9.21l-.162-5.91.057-.01 4.256 10.644h2.113l4.16-10.73.057.01-.048 6.283v2.668l-1.558.287v1.673h5.766v-1.673l-1.492-.287V2.171l1.492-.287V.2h-5.623l-3.672 9.706h-.057L32.122.201h-5.613v1.683l1.482.287v9.993l-1.482.287zm19.757 1.673v-1.673l1.482-.287V2.171l-1.482-.287V.2h6.627c1.065 0 1.983.188 2.754.564.771.37 1.364.89 1.779 1.559.414.663.621 1.437.621 2.324 0 .886-.207 1.664-.621 2.333-.415.663-1.008 1.18-1.78 1.55-.77.363-1.688.544-2.753.544H50.54v3.09l1.492.286v1.673h-5.766zm4.274-7.2h2.353c.778 0 1.364-.21 1.76-.632.401-.427.602-.969.602-1.625 0-.67-.201-1.221-.603-1.655-.395-.44-.981-.66-1.76-.66H50.54v4.572zm6.006 5.527v1.673h4.743v-1.673l-.966-.172.612-1.913h4.897l.612 1.913-.966.172v1.673h4.743v-1.673l-.995-.144L64.827.201h-2.859L57.54 12.307l-.994.144zm8.626-4.14h-3.577l1.616-4.744.144-.45h.057l.134.421 1.626 4.772zm5.977 5.813v-1.673l1.482-.287V2.171l-1.483-.287V.2h4.313l6.063 9.658.058-.01V2.172l-1.779-.287V.2h5.767v1.683l-1.492.287v11.954H81.38l-6.197-9.563-.057.01v7.592l1.788.287v1.673h-5.767zm19.126-1.673v1.673h5.766v-1.673l-1.492-.287V9.133l4.074-7.058L100 1.884V.2h-5.45v1.683l1.53.162-2.573 4.466-.21.421-.058.01-.21-.45-2.315-4.447 1.138-.162V.2h-5.556v1.683l1.34.191 4.13 7.278v2.811l-1.492.287zm-60.03 18.557v-1.096l.97-.188v-6.548l-.97-.188v-1.102h2.825l3.972 6.328.038-.006v-5.032l-1.166-.188v-1.102h3.778v1.102l-.977.188v7.832h-1.767l-4.06-6.265-.038.006v4.975l1.172.188v1.096h-3.778zm9.353 0v-1.096l.652-.094 2.9-7.932h1.874l2.882 7.932.652.094v1.096H45.45v-1.096l.633-.113-.401-1.253h-3.208l-.4 1.253.632.113v1.096h-3.108zm3.308-3.81h2.344l-1.065-3.126-.088-.275h-.038l-.094.294-1.059 3.108zm6.26 2.714v1.096h3.778v-1.096l-1.078-.188v-1.936l-.107-3.872.038-.007 2.788 6.974h1.385l2.725-7.03.038.006-.031 4.117v1.748l-1.022.188v1.096h3.778v-1.096l-.977-.188v-6.548l.977-.188v-1.102h-3.684l-2.406 6.36h-.037l-2.488-6.36h-3.678v1.102l.972.188v6.548l-.971.188zm12.944 1.096v-1.096l.971-.188v-6.548l-.971-.188v-1.102h7.08v2.462h-1.404l-.081-1.053H64.91v2.293h3.088v1.41h-3.088v2.607h2.944l.082-1.09h1.39v2.493H62.11zm-47.75-5.403H.178v1.351H14.36v-1.35zm67.535 1.351h14.182v-1.35H81.895v1.35z" fill="#fff"/></svg>