<svg width="20" height="16" viewBox="0 0 20 16" fill="none" xmlns="http://www.w3.org/2000/svg"><path fill-rule="evenodd" clip-rule="evenodd" d="M9.387 4.256l.042.692-.698-.084c-2.543-.325-4.764-1.427-6.65-3.277L1.16.669l-.237.678c-.503 1.511-.182 3.107.866 4.18.559.594.433.678-.53.325C.921 5.74.627 5.654.6 5.697c-.098.099.237 1.384.503 1.892.363.707 1.103 1.399 1.913 1.808l.685.325-.81.014c-.783 0-.81.014-.727.31.28.919 1.383 1.893 2.613 2.317l.866.297-.755.452a7.856 7.856 0 0 1-3.744 1.045C.517 14.17 0 14.227 0 14.27c0 .141 1.704.932 2.696 1.243 2.976.918 6.51.522 9.164-1.046 1.886-1.115 3.772-3.333 4.652-5.48.475-1.143.95-3.234.95-4.236 0-.65.042-.735.824-1.512.46-.452.894-.946.978-1.087.14-.268.126-.268-.587-.028-1.187.423-1.355.367-.768-.269.433-.452.95-1.27.95-1.51 0-.043-.21.027-.447.154-.252.142-.81.354-1.23.48l-.754.24-.685-.465c-.377-.255-.908-.537-1.187-.622-.712-.198-1.802-.17-2.444.057-1.747.635-2.85 2.274-2.725 4.067z" fill="#74788A"/></svg>